<?xml version="1.0" encoding="utf-8" standalone="no"?>
<!DOCTYPE svg PUBLIC "-//W3C//DTD SVG 1.1//EN"
  "http://www.w3.org/Graphics/SVG/1.1/DTD/svg11.dtd">
<!-- Created with matplotlib (https://matplotlib.org/) -->
<svg height="288pt" version="1.1" viewBox="0 0 468 288" width="468pt" xmlns="http://www.w3.org/2000/svg" xmlns:xlink="http://www.w3.org/1999/xlink">
 <metadata>
  <rdf:RDF xmlns:cc="http://creativecommons.org/ns#" xmlns:dc="http://purl.org/dc/elements/1.1/" xmlns:rdf="http://www.w3.org/1999/02/22-rdf-syntax-ns#">
   <cc:Work>
    <dc:type rdf:resource="http://purl.org/dc/dcmitype/StillImage"/>
    <dc:date>2022-04-22T14:53:27.977828</dc:date>
    <dc:format>image/svg+xml</dc:format>
    <dc:creator>
     <cc:Agent>
      <dc:title>Matplotlib v3.3.2, https://matplotlib.org/</dc:title>
     </cc:Agent>
    </dc:creator>
   </cc:Work>
  </rdf:RDF>
 </metadata>
 <defs>
  <style type="text/css">*{stroke-linecap:butt;stroke-linejoin:round;}</style>
 </defs>
 <g id="figure_1">
  <g id="patch_1">
   <path d="M 0 288 
L 468 288 
L 468 0 
L 0 0 
z
" style="fill:none;"/>
  </g>
  <g id="axes_1">
   <g id="patch_2">
    <path d="M 26.05649 258.62226 
L 454.971764 258.62226 
L 454.971764 24.2787 
L 26.05649 24.2787 
z
" style="fill:none;"/>
   </g>
   <g id="patch_3">
    <path clip-path="url(#p76bb794355)" d="M 45.552639 258.62226 
L 51.645185 258.62226 
L 51.645185 230.724217 
L 45.552639 230.724217 
z
" style="fill:#1f77b4;opacity:0.9;"/>
   </g>
   <g id="patch_4">
    <path clip-path="url(#p76bb794355)" d="M 76.015371 258.62226 
L 82.107918 258.62226 
L 82.107918 258.62226 
L 76.015371 258.62226 
z
" style="fill:#1f77b4;opacity:0.9;"/>
   </g>
   <g id="patch_5">
    <path clip-path="url(#p76bb794355)" d="M 106.478104 258.62226 
L 112.57065 258.62226 
L 112.57065 258.62226 
L 106.478104 258.62226 
z
" style="fill:#1f77b4;opacity:0.9;"/>
   </g>
   <g id="patch_6">
    <path clip-path="url(#p76bb794355)" d="M 136.940836 258.62226 
L 143.033383 258.62226 
L 143.033383 258.62226 
L 136.940836 258.62226 
z
" style="fill:#1f77b4;opacity:0.9;"/>
   </g>
   <g id="patch_7">
    <path clip-path="url(#p76bb794355)" d="M 167.403569 258.62226 
L 173.496116 258.62226 
L 173.496116 258.62226 
L 167.403569 258.62226 
z
" style="fill:#1f77b4;opacity:0.9;"/>
   </g>
   <g id="patch_8">
    <path clip-path="url(#p76bb794355)" d="M 197.866302 258.62226 
L 203.958848 258.62226 
L 203.958848 258.62226 
L 197.866302 258.62226 
z
" style="fill:#1f77b4;opacity:0.9;"/>
   </g>
   <g id="patch_9">
    <path clip-path="url(#p76bb794355)" d="M 228.329034 258.62226 
L 234.421581 258.62226 
L 234.421581 258.62226 
L 228.329034 258.62226 
z
" style="fill:#1f77b4;opacity:0.9;"/>
   </g>
   <g id="patch_10">
    <path clip-path="url(#p76bb794355)" d="M 258.791767 258.62226 
L 264.884313 258.62226 
L 264.884313 258.62226 
L 258.791767 258.62226 
z
" style="fill:#1f77b4;opacity:0.9;"/>
   </g>
   <g id="patch_11">
    <path clip-path="url(#p76bb794355)" d="M 289.254499 258.62226 
L 295.347046 258.62226 
L 295.347046 258.62226 
L 289.254499 258.62226 
z
" style="fill:#1f77b4;opacity:0.9;"/>
   </g>
   <g id="patch_12">
    <path clip-path="url(#p76bb794355)" d="M 319.717232 258.62226 
L 325.809778 258.62226 
L 325.809778 258.62226 
L 319.717232 258.62226 
z
" style="fill:#1f77b4;opacity:0.9;"/>
   </g>
   <g id="patch_13">
    <path clip-path="url(#p76bb794355)" d="M 350.179964 258.62226 
L 356.272511 258.62226 
L 356.272511 35.437917 
L 350.179964 35.437917 
z
" style="fill:#1f77b4;opacity:0.9;"/>
   </g>
   <g id="patch_14">
    <path clip-path="url(#p76bb794355)" d="M 380.642697 258.62226 
L 386.735243 258.62226 
L 386.735243 258.62226 
L 380.642697 258.62226 
z
" style="fill:#1f77b4;opacity:0.9;"/>
   </g>
   <g id="patch_15">
    <path clip-path="url(#p76bb794355)" d="M 411.105429 258.62226 
L 417.197976 258.62226 
L 417.197976 258.62226 
L 411.105429 258.62226 
z
" style="fill:#1f77b4;opacity:0.9;"/>
   </g>
   <g id="patch_16">
    <path clip-path="url(#p76bb794355)" d="M 51.645185 258.62226 
L 57.737732 258.62226 
L 57.737732 258.62226 
L 51.645185 258.62226 
z
" style="fill:#ff7f0e;opacity:0.9;"/>
   </g>
   <g id="patch_17">
    <path clip-path="url(#p76bb794355)" d="M 82.107918 258.62226 
L 88.200464 258.62226 
L 88.200464 230.724217 
L 82.107918 230.724217 
z
" style="fill:#ff7f0e;opacity:0.9;"/>
   </g>
   <g id="patch_18">
    <path clip-path="url(#p76bb794355)" d="M 112.57065 258.62226 
L 118.663197 258.62226 
L 118.663197 258.62226 
L 112.57065 258.62226 
z
" style="fill:#ff7f0e;opacity:0.9;"/>
   </g>
   <g id="patch_19">
    <path clip-path="url(#p76bb794355)" d="M 143.033383 258.62226 
L 149.125929 258.62226 
L 149.125929 258.62226 
L 143.033383 258.62226 
z
" style="fill:#ff7f0e;opacity:0.9;"/>
   </g>
   <g id="patch_20">
    <path clip-path="url(#p76bb794355)" d="M 173.496116 258.62226 
L 179.588662 258.62226 
L 179.588662 258.62226 
L 173.496116 258.62226 
z
" style="fill:#ff7f0e;opacity:0.9;"/>
   </g>
   <g id="patch_21">
    <path clip-path="url(#p76bb794355)" d="M 203.958848 258.62226 
L 210.051395 258.62226 
L 210.051395 258.62226 
L 203.958848 258.62226 
z
" style="fill:#ff7f0e;opacity:0.9;"/>
   </g>
   <g id="patch_22">
    <path clip-path="url(#p76bb794355)" d="M 234.421581 258.62226 
L 240.514127 258.62226 
L 240.514127 258.62226 
L 234.421581 258.62226 
z
" style="fill:#ff7f0e;opacity:0.9;"/>
   </g>
   <g id="patch_23">
    <path clip-path="url(#p76bb794355)" d="M 264.884313 258.62226 
L 270.97686 258.62226 
L 270.97686 258.62226 
L 264.884313 258.62226 
z
" style="fill:#ff7f0e;opacity:0.9;"/>
   </g>
   <g id="patch_24">
    <path clip-path="url(#p76bb794355)" d="M 295.347046 258.62226 
L 301.439592 258.62226 
L 301.439592 258.62226 
L 295.347046 258.62226 
z
" style="fill:#ff7f0e;opacity:0.9;"/>
   </g>
   <g id="patch_25">
    <path clip-path="url(#p76bb794355)" d="M 325.809778 258.62226 
L 331.902325 258.62226 
L 331.902325 258.62226 
L 325.809778 258.62226 
z
" style="fill:#ff7f0e;opacity:0.9;"/>
   </g>
   <g id="patch_26">
    <path clip-path="url(#p76bb794355)" d="M 356.272511 258.62226 
L 362.365057 258.62226 
L 362.365057 258.62226 
L 356.272511 258.62226 
z
" style="fill:#ff7f0e;opacity:0.9;"/>
   </g>
   <g id="patch_27">
    <path clip-path="url(#p76bb794355)" d="M 386.735243 258.62226 
L 392.82779 258.62226 
L 392.82779 35.437917 
L 386.735243 35.437917 
z
" style="fill:#ff7f0e;opacity:0.9;"/>
   </g>
   <g id="patch_28">
    <path clip-path="url(#p76bb794355)" d="M 417.197976 258.62226 
L 423.290522 258.62226 
L 423.290522 258.62226 
L 417.197976 258.62226 
z
" style="fill:#ff7f0e;opacity:0.9;"/>
   </g>
   <g id="patch_29">
    <path clip-path="url(#p76bb794355)" d="M 57.737732 258.62226 
L 63.830278 258.62226 
L 63.830278 258.62226 
L 57.737732 258.62226 
z
" style="fill:#2ca02c;opacity:0.9;"/>
   </g>
   <g id="patch_30">
    <path clip-path="url(#p76bb794355)" d="M 88.200464 258.62226 
L 94.293011 258.62226 
L 94.293011 230.724217 
L 88.200464 230.724217 
z
" style="fill:#2ca02c;opacity:0.9;"/>
   </g>
   <g id="patch_31">
    <path clip-path="url(#p76bb794355)" d="M 118.663197 258.62226 
L 124.755743 258.62226 
L 124.755743 258.62226 
L 118.663197 258.62226 
z
" style="fill:#2ca02c;opacity:0.9;"/>
   </g>
   <g id="patch_32">
    <path clip-path="url(#p76bb794355)" d="M 149.125929 258.62226 
L 155.218476 258.62226 
L 155.218476 258.62226 
L 149.125929 258.62226 
z
" style="fill:#2ca02c;opacity:0.9;"/>
   </g>
   <g id="patch_33">
    <path clip-path="url(#p76bb794355)" d="M 179.588662 258.62226 
L 185.681209 258.62226 
L 185.681209 258.62226 
L 179.588662 258.62226 
z
" style="fill:#2ca02c;opacity:0.9;"/>
   </g>
   <g id="patch_34">
    <path clip-path="url(#p76bb794355)" d="M 210.051395 258.62226 
L 216.143941 258.62226 
L 216.143941 258.62226 
L 210.051395 258.62226 
z
" style="fill:#2ca02c;opacity:0.9;"/>
   </g>
   <g id="patch_35">
    <path clip-path="url(#p76bb794355)" d="M 240.514127 258.62226 
L 246.606674 258.62226 
L 246.606674 258.62226 
L 240.514127 258.62226 
z
" style="fill:#2ca02c;opacity:0.9;"/>
   </g>
   <g id="patch_36">
    <path clip-path="url(#p76bb794355)" d="M 270.97686 258.62226 
L 277.069406 258.62226 
L 277.069406 258.62226 
L 270.97686 258.62226 
z
" style="fill:#2ca02c;opacity:0.9;"/>
   </g>
   <g id="patch_37">
    <path clip-path="url(#p76bb794355)" d="M 301.439592 258.62226 
L 307.532139 258.62226 
L 307.532139 258.62226 
L 301.439592 258.62226 
z
" style="fill:#2ca02c;opacity:0.9;"/>
   </g>
   <g id="patch_38">
    <path clip-path="url(#p76bb794355)" d="M 331.902325 258.62226 
L 337.994871 258.62226 
L 337.994871 258.62226 
L 331.902325 258.62226 
z
" style="fill:#2ca02c;opacity:0.9;"/>
   </g>
   <g id="patch_39">
    <path clip-path="url(#p76bb794355)" d="M 362.365057 258.62226 
L 368.457604 258.62226 
L 368.457604 258.62226 
L 362.365057 258.62226 
z
" style="fill:#2ca02c;opacity:0.9;"/>
   </g>
   <g id="patch_40">
    <path clip-path="url(#p76bb794355)" d="M 392.82779 258.62226 
L 398.920336 258.62226 
L 398.920336 35.437917 
L 392.82779 35.437917 
z
" style="fill:#2ca02c;opacity:0.9;"/>
   </g>
   <g id="patch_41">
    <path clip-path="url(#p76bb794355)" d="M 423.290522 258.62226 
L 429.383069 258.62226 
L 429.383069 258.62226 
L 423.290522 258.62226 
z
" style="fill:#2ca02c;opacity:0.9;"/>
   </g>
   <g id="patch_42">
    <path clip-path="url(#p76bb794355)" d="M 63.830278 258.62226 
L 69.922825 258.62226 
L 69.922825 258.62226 
L 63.830278 258.62226 
z
" style="fill:#d62728;opacity:0.9;"/>
   </g>
   <g id="patch_43">
    <path clip-path="url(#p76bb794355)" d="M 94.293011 258.62226 
L 100.385557 258.62226 
L 100.385557 230.724217 
L 94.293011 230.724217 
z
" style="fill:#d62728;opacity:0.9;"/>
   </g>
   <g id="patch_44">
    <path clip-path="url(#p76bb794355)" d="M 124.755743 258.62226 
L 130.84829 258.62226 
L 130.84829 258.62226 
L 124.755743 258.62226 
z
" style="fill:#d62728;opacity:0.9;"/>
   </g>
   <g id="patch_45">
    <path clip-path="url(#p76bb794355)" d="M 155.218476 258.62226 
L 161.311023 258.62226 
L 161.311023 258.62226 
L 155.218476 258.62226 
z
" style="fill:#d62728;opacity:0.9;"/>
   </g>
   <g id="patch_46">
    <path clip-path="url(#p76bb794355)" d="M 185.681209 258.62226 
L 191.773755 258.62226 
L 191.773755 258.62226 
L 185.681209 258.62226 
z
" style="fill:#d62728;opacity:0.9;"/>
   </g>
   <g id="patch_47">
    <path clip-path="url(#p76bb794355)" d="M 216.143941 258.62226 
L 222.236488 258.62226 
L 222.236488 258.62226 
L 216.143941 258.62226 
z
" style="fill:#d62728;opacity:0.9;"/>
   </g>
   <g id="patch_48">
    <path clip-path="url(#p76bb794355)" d="M 246.606674 258.62226 
L 252.69922 258.62226 
L 252.69922 258.62226 
L 246.606674 258.62226 
z
" style="fill:#d62728;opacity:0.9;"/>
   </g>
   <g id="patch_49">
    <path clip-path="url(#p76bb794355)" d="M 277.069406 258.62226 
L 283.161953 258.62226 
L 283.161953 258.62226 
L 277.069406 258.62226 
z
" style="fill:#d62728;opacity:0.9;"/>
   </g>
   <g id="patch_50">
    <path clip-path="url(#p76bb794355)" d="M 307.532139 258.62226 
L 313.624685 258.62226 
L 313.624685 258.62226 
L 307.532139 258.62226 
z
" style="fill:#d62728;opacity:0.9;"/>
   </g>
   <g id="patch_51">
    <path clip-path="url(#p76bb794355)" d="M 337.994871 258.62226 
L 344.087418 258.62226 
L 344.087418 258.62226 
L 337.994871 258.62226 
z
" style="fill:#d62728;opacity:0.9;"/>
   </g>
   <g id="patch_52">
    <path clip-path="url(#p76bb794355)" d="M 368.457604 258.62226 
L 374.55015 258.62226 
L 374.55015 258.62226 
L 368.457604 258.62226 
z
" style="fill:#d62728;opacity:0.9;"/>
   </g>
   <g id="patch_53">
    <path clip-path="url(#p76bb794355)" d="M 398.920336 258.62226 
L 405.012883 258.62226 
L 405.012883 258.62226 
L 398.920336 258.62226 
z
" style="fill:#d62728;opacity:0.9;"/>
   </g>
   <g id="patch_54">
    <path clip-path="url(#p76bb794355)" d="M 429.383069 258.62226 
L 435.475615 258.62226 
L 435.475615 35.437917 
L 429.383069 35.437917 
z
" style="fill:#d62728;opacity:0.9;"/>
   </g>
   <g id="matplotlib.axis_1">
    <g id="xtick_1">
     <g id="line2d_1">
      <path clip-path="url(#p76bb794355)" d="M 93.257816 258.62226 
L 93.257816 24.2787 
" style="fill:none;stroke:#b0b0b0;stroke-linecap:square;stroke-width:0.8;"/>
     </g>
     <g id="line2d_2">
      <defs>
       <path d="M 0 0 
L 0 3.5 
" id="ma0067b75f8" style="stroke:#000000;stroke-width:0.8;"/>
      </defs>
      <g>
       <use style="stroke:#000000;stroke-width:0.8;" x="93.257816" xlink:href="#ma0067b75f8" y="258.62226"/>
      </g>
     </g>
     <g id="text_1">
      <!-- 340.00 -->
      <g transform="translate(81.127816 271.70101)scale(0.08 -0.08)">
       <defs>
        <path d="M 24.953125 65.765625 
Q 22.3125 65.765625 19.671875 65.125 
Q 17.046875 64.5 14.5 63.484375 
Q 12.15625 62.5 10.421875 61.421875 
Q 8.6875 60.359375 7.328125 59.421875 
L 6.734375 59.421875 
L 6.734375 69.734375 
Q 9.90625 71.4375 15.34375 72.828125 
Q 20.796875 74.21875 25.734375 74.21875 
Q 30.671875 74.21875 34.34375 73.21875 
Q 38.03125 72.21875 41.015625 70.125 
Q 44.234375 67.78125 45.875 64.453125 
Q 47.515625 61.140625 47.515625 56.6875 
Q 47.515625 50.6875 43.546875 46.140625 
Q 39.59375 41.609375 34.078125 40.375 
L 34.078125 39.703125 
Q 36.375 39.265625 38.984375 38.1875 
Q 41.609375 37.109375 43.84375 35.015625 
Q 46.09375 32.90625 47.5 29.609375 
Q 48.921875 26.3125 48.921875 21.578125 
Q 48.921875 16.65625 47.234375 12.53125 
Q 45.5625 8.40625 42.484375 5.21875 
Q 39.3125 1.90625 34.8125 0.1875 
Q 30.328125 -1.515625 24.609375 -1.515625 
Q 19.140625 -1.515625 13.765625 -0.1875 
Q 8.40625 1.125 4.734375 2.984375 
L 4.734375 13.28125 
L 5.421875 13.28125 
Q 8.5 11.03125 13.671875 8.984375 
Q 18.84375 6.9375 24.03125 6.9375 
Q 27 6.9375 30 7.890625 
Q 33.015625 8.84375 35.015625 10.984375 
Q 36.96875 13.140625 37.984375 15.71875 
Q 39.015625 18.3125 39.015625 22.265625 
Q 39.015625 26.21875 37.859375 28.75 
Q 36.71875 31.296875 34.671875 32.765625 
Q 32.625 34.234375 29.8125 34.796875 
Q 27 35.359375 23.734375 35.359375 
L 19.578125 35.359375 
L 19.578125 43.453125 
L 22.796875 43.453125 
Q 29.390625 43.453125 33.515625 46.578125 
Q 37.640625 49.703125 37.640625 55.671875 
Q 37.640625 58.40625 36.5625 60.375 
Q 35.5 62.359375 33.84375 63.53125 
Q 31.984375 64.796875 29.734375 65.28125 
Q 27.484375 65.765625 24.953125 65.765625 
z
" id="Tahoma-51"/>
        <path d="M 52.09375 25 
L 43.453125 25 
L 43.453125 0 
L 34.078125 0 
L 34.078125 25 
L 1.953125 25 
L 1.953125 35.25 
L 34.46875 72.703125 
L 43.453125 72.703125 
L 43.453125 32.8125 
L 52.09375 32.8125 
z
M 34.078125 32.8125 
L 34.078125 61.234375 
L 9.578125 32.8125 
z
" id="Tahoma-52"/>
        <path d="M 50.53125 36.375 
Q 50.53125 16.796875 44.84375 7.640625 
Q 39.15625 -1.515625 27.296875 -1.515625 
Q 15.28125 -1.515625 9.65625 7.8125 
Q 4.046875 17.140625 4.046875 36.28125 
Q 4.046875 55.953125 9.734375 65.0625 
Q 15.4375 74.171875 27.296875 74.171875 
Q 39.3125 74.171875 44.921875 64.75 
Q 50.53125 55.328125 50.53125 36.375 
z
M 38.03125 14.203125 
Q 39.453125 17.828125 40.03125 23.34375 
Q 40.625 28.859375 40.625 36.375 
Q 40.625 43.84375 40.03125 49.359375 
Q 39.453125 54.890625 37.984375 58.546875 
Q 36.53125 62.25 33.953125 64.171875 
Q 31.390625 66.109375 27.296875 66.109375 
Q 23.25 66.109375 20.625 64.171875 
Q 18.015625 62.25 16.5 58.453125 
Q 15.046875 54.734375 14.5 49.0625 
Q 13.96875 43.40625 13.96875 36.28125 
Q 13.96875 28.65625 14.421875 23.53125 
Q 14.890625 18.40625 16.453125 14.359375 
Q 17.875 10.59375 20.484375 8.5625 
Q 23.09375 6.546875 27.296875 6.546875 
Q 31.34375 6.546875 33.953125 8.46875 
Q 36.578125 10.40625 38.03125 14.203125 
z
" id="Tahoma-48"/>
        <path d="M 20.953125 0 
L 9.28125 0 
L 9.28125 13.921875 
L 20.953125 13.921875 
z
" id="Tahoma-46"/>
       </defs>
       <use xlink:href="#Tahoma-51"/>
       <use x="54.589844" xlink:href="#Tahoma-52"/>
       <use x="109.179688" xlink:href="#Tahoma-48"/>
       <use x="163.769531" xlink:href="#Tahoma-46"/>
       <use x="194.042969" xlink:href="#Tahoma-48"/>
       <use x="248.632812" xlink:href="#Tahoma-48"/>
      </g>
     </g>
    </g>
    <g id="xtick_2">
     <g id="line2d_3">
      <path clip-path="url(#p76bb794355)" d="M 183.170421 258.62226 
L 183.170421 24.2787 
" style="fill:none;stroke:#b0b0b0;stroke-linecap:square;stroke-width:0.8;"/>
     </g>
     <g id="line2d_4">
      <g>
       <use style="stroke:#000000;stroke-width:0.8;" x="183.170421" xlink:href="#ma0067b75f8" y="258.62226"/>
      </g>
     </g>
     <g id="text_2">
      <!-- 341.00 -->
      <g transform="translate(171.040421 271.70101)scale(0.08 -0.08)">
       <defs>
        <path d="M 46.484375 0 
L 11.03125 0 
L 11.03125 7.421875 
L 24.21875 7.421875 
L 24.21875 56.15625 
L 11.03125 56.15625 
L 11.03125 62.796875 
Q 18.5 62.796875 22.046875 64.921875 
Q 25.59375 67.046875 26.03125 72.953125 
L 33.59375 72.953125 
L 33.59375 7.421875 
L 46.484375 7.421875 
z
" id="Tahoma-49"/>
       </defs>
       <use xlink:href="#Tahoma-51"/>
       <use x="54.589844" xlink:href="#Tahoma-52"/>
       <use x="109.179688" xlink:href="#Tahoma-49"/>
       <use x="163.769531" xlink:href="#Tahoma-46"/>
       <use x="194.042969" xlink:href="#Tahoma-48"/>
       <use x="248.632812" xlink:href="#Tahoma-48"/>
      </g>
     </g>
    </g>
    <g id="xtick_3">
     <g id="line2d_5">
      <path clip-path="url(#p76bb794355)" d="M 273.083025 258.62226 
L 273.083025 24.2787 
" style="fill:none;stroke:#b0b0b0;stroke-linecap:square;stroke-width:0.8;"/>
     </g>
     <g id="line2d_6">
      <g>
       <use style="stroke:#000000;stroke-width:0.8;" x="273.083025" xlink:href="#ma0067b75f8" y="258.62226"/>
      </g>
     </g>
     <g id="text_3">
      <!-- 342.00 -->
      <g transform="translate(260.953025 271.70101)scale(0.08 -0.08)">
       <defs>
        <path d="M 50.203125 0 
L 5.328125 0 
L 5.328125 10.203125 
Q 10.15625 14.796875 14.453125 18.984375 
Q 18.75 23.1875 22.859375 27.734375 
Q 31.15625 36.859375 34.171875 42.359375 
Q 37.203125 47.859375 37.203125 53.71875 
Q 37.203125 56.734375 36.25 59.03125 
Q 35.296875 61.328125 33.640625 62.84375 
Q 31.9375 64.3125 29.6875 65.03125 
Q 27.4375 65.765625 24.75 65.765625 
Q 22.171875 65.765625 19.5 65.109375 
Q 16.84375 64.453125 14.40625 63.484375 
Q 12.359375 62.640625 10.453125 61.46875 
Q 8.546875 60.296875 7.375 59.46875 
L 6.84375 59.46875 
L 6.84375 69.828125 
Q 9.859375 71.34375 15.25 72.78125 
Q 20.65625 74.21875 25.484375 74.21875 
Q 35.640625 74.21875 41.40625 68.8125 
Q 47.171875 63.421875 47.171875 54.203125 
Q 47.171875 49.953125 46.171875 46.328125 
Q 45.171875 42.71875 43.40625 39.65625 
Q 41.609375 36.46875 39.0625 33.34375 
Q 36.53125 30.21875 33.6875 27.203125 
Q 29.109375 22.21875 23.46875 16.84375 
Q 17.828125 11.46875 14.453125 8.34375 
L 50.203125 8.34375 
z
" id="Tahoma-50"/>
       </defs>
       <use xlink:href="#Tahoma-51"/>
       <use x="54.589844" xlink:href="#Tahoma-52"/>
       <use x="109.179688" xlink:href="#Tahoma-50"/>
       <use x="163.769531" xlink:href="#Tahoma-46"/>
       <use x="194.042969" xlink:href="#Tahoma-48"/>
       <use x="248.632812" xlink:href="#Tahoma-48"/>
      </g>
     </g>
    </g>
    <g id="xtick_4">
     <g id="line2d_7">
      <path clip-path="url(#p76bb794355)" d="M 362.99563 258.62226 
L 362.99563 24.2787 
" style="fill:none;stroke:#b0b0b0;stroke-linecap:square;stroke-width:0.8;"/>
     </g>
     <g id="line2d_8">
      <g>
       <use style="stroke:#000000;stroke-width:0.8;" x="362.99563" xlink:href="#ma0067b75f8" y="258.62226"/>
      </g>
     </g>
     <g id="text_4">
      <!-- 343.00 -->
      <g transform="translate(350.86563 271.70101)scale(0.08 -0.08)">
       <use xlink:href="#Tahoma-51"/>
       <use x="54.589844" xlink:href="#Tahoma-52"/>
       <use x="109.179688" xlink:href="#Tahoma-51"/>
       <use x="163.769531" xlink:href="#Tahoma-46"/>
       <use x="194.042969" xlink:href="#Tahoma-48"/>
       <use x="248.632812" xlink:href="#Tahoma-48"/>
      </g>
     </g>
    </g>
    <g id="xtick_5">
     <g id="line2d_9">
      <path clip-path="url(#p76bb794355)" d="M 452.908235 258.62226 
L 452.908235 24.2787 
" style="fill:none;stroke:#b0b0b0;stroke-linecap:square;stroke-width:0.8;"/>
     </g>
     <g id="line2d_10">
      <g>
       <use style="stroke:#000000;stroke-width:0.8;" x="452.908235" xlink:href="#ma0067b75f8" y="258.62226"/>
      </g>
     </g>
     <g id="text_5">
      <!-- 344.00 -->
      <g transform="translate(440.818235 271.70101)scale(0.08 -0.08)">
       <use xlink:href="#Tahoma-51"/>
       <use x="54.589844" xlink:href="#Tahoma-52"/>
       <use x="109.179688" xlink:href="#Tahoma-52"/>
       <use x="162.769531" xlink:href="#Tahoma-46"/>
       <use x="193.042969" xlink:href="#Tahoma-48"/>
       <use x="247.632812" xlink:href="#Tahoma-48"/>
      </g>
     </g>
    </g>
    <g id="text_6">
     <!-- raster value -->
     <g transform="translate(219.856002 283.38976)scale(0.08 -0.08)">
      <defs>
       <path d="M 35.546875 44.671875 
L 35.0625 44.671875 
Q 34.03125 44.96875 32.875 45.046875 
Q 31.734375 45.125 30.125 45.125 
Q 26.421875 45.125 22.75 43.5 
Q 19.09375 41.890625 15.828125 38.71875 
L 15.828125 0 
L 6.640625 0 
L 6.640625 54.546875 
L 15.828125 54.546875 
L 15.828125 46.4375 
Q 20.84375 50.875 24.578125 52.703125 
Q 28.328125 54.546875 31.84375 54.546875 
Q 33.25 54.546875 33.953125 54.46875 
Q 34.671875 54.390625 35.546875 54.25 
z
" id="Tahoma-114"/>
       <path d="M 37.109375 13.421875 
L 37.109375 28.5625 
Q 33.84375 28.265625 28.828125 27.75 
Q 23.828125 27.25 20.75 26.3125 
Q 17.09375 25.203125 14.703125 22.875 
Q 12.3125 20.5625 12.3125 16.40625 
Q 12.3125 11.71875 14.9375 9.328125 
Q 17.578125 6.9375 22.65625 6.9375 
Q 27 6.9375 30.515625 8.8125 
Q 34.03125 10.6875 37.109375 13.421875 
z
M 37.109375 5.8125 
Q 35.984375 4.984375 34.109375 3.484375 
Q 32.234375 2 30.46875 1.125 
Q 28.03125 -0.140625 25.75 -0.828125 
Q 23.484375 -1.515625 19.390625 -1.515625 
Q 16.015625 -1.515625 12.984375 -0.234375 
Q 9.96875 1.03125 7.671875 3.328125 
Q 5.46875 5.5625 4.140625 8.859375 
Q 2.828125 12.15625 2.828125 15.828125 
Q 2.828125 21.484375 5.21875 25.453125 
Q 7.625 29.4375 12.796875 31.78125 
Q 17.390625 33.890625 23.640625 34.6875 
Q 29.890625 35.5 37.109375 35.890625 
L 37.109375 37.640625 
Q 37.109375 40.875 36.125 42.84375 
Q 35.15625 44.828125 33.40625 45.90625 
Q 31.640625 47.015625 29.09375 47.375 
Q 26.5625 47.75 23.875 47.75 
Q 20.703125 47.75 16.40625 46.796875 
Q 12.109375 45.84375 7.8125 44.046875 
L 7.28125 44.046875 
L 7.28125 53.375 
Q 9.8125 54.109375 14.546875 54.984375 
Q 19.28125 55.859375 23.921875 55.859375 
Q 29.546875 55.859375 33.390625 54.984375 
Q 37.25 54.109375 40.328125 51.8125 
Q 43.3125 49.5625 44.765625 46 
Q 46.234375 42.4375 46.234375 37.3125 
L 46.234375 0 
L 37.109375 0 
z
" id="Tahoma-97"/>
       <path d="M 21.390625 -1.3125 
Q 15.921875 -1.3125 11.15625 0.140625 
Q 6.390625 1.609375 3.265625 3.265625 
L 3.265625 13.578125 
L 3.765625 13.578125 
Q 4.9375 12.640625 6.515625 11.515625 
Q 8.109375 10.40625 10.75 9.1875 
Q 13.09375 8.109375 15.890625 7.28125 
Q 18.703125 6.453125 21.734375 6.453125 
Q 23.921875 6.453125 26.40625 6.953125 
Q 28.90625 7.46875 30.125 8.25 
Q 31.84375 9.375 32.59375 10.640625 
Q 33.34375 11.921875 33.34375 14.453125 
Q 33.34375 17.71875 31.5625 19.375 
Q 29.78125 21.046875 25.25 22.171875 
Q 23.484375 22.609375 20.65625 23.1875 
Q 17.828125 23.78125 15.4375 24.46875 
Q 9.1875 26.265625 6.34375 30.046875 
Q 3.515625 33.84375 3.515625 39.203125 
Q 3.515625 46.578125 9.078125 51.21875 
Q 14.65625 55.859375 23.875 55.859375 
Q 28.421875 55.859375 33 54.734375 
Q 37.59375 53.609375 40.71875 51.90625 
L 40.71875 42.09375 
L 40.234375 42.09375 
Q 36.71875 44.875 32.390625 46.484375 
Q 28.078125 48.09375 23.6875 48.09375 
Q 19.140625 48.09375 16.015625 46.1875 
Q 12.890625 44.28125 12.890625 40.4375 
Q 12.890625 37.015625 14.75 35.328125 
Q 16.609375 33.640625 20.703125 32.5625 
Q 22.75 32.03125 25.265625 31.515625 
Q 27.78125 31 30.5625 30.328125 
Q 36.625 28.8125 39.671875 25.296875 
Q 42.71875 21.78125 42.71875 15.71875 
Q 42.71875 12.203125 41.328125 9.046875 
Q 39.9375 5.90625 37.25 3.65625 
Q 34.328125 1.21875 30.640625 -0.046875 
Q 26.953125 -1.3125 21.390625 -1.3125 
z
" id="Tahoma-115"/>
       <path d="M 23.140625 -1.078125 
Q 15.625 -1.078125 11.421875 3.1875 
Q 7.234375 7.46875 7.234375 16.703125 
L 7.234375 46.921875 
L 1.03125 46.921875 
L 1.03125 54.546875 
L 7.234375 54.546875 
L 7.234375 70.21875 
L 16.40625 70.21875 
L 16.40625 54.546875 
L 33.296875 54.546875 
L 33.296875 46.921875 
L 16.40625 46.921875 
L 16.40625 21 
Q 16.40625 16.84375 16.546875 14.59375 
Q 16.703125 12.359375 17.671875 10.40625 
Q 18.5 8.6875 20.359375 7.828125 
Q 22.21875 6.984375 25.390625 6.984375 
Q 27.640625 6.984375 29.734375 7.640625 
Q 31.84375 8.296875 32.765625 8.734375 
L 33.296875 8.734375 
L 33.296875 0.484375 
Q 30.71875 -0.25 28.046875 -0.65625 
Q 25.390625 -1.078125 23.140625 -1.078125 
z
" id="Tahoma-116"/>
       <path d="M 30.328125 -1.265625 
Q 17.28125 -1.265625 10.078125 6.078125 
Q 2.875 13.421875 2.875 26.953125 
Q 2.875 40.28125 9.859375 48.171875 
Q 16.84375 56.0625 28.125 56.0625 
Q 33.203125 56.0625 37.109375 54.59375 
Q 41.015625 53.125 43.953125 50 
Q 46.875 46.875 48.4375 42.359375 
Q 50 37.84375 50 31.296875 
L 50 26.3125 
L 12.203125 26.3125 
Q 12.203125 16.796875 16.984375 11.765625 
Q 21.78125 6.734375 30.21875 6.734375 
Q 33.25 6.734375 36.15625 7.421875 
Q 39.0625 8.109375 41.40625 9.1875 
Q 43.890625 10.296875 45.59375 11.34375 
Q 47.3125 12.40625 48.4375 13.328125 
L 48.96875 13.328125 
L 48.96875 3.328125 
Q 47.359375 2.6875 44.96875 1.734375 
Q 42.578125 0.78125 40.671875 0.25 
Q 37.984375 -0.484375 35.8125 -0.875 
Q 33.640625 -1.265625 30.328125 -1.265625 
z
M 41.0625 33.34375 
Q 40.96875 37.0625 40.1875 39.75 
Q 39.40625 42.4375 37.9375 44.28125 
Q 36.328125 46.34375 33.8125 47.40625 
Q 31.296875 48.484375 27.59375 48.484375 
Q 23.921875 48.484375 21.359375 47.390625 
Q 18.796875 46.296875 16.703125 44.1875 
Q 14.65625 42.046875 13.578125 39.421875 
Q 12.5 36.8125 12.203125 33.34375 
z
" id="Tahoma-101"/>
       <path id="Tahoma-32"/>
       <path d="M 49.515625 54.546875 
L 28.953125 0 
L 20.703125 0 
L 0.296875 54.546875 
L 10.203125 54.546875 
L 25.140625 12.453125 
L 39.9375 54.546875 
z
" id="Tahoma-118"/>
       <path d="M 16.015625 0 
L 6.84375 0 
L 6.84375 75.984375 
L 16.015625 75.984375 
z
" id="Tahoma-108"/>
       <path d="M 49.125 0 
L 39.9375 0 
L 39.9375 6.0625 
Q 35.6875 2.34375 31.875 0.40625 
Q 28.078125 -1.515625 23.390625 -1.515625 
Q 19.828125 -1.515625 16.671875 -0.34375 
Q 13.53125 0.828125 11.1875 3.375 
Q 8.84375 5.90625 7.546875 9.765625 
Q 6.25 13.625 6.25 19.140625 
L 6.25 54.546875 
L 15.4375 54.546875 
L 15.4375 23.484375 
Q 15.4375 19.140625 15.75 16.28125 
Q 16.0625 13.421875 17.1875 11.28125 
Q 18.3125 9.1875 20.234375 8.203125 
Q 22.171875 7.234375 25.78125 7.234375 
Q 29.15625 7.234375 32.953125 9.125 
Q 36.765625 11.03125 39.9375 13.8125 
L 39.9375 54.546875 
L 49.125 54.546875 
z
" id="Tahoma-117"/>
      </defs>
      <use xlink:href="#Tahoma-114"/>
      <use x="34.285156" xlink:href="#Tahoma-97"/>
      <use x="86.775391" xlink:href="#Tahoma-115"/>
      <use x="131.404297" xlink:href="#Tahoma-116"/>
      <use x="164.851562" xlink:href="#Tahoma-101"/>
      <use x="217.488281" xlink:href="#Tahoma-114"/>
      <use x="253.523438" xlink:href="#Tahoma-32"/>
      <use x="284.773438" xlink:href="#Tahoma-118"/>
      <use x="332.703125" xlink:href="#Tahoma-97"/>
      <use x="385.193359" xlink:href="#Tahoma-108"/>
      <use x="408.044922" xlink:href="#Tahoma-117"/>
      <use x="463.806641" xlink:href="#Tahoma-101"/>
     </g>
    </g>
   </g>
   <g id="matplotlib.axis_2">
    <g id="ytick_1">
     <g id="line2d_11">
      <path clip-path="url(#p76bb794355)" d="M 26.05649 258.62226 
L 454.971764 258.62226 
" style="fill:none;stroke:#b0b0b0;stroke-linecap:square;stroke-width:0.8;"/>
     </g>
     <g id="line2d_12">
      <defs>
       <path d="M 0 0 
L -3.5 0 
" id="m7789215650" style="stroke:#000000;stroke-width:0.8;"/>
      </defs>
      <g>
       <use style="stroke:#000000;stroke-width:0.8;" x="26.05649" xlink:href="#m7789215650" y="258.62226"/>
      </g>
     </g>
     <g id="text_7">
      <!-- 0 -->
      <g transform="translate(14.68899 261.661635)scale(0.08 -0.08)">
       <use xlink:href="#Tahoma-48"/>
      </g>
     </g>
    </g>
    <g id="ytick_2">
     <g id="line2d_13">
      <path clip-path="url(#p76bb794355)" d="M 26.05649 230.724217 
L 454.971764 230.724217 
" style="fill:none;stroke:#b0b0b0;stroke-linecap:square;stroke-width:0.8;"/>
     </g>
     <g id="line2d_14">
      <g>
       <use style="stroke:#000000;stroke-width:0.8;" x="26.05649" xlink:href="#m7789215650" y="230.724217"/>
      </g>
     </g>
     <g id="text_8">
      <!-- 1 -->
      <g transform="translate(14.68899 233.763592)scale(0.08 -0.08)">
       <use xlink:href="#Tahoma-49"/>
      </g>
     </g>
    </g>
    <g id="ytick_3">
     <g id="line2d_15">
      <path clip-path="url(#p76bb794355)" d="M 26.05649 202.826174 
L 454.971764 202.826174 
" style="fill:none;stroke:#b0b0b0;stroke-linecap:square;stroke-width:0.8;"/>
     </g>
     <g id="line2d_16">
      <g>
       <use style="stroke:#000000;stroke-width:0.8;" x="26.05649" xlink:href="#m7789215650" y="202.826174"/>
      </g>
     </g>
     <g id="text_9">
      <!-- 2 -->
      <g transform="translate(14.68899 205.865549)scale(0.08 -0.08)">
       <use xlink:href="#Tahoma-50"/>
      </g>
     </g>
    </g>
    <g id="ytick_4">
     <g id="line2d_17">
      <path clip-path="url(#p76bb794355)" d="M 26.05649 174.928131 
L 454.971764 174.928131 
" style="fill:none;stroke:#b0b0b0;stroke-linecap:square;stroke-width:0.8;"/>
     </g>
     <g id="line2d_18">
      <g>
       <use style="stroke:#000000;stroke-width:0.8;" x="26.05649" xlink:href="#m7789215650" y="174.928131"/>
      </g>
     </g>
     <g id="text_10">
      <!-- 3 -->
      <g transform="translate(14.68899 177.967506)scale(0.08 -0.08)">
       <use xlink:href="#Tahoma-51"/>
      </g>
     </g>
    </g>
    <g id="ytick_5">
     <g id="line2d_19">
      <path clip-path="url(#p76bb794355)" d="M 26.05649 147.030089 
L 454.971764 147.030089 
" style="fill:none;stroke:#b0b0b0;stroke-linecap:square;stroke-width:0.8;"/>
     </g>
     <g id="line2d_20">
      <g>
       <use style="stroke:#000000;stroke-width:0.8;" x="26.05649" xlink:href="#m7789215650" y="147.030089"/>
      </g>
     </g>
     <g id="text_11">
      <!-- 4 -->
      <g transform="translate(14.68899 150.069464)scale(0.08 -0.08)">
       <use xlink:href="#Tahoma-52"/>
      </g>
     </g>
    </g>
    <g id="ytick_6">
     <g id="line2d_21">
      <path clip-path="url(#p76bb794355)" d="M 26.05649 119.132046 
L 454.971764 119.132046 
" style="fill:none;stroke:#b0b0b0;stroke-linecap:square;stroke-width:0.8;"/>
     </g>
     <g id="line2d_22">
      <g>
       <use style="stroke:#000000;stroke-width:0.8;" x="26.05649" xlink:href="#m7789215650" y="119.132046"/>
      </g>
     </g>
     <g id="text_12">
      <!-- 5 -->
      <g transform="translate(14.68899 122.171421)scale(0.08 -0.08)">
       <defs>
        <path d="M 49.359375 23.140625 
Q 49.359375 17.875 47.671875 13.375 
Q 46 8.890625 42.96875 5.609375 
Q 39.890625 2.296875 35.328125 0.390625 
Q 30.765625 -1.515625 25.09375 -1.515625 
Q 19.875 -1.515625 14.8125 -0.359375 
Q 9.765625 0.78125 6.0625 2.640625 
L 6.0625 12.9375 
L 6.734375 12.9375 
Q 7.859375 12.109375 9.953125 11.0625 
Q 12.0625 10.015625 14.59375 9.078125 
Q 17.484375 8.0625 19.875 7.5 
Q 22.265625 6.9375 25.25 6.9375 
Q 28.171875 6.9375 30.953125 7.984375 
Q 33.734375 9.03125 35.75 11.375 
Q 37.546875 13.53125 38.5 16.40625 
Q 39.453125 19.28125 39.453125 23.1875 
Q 39.453125 27.046875 38.40625 29.53125 
Q 37.359375 32.03125 35.359375 33.640625 
Q 33.25 35.5 30.203125 36.25 
Q 27.15625 37.015625 23.390625 37.015625 
Q 19.4375 37.015625 15.421875 36.40625 
Q 11.421875 35.796875 9.03125 35.25 
L 9.03125 72.703125 
L 48.921875 72.703125 
L 48.921875 64.15625 
L 18.453125 64.15625 
L 18.453125 44.828125 
Q 20.21875 45.015625 21.921875 45.109375 
Q 23.640625 45.21875 25.046875 45.21875 
Q 30.609375 45.21875 34.46875 44.28125 
Q 38.328125 43.359375 41.890625 40.671875 
Q 45.515625 37.9375 47.4375 33.828125 
Q 49.359375 29.734375 49.359375 23.140625 
z
" id="Tahoma-53"/>
       </defs>
       <use xlink:href="#Tahoma-53"/>
      </g>
     </g>
    </g>
    <g id="ytick_7">
     <g id="line2d_23">
      <path clip-path="url(#p76bb794355)" d="M 26.05649 91.234003 
L 454.971764 91.234003 
" style="fill:none;stroke:#b0b0b0;stroke-linecap:square;stroke-width:0.8;"/>
     </g>
     <g id="line2d_24">
      <g>
       <use style="stroke:#000000;stroke-width:0.8;" x="26.05649" xlink:href="#m7789215650" y="91.234003"/>
      </g>
     </g>
     <g id="text_13">
      <!-- 6 -->
      <g transform="translate(14.68899 94.273378)scale(0.08 -0.08)">
       <defs>
        <path d="M 51.3125 23.578125 
Q 51.3125 17.96875 49.453125 13.234375 
Q 47.609375 8.5 44.484375 5.328125 
Q 41.21875 1.953125 37.15625 0.21875 
Q 33.109375 -1.515625 28.21875 -1.515625 
Q 23.296875 -1.515625 19.265625 0.140625 
Q 15.234375 1.8125 12.15625 5.078125 
Q 8.40625 9.03125 6.28125 15.640625 
Q 4.15625 22.265625 4.15625 31.9375 
Q 4.15625 41.40625 6.109375 49.046875 
Q 8.0625 56.6875 12.109375 62.359375 
Q 16.0625 67.875 22.3125 70.96875 
Q 28.5625 74.078125 36.765625 74.078125 
Q 39.203125 74.078125 41.296875 73.828125 
Q 43.40625 73.578125 45.015625 73.046875 
L 45.015625 63.71875 
L 44.578125 63.71875 
Q 43.265625 64.453125 40.765625 65.0625 
Q 38.28125 65.671875 35.453125 65.671875 
Q 26.375 65.671875 20.78125 59.546875 
Q 15.1875 53.421875 14.15625 41.359375 
Q 17.625 43.796875 21.28125 45.109375 
Q 24.953125 46.4375 29.296875 46.4375 
Q 33.546875 46.4375 36.734375 45.578125 
Q 39.9375 44.734375 43.40625 42.140625 
Q 47.40625 39.109375 49.359375 34.46875 
Q 51.3125 29.828125 51.3125 23.578125 
z
M 41.40625 23.1875 
Q 41.40625 27.6875 40.234375 30.703125 
Q 39.0625 33.734375 36.421875 35.890625 
Q 34.515625 37.453125 32.09375 37.9375 
Q 29.6875 38.421875 27.15625 38.421875 
Q 23.734375 38.421875 20.5 37.390625 
Q 17.28125 36.375 14.15625 34.421875 
Q 14.0625 33.34375 14.015625 32.34375 
Q 13.96875 31.34375 13.96875 29.828125 
Q 13.96875 22.265625 15.453125 17.625 
Q 16.9375 12.984375 19.140625 10.59375 
Q 21.234375 8.296875 23.453125 7.375 
Q 25.6875 6.453125 28.265625 6.453125 
Q 34.125 6.453125 37.765625 10.640625 
Q 41.40625 14.84375 41.40625 23.1875 
z
" id="Tahoma-54"/>
       </defs>
       <use xlink:href="#Tahoma-54"/>
      </g>
     </g>
    </g>
    <g id="ytick_8">
     <g id="line2d_25">
      <path clip-path="url(#p76bb794355)" d="M 26.05649 63.33596 
L 454.971764 63.33596 
" style="fill:none;stroke:#b0b0b0;stroke-linecap:square;stroke-width:0.8;"/>
     </g>
     <g id="line2d_26">
      <g>
       <use style="stroke:#000000;stroke-width:0.8;" x="26.05649" xlink:href="#m7789215650" y="63.33596"/>
      </g>
     </g>
     <g id="text_14">
      <!-- 7 -->
      <g transform="translate(14.68899 66.375335)scale(0.08 -0.08)">
       <defs>
        <path d="M 50.984375 61.8125 
L 19.53125 0 
L 9.125 0 
L 42.4375 64.15625 
L 4.828125 64.15625 
L 4.828125 72.703125 
L 50.984375 72.703125 
z
" id="Tahoma-55"/>
       </defs>
       <use xlink:href="#Tahoma-55"/>
      </g>
     </g>
    </g>
    <g id="ytick_9">
     <g id="line2d_27">
      <path clip-path="url(#p76bb794355)" d="M 26.05649 35.437917 
L 454.971764 35.437917 
" style="fill:none;stroke:#b0b0b0;stroke-linecap:square;stroke-width:0.8;"/>
     </g>
     <g id="line2d_28">
      <g>
       <use style="stroke:#000000;stroke-width:0.8;" x="26.05649" xlink:href="#m7789215650" y="35.437917"/>
      </g>
     </g>
     <g id="text_15">
      <!-- 8 -->
      <g transform="translate(14.68899 38.477292)scale(0.08 -0.08)">
       <defs>
        <path d="M 39.59375 55.765625 
Q 39.59375 60.640625 36.328125 63.90625 
Q 33.0625 67.1875 27.25 67.1875 
Q 21.921875 67.1875 18.53125 64.25 
Q 15.140625 61.328125 15.140625 56.34375 
Q 15.140625 52.734375 16.875 50.234375 
Q 18.609375 47.75 22.078125 45.75 
Q 23.578125 44.921875 26.671875 43.453125 
Q 29.78125 42 32.328125 41.15625 
Q 36.578125 44.4375 38.078125 47.875 
Q 39.59375 51.3125 39.59375 55.765625 
z
M 40.96875 19.34375 
Q 40.96875 23.828125 39.203125 26.46875 
Q 37.453125 29.109375 32.421875 31.84375 
Q 30.765625 32.765625 28 33.828125 
Q 25.25 34.90625 21.78125 36.375 
Q 17.71875 33.6875 15.5625 29.75 
Q 13.421875 25.828125 13.421875 20.796875 
Q 13.421875 14.203125 17.40625 9.90625 
Q 21.390625 5.609375 27.390625 5.609375 
Q 33.546875 5.609375 37.25 9.296875 
Q 40.96875 12.984375 40.96875 19.34375 
z
M 27.296875 -1.65625 
Q 21.875 -1.65625 17.421875 -0.046875 
Q 12.984375 1.5625 9.859375 4.59375 
Q 6.78125 7.515625 5.1875 11.546875 
Q 3.609375 15.578125 3.609375 20.0625 
Q 3.609375 25.984375 6.75 30.9375 
Q 9.90625 35.890625 15.921875 38.8125 
L 15.921875 39.109375 
Q 10.546875 42.234375 7.953125 45.9375 
Q 5.375 49.65625 5.375 55.21875 
Q 5.375 63.421875 11.578125 68.890625 
Q 17.78125 74.359375 27.296875 74.359375 
Q 37.203125 74.359375 43.1875 69.15625 
Q 49.171875 63.96875 49.171875 55.859375 
Q 49.171875 50.984375 46.3125 46.1875 
Q 43.453125 41.40625 38.09375 38.71875 
L 38.09375 38.421875 
Q 44.4375 35.453125 47.703125 31.203125 
Q 50.984375 26.953125 50.984375 20.265625 
Q 50.984375 10.9375 44.21875 4.640625 
Q 37.453125 -1.65625 27.296875 -1.65625 
z
" id="Tahoma-56"/>
       </defs>
       <use xlink:href="#Tahoma-56"/>
      </g>
     </g>
    </g>
    <g id="text_16">
     <!-- asset count -->
     <g transform="translate(9.07899 161.63048)rotate(-90)scale(0.08 -0.08)">
      <defs>
       <path d="M 28.328125 -1.21875 
Q 22.703125 -1.21875 18.015625 0.515625 
Q 13.328125 2.25 9.96875 5.765625 
Q 6.59375 9.28125 4.734375 14.625 
Q 2.875 19.96875 2.875 27.203125 
Q 2.875 34.375 4.796875 39.59375 
Q 6.734375 44.828125 9.96875 48.390625 
Q 13.1875 51.953125 17.984375 53.875 
Q 22.796875 55.8125 28.328125 55.8125 
Q 32.8125 55.8125 36.984375 54.53125 
Q 41.15625 53.265625 44.4375 51.609375 
L 44.4375 41.3125 
L 43.890625 41.3125 
Q 42.921875 42.140625 41.375 43.203125 
Q 39.84375 44.28125 37.640625 45.40625 
Q 35.75 46.390625 33.15625 47.125 
Q 30.5625 47.859375 28.171875 47.859375 
Q 21.046875 47.859375 16.71875 42.453125 
Q 12.40625 37.0625 12.40625 27.203125 
Q 12.40625 17.53125 16.578125 12.125 
Q 20.75 6.734375 28.171875 6.734375 
Q 32.671875 6.734375 36.71875 8.59375 
Q 40.765625 10.453125 43.890625 13.375 
L 44.4375 13.375 
L 44.4375 3.078125 
Q 43.0625 2.4375 41.015625 1.53125 
Q 38.96875 0.640625 37.3125 0.203125 
Q 34.96875 -0.484375 33.109375 -0.84375 
Q 31.25 -1.21875 28.328125 -1.21875 
z
" id="Tahoma-99"/>
       <path d="M 51.515625 27.25 
Q 51.515625 13.484375 44.875 5.984375 
Q 38.234375 -1.515625 27.203125 -1.515625 
Q 15.828125 -1.515625 9.296875 6.21875 
Q 2.78125 13.96875 2.78125 27.25 
Q 2.78125 40.921875 9.5 48.484375 
Q 16.21875 56.0625 27.203125 56.0625 
Q 38.234375 56.0625 44.875 48.515625 
Q 51.515625 40.96875 51.515625 27.25 
z
M 42.046875 27.25 
Q 42.046875 37.84375 38.1875 42.984375 
Q 34.328125 48.140625 27.203125 48.140625 
Q 20.015625 48.140625 16.125 42.984375 
Q 12.25 37.84375 12.25 27.25 
Q 12.25 17 16.125 11.6875 
Q 20.015625 6.390625 27.203125 6.390625 
Q 34.28125 6.390625 38.15625 11.59375 
Q 42.046875 16.796875 42.046875 27.25 
z
" id="Tahoma-111"/>
       <path d="M 49.515625 0 
L 40.328125 0 
L 40.328125 31.0625 
Q 40.328125 34.8125 39.953125 38.0625 
Q 39.59375 41.3125 38.578125 43.265625 
Q 37.453125 45.3125 35.453125 46.3125 
Q 33.453125 47.3125 29.984375 47.3125 
Q 26.5625 47.3125 22.921875 45.484375 
Q 19.28125 43.65625 15.828125 40.71875 
L 15.828125 0 
L 6.640625 0 
L 6.640625 54.546875 
L 15.828125 54.546875 
L 15.828125 48.484375 
Q 19.921875 52.15625 23.921875 54.109375 
Q 27.9375 56.0625 32.375 56.0625 
Q 40.4375 56.0625 44.96875 50.75 
Q 49.515625 45.453125 49.515625 35.40625 
z
" id="Tahoma-110"/>
      </defs>
      <use xlink:href="#Tahoma-97"/>
      <use x="52.490234" xlink:href="#Tahoma-115"/>
      <use x="97.119141" xlink:href="#Tahoma-115"/>
      <use x="141.748047" xlink:href="#Tahoma-101"/>
      <use x="194.384766" xlink:href="#Tahoma-116"/>
      <use x="227.832031" xlink:href="#Tahoma-32"/>
      <use x="259.082031" xlink:href="#Tahoma-99"/>
      <use x="305.224609" xlink:href="#Tahoma-111"/>
      <use x="359.521484" xlink:href="#Tahoma-117"/>
      <use x="415.283203" xlink:href="#Tahoma-110"/>
      <use x="471.044922" xlink:href="#Tahoma-116"/>
     </g>
    </g>
   </g>
   <g id="patch_55">
    <path d="M 26.05649 258.62226 
L 26.05649 24.2787 
" style="fill:none;stroke:#000000;stroke-linecap:square;stroke-linejoin:miter;stroke-width:0.8;"/>
   </g>
   <g id="patch_56">
    <path d="M 454.971764 258.62226 
L 454.971764 24.2787 
" style="fill:none;stroke:#000000;stroke-linecap:square;stroke-linejoin:miter;stroke-width:0.8;"/>
   </g>
   <g id="patch_57">
    <path d="M 26.05649 258.62226 
L 454.971764 258.62226 
" style="fill:none;stroke:#000000;stroke-linecap:square;stroke-linejoin:miter;stroke-width:0.8;"/>
   </g>
   <g id="patch_58">
    <path d="M 26.05649 24.2787 
L 454.971764 24.2787 
" style="fill:none;stroke:#000000;stroke-linecap:square;stroke-linejoin:miter;stroke-width:0.8;"/>
   </g>
   <g id="text_17">
    <!-- finv_fcnt=9  -->
    <g transform="translate(154.731072 35.486912)scale(0.08 -0.08)">
     <defs>
      <path d="M 35.359375 67.1875 
L 34.859375 67.1875 
Q 33.640625 67.625 31.34375 68.03125 
Q 29.046875 68.453125 27.25 68.453125 
Q 21.4375 68.453125 18.96875 65.84375 
Q 16.5 63.234375 16.5 56.390625 
L 16.5 54.546875 
L 31.6875 54.546875 
L 31.6875 46.921875 
L 16.796875 46.921875 
L 16.796875 0 
L 7.625 0 
L 7.625 46.921875 
L 1.421875 46.921875 
L 1.421875 54.546875 
L 7.625 54.546875 
L 7.625 56.34375 
Q 7.625 66.21875 12.359375 71.34375 
Q 17.09375 76.46875 25.921875 76.46875 
Q 28.46875 76.46875 30.90625 76.1875 
Q 33.34375 75.921875 35.359375 75.59375 
z
" id="Tahoma-102"/>
      <path d="M 16.015625 0 
L 6.84375 0 
L 6.84375 54.546875 
L 16.015625 54.546875 
z
M 16.65625 63.671875 
L 6.203125 63.671875 
L 6.203125 73.1875 
L 16.65625 73.1875 
z
" id="Tahoma-105"/>
      <path d="M 55.375 -14.65625 
L -0.78125 -14.65625 
L -0.78125 -8.296875 
L 55.375 -8.296875 
z
" id="Tahoma-95"/>
      <path d="M 63.375 38.1875 
L 9.375 38.1875 
L 9.375 46 
L 63.375 46 
z
M 63.375 17.671875 
L 9.375 17.671875 
L 9.375 25.484375 
L 63.375 25.484375 
z
" id="Tahoma-61"/>
      <path d="M 40.625 42.828125 
Q 40.625 50.25 39.25 54.90625 
Q 37.890625 59.578125 35.5 62.109375 
Q 33.34375 64.453125 31.140625 65.328125 
Q 28.953125 66.21875 26.3125 66.21875 
Q 20.3125 66.21875 16.75 61.921875 
Q 13.1875 57.625 13.1875 49.46875 
Q 13.1875 44.875 14.359375 41.890625 
Q 15.53125 38.921875 18.171875 36.765625 
Q 20.015625 35.25 22.359375 34.734375 
Q 24.703125 34.234375 27.390625 34.234375 
Q 30.515625 34.234375 34.125 35.328125 
Q 37.75 36.421875 40.4375 38.234375 
Q 40.484375 38.96875 40.546875 40.15625 
Q 40.625 41.359375 40.625 42.828125 
z
M 3.265625 49.078125 
Q 3.265625 54.6875 5.09375 59.328125 
Q 6.9375 63.96875 10.109375 67.328125 
Q 13.140625 70.5625 17.5 72.359375 
Q 21.875 74.171875 26.375 74.171875 
Q 31.390625 74.171875 35.46875 72.484375 
Q 39.546875 70.796875 42.53125 67.625 
Q 46.296875 63.625 48.359375 57.125 
Q 50.4375 50.640625 50.4375 40.71875 
Q 50.4375 31.6875 48.40625 23.609375 
Q 46.390625 15.53125 42.4375 10.203125 
Q 38.234375 4.546875 32.34375 1.5625 
Q 26.46875 -1.421875 17.828125 -1.421875 
Q 15.875 -1.421875 13.671875 -1.203125 
Q 11.46875 -0.984375 9.578125 -0.390625 
L 9.578125 8.9375 
L 10.0625 8.9375 
Q 11.28125 8.25 13.859375 7.609375 
Q 16.453125 6.984375 19.140625 6.984375 
Q 28.71875 6.984375 34.1875 13.28125 
Q 39.65625 19.578125 40.375 31.296875 
Q 36.46875 28.65625 32.921875 27.4375 
Q 29.390625 26.21875 25.25 26.21875 
Q 21.1875 26.21875 17.859375 27.09375 
Q 14.546875 27.984375 11.1875 30.515625 
Q 7.28125 33.5 5.265625 38.0625 
Q 3.265625 42.625 3.265625 49.078125 
z
" id="Tahoma-57"/>
     </defs>
     <use xlink:href="#Tahoma-102"/>
     <use x="31.835938" xlink:href="#Tahoma-105"/>
     <use x="54.6875" xlink:href="#Tahoma-110"/>
     <use x="109.574219" xlink:href="#Tahoma-118"/>
     <use x="159.378906" xlink:href="#Tahoma-95"/>
     <use x="213.96875" xlink:href="#Tahoma-102"/>
     <use x="244.804688" xlink:href="#Tahoma-99"/>
     <use x="290.947266" xlink:href="#Tahoma-110"/>
     <use x="346.708984" xlink:href="#Tahoma-116"/>
     <use x="380.15625" xlink:href="#Tahoma-61"/>
     <use x="452.910156" xlink:href="#Tahoma-57"/>
     <use x="507.5" xlink:href="#Tahoma-32"/>
    </g>
    <!-- finv_name='finv_infra.water_r1_0422'  -->
    <g transform="translate(154.731072 44.391412)scale(0.08 -0.08)">
     <defs>
      <path d="M 68.5625 0 
L 68.5625 31.546875 
Q 68.5625 35.296875 68.265625 38.5 
Q 67.96875 41.703125 67.046875 43.5 
Q 66.0625 45.453125 64.25 46.375 
Q 62.453125 47.3125 59.375 47.3125 
Q 56.546875 47.3125 53.296875 45.578125 
Q 50.046875 43.84375 46.578125 40.578125 
Q 46.625 39.75 46.703125 38.59375 
Q 46.78125 37.453125 46.78125 35.890625 
L 46.78125 0 
L 37.59375 0 
L 37.59375 31.546875 
Q 37.59375 35.296875 37.296875 38.5 
Q 37.015625 41.703125 36.078125 43.5 
Q 35.109375 45.453125 33.296875 46.375 
Q 31.5 47.3125 28.421875 47.3125 
Q 25.4375 47.3125 22.15625 45.453125 
Q 18.890625 43.609375 15.828125 40.71875 
L 15.828125 0 
L 6.640625 0 
L 6.640625 54.546875 
L 15.828125 54.546875 
L 15.828125 48.484375 
Q 19.4375 52.09375 22.96875 54.078125 
Q 26.515625 56.0625 30.765625 56.0625 
Q 35.59375 56.0625 39.328125 53.859375 
Q 43.0625 51.65625 45.015625 46.625 
Q 49.171875 51.265625 53.125 53.65625 
Q 57.078125 56.0625 61.71875 56.0625 
Q 65.234375 56.0625 68.109375 54.953125 
Q 71 53.859375 73.140625 51.421875 
Q 75.34375 48.921875 76.53125 45.203125 
Q 77.734375 41.5 77.734375 35.890625 
L 77.734375 0 
z
" id="Tahoma-109"/>
      <path d="M 15.96875 75.984375 
L 13.875 47.703125 
L 7.234375 47.703125 
L 5.125 75.984375 
z
" id="Tahoma-39"/>
      <path d="M 72.75 54.546875 
L 58.9375 0 
L 50.4375 0 
L 37.109375 42.046875 
L 23.875 0 
L 15.4375 0 
L 1.46875 54.546875 
L 11.03125 54.546875 
L 20.65625 12.3125 
L 33.59375 54.546875 
L 41.15625 54.546875 
L 54.4375 12.3125 
L 63.53125 54.546875 
z
" id="Tahoma-119"/>
     </defs>
     <use xlink:href="#Tahoma-102"/>
     <use x="31.835938" xlink:href="#Tahoma-105"/>
     <use x="54.6875" xlink:href="#Tahoma-110"/>
     <use x="109.574219" xlink:href="#Tahoma-118"/>
     <use x="159.378906" xlink:href="#Tahoma-95"/>
     <use x="213.96875" xlink:href="#Tahoma-110"/>
     <use x="269.730469" xlink:href="#Tahoma-97"/>
     <use x="322.220703" xlink:href="#Tahoma-109"/>
     <use x="406.205078" xlink:href="#Tahoma-101"/>
     <use x="458.841797" xlink:href="#Tahoma-61"/>
     <use x="531.595703" xlink:href="#Tahoma-39"/>
     <use x="552.689453" xlink:href="#Tahoma-102"/>
     <use x="584.525391" xlink:href="#Tahoma-105"/>
     <use x="607.376953" xlink:href="#Tahoma-110"/>
     <use x="662.263672" xlink:href="#Tahoma-118"/>
     <use x="712.068359" xlink:href="#Tahoma-95"/>
     <use x="766.658203" xlink:href="#Tahoma-105"/>
     <use x="789.509766" xlink:href="#Tahoma-110"/>
     <use x="845.271484" xlink:href="#Tahoma-102"/>
     <use x="876.607422" xlink:href="#Tahoma-114"/>
     <use x="910.892578" xlink:href="#Tahoma-97"/>
     <use x="963.382812" xlink:href="#Tahoma-46"/>
     <use x="993.65625" xlink:href="#Tahoma-119"/>
     <use x="1067" xlink:href="#Tahoma-97"/>
     <use x="1119.490234" xlink:href="#Tahoma-116"/>
     <use x="1152.9375" xlink:href="#Tahoma-101"/>
     <use x="1205.574219" xlink:href="#Tahoma-114"/>
     <use x="1241.609375" xlink:href="#Tahoma-95"/>
     <use x="1296.199219" xlink:href="#Tahoma-114"/>
     <use x="1332.234375" xlink:href="#Tahoma-49"/>
     <use x="1386.824219" xlink:href="#Tahoma-95"/>
     <use x="1441.414062" xlink:href="#Tahoma-48"/>
     <use x="1496.003906" xlink:href="#Tahoma-52"/>
     <use x="1550.59375" xlink:href="#Tahoma-50"/>
     <use x="1605.183594" xlink:href="#Tahoma-50"/>
     <use x="1659.773438" xlink:href="#Tahoma-39"/>
     <use x="1680.867188" xlink:href="#Tahoma-32"/>
    </g>
    <!-- as_inun=False  -->
    <g transform="translate(154.731072 53.295912)scale(0.08 -0.08)">
     <defs>
      <path d="M 50.875 64.109375 
L 17.046875 64.109375 
L 17.046875 43.609375 
L 49.46875 43.609375 
L 49.46875 35.015625 
L 17.046875 35.015625 
L 17.046875 0 
L 7.375 0 
L 7.375 72.703125 
L 50.875 72.703125 
z
" id="Tahoma-70"/>
     </defs>
     <use xlink:href="#Tahoma-97"/>
     <use x="52.490234" xlink:href="#Tahoma-115"/>
     <use x="97.119141" xlink:href="#Tahoma-95"/>
     <use x="151.708984" xlink:href="#Tahoma-105"/>
     <use x="174.560547" xlink:href="#Tahoma-110"/>
     <use x="230.322266" xlink:href="#Tahoma-117"/>
     <use x="286.083984" xlink:href="#Tahoma-110"/>
     <use x="341.845703" xlink:href="#Tahoma-61"/>
     <use x="414.599609" xlink:href="#Tahoma-70"/>
     <use x="462.123047" xlink:href="#Tahoma-97"/>
     <use x="514.613281" xlink:href="#Tahoma-108"/>
     <use x="537.464844" xlink:href="#Tahoma-115"/>
     <use x="582.09375" xlink:href="#Tahoma-101"/>
     <use x="634.730469" xlink:href="#Tahoma-32"/>
    </g>
    <!-- gtype=Point  -->
    <g transform="translate(154.731072 62.200412)scale(0.08 -0.08)">
     <defs>
      <path d="M 39.453125 14.796875 
L 39.453125 44.734375 
Q 36.03125 46.390625 33.125 47.09375 
Q 30.21875 47.796875 27.34375 47.796875 
Q 20.359375 47.796875 16.359375 42.671875 
Q 12.359375 37.546875 12.359375 27.984375 
Q 12.359375 18.890625 15.40625 14.15625 
Q 18.453125 9.421875 25.296875 9.421875 
Q 28.859375 9.421875 32.640625 10.828125 
Q 36.421875 12.25 39.453125 14.796875 
z
M 8.59375 -8.734375 
Q 9.515625 -9.125 11.328125 -9.78125 
Q 13.140625 -10.453125 15.4375 -11.03125 
Q 17.96875 -11.671875 20.109375 -12.0625 
Q 22.265625 -12.453125 24.8125 -12.453125 
Q 29.046875 -12.453125 32 -11.328125 
Q 34.96875 -10.203125 36.625 -8.203125 
Q 38.1875 -6.203125 38.8125 -3.5625 
Q 39.453125 -0.921875 39.453125 2.4375 
L 39.453125 7.234375 
Q 35.75 4 32.171875 2.453125 
Q 28.609375 0.921875 23.25 0.921875 
Q 13.921875 0.921875 8.390625 7.859375 
Q 2.875 14.796875 2.875 27.78125 
Q 2.875 34.578125 4.78125 39.8125 
Q 6.6875 45.0625 9.90625 48.734375 
Q 12.984375 52.25 17.1875 54.15625 
Q 21.390625 56.0625 25.875 56.0625 
Q 30.125 56.0625 33.21875 55.046875 
Q 36.328125 54.046875 39.453125 52.203125 
L 39.984375 54.546875 
L 48.640625 54.546875 
L 48.640625 6.203125 
Q 48.640625 -7.671875 42.578125 -14.15625 
Q 36.53125 -20.65625 24.078125 -20.65625 
Q 20.0625 -20.65625 15.890625 -20.015625 
Q 11.71875 -19.390625 8.109375 -18.3125 
L 8.109375 -8.734375 
z
" id="Tahoma-103"/>
      <path d="M 49.515625 54.546875 
L 20.171875 -20.125 
L 10.359375 -20.125 
L 20.125 2.640625 
L 0.296875 54.546875 
L 10.203125 54.546875 
L 25.09375 14.15625 
L 39.9375 54.546875 
z
" id="Tahoma-121"/>
      <path d="M 52.390625 28.71875 
Q 52.390625 15.09375 45.875 7 
Q 39.359375 -1.078125 29.390625 -1.078125 
Q 25.34375 -1.078125 22.21875 -0.140625 
Q 19.09375 0.78125 15.828125 2.734375 
L 15.828125 -20.125 
L 6.640625 -20.125 
L 6.640625 54.546875 
L 15.828125 54.546875 
L 15.828125 48.828125 
Q 19.234375 51.90625 23.40625 53.984375 
Q 27.59375 56.0625 32.515625 56.0625 
Q 41.890625 56.0625 47.140625 48.640625 
Q 52.390625 41.21875 52.390625 28.71875 
z
M 42.921875 27.6875 
Q 42.921875 37.015625 39.9375 42.15625 
Q 36.96875 47.3125 30.28125 47.3125 
Q 26.375 47.3125 22.734375 45.578125 
Q 19.09375 43.84375 15.828125 41.109375 
L 15.828125 10.203125 
Q 19.4375 8.453125 22 7.8125 
Q 24.5625 7.171875 27.875 7.171875 
Q 35.015625 7.171875 38.96875 12.390625 
Q 42.921875 17.625 42.921875 27.6875 
z
" id="Tahoma-112"/>
      <path d="M 53.265625 50.78125 
Q 53.265625 46.046875 51.578125 41.8125 
Q 49.90625 37.59375 46.921875 34.625 
Q 43.171875 30.90625 38.09375 29 
Q 33.015625 27.09375 25.25 27.09375 
L 17.046875 27.09375 
L 17.046875 0 
L 7.375 0 
L 7.375 72.703125 
L 25.640625 72.703125 
Q 32.078125 72.703125 36.609375 71.625 
Q 41.15625 70.5625 44.625 68.171875 
Q 48.6875 65.375 50.96875 61.109375 
Q 53.265625 56.84375 53.265625 50.78125 
z
M 43.21875 50.53125 
Q 43.21875 54.296875 41.921875 57.078125 
Q 40.625 59.859375 37.984375 61.625 
Q 35.6875 63.140625 32.640625 63.765625 
Q 29.59375 64.40625 25.046875 64.40625 
L 17.046875 64.40625 
L 17.046875 35.359375 
L 23.640625 35.359375 
Q 29.5 35.359375 33.109375 36.296875 
Q 36.71875 37.25 39.109375 39.703125 
Q 41.265625 41.890625 42.234375 44.484375 
Q 43.21875 47.078125 43.21875 50.53125 
z
" id="Tahoma-80"/>
     </defs>
     <use xlink:href="#Tahoma-103"/>
     <use x="55.273438" xlink:href="#Tahoma-116"/>
     <use x="87.720703" xlink:href="#Tahoma-121"/>
     <use x="137.525391" xlink:href="#Tahoma-112"/>
     <use x="192.798828" xlink:href="#Tahoma-101"/>
     <use x="245.435547" xlink:href="#Tahoma-61"/>
     <use x="318.189453" xlink:href="#Tahoma-80"/>
     <use x="371.066406" xlink:href="#Tahoma-111"/>
     <use x="425.363281" xlink:href="#Tahoma-105"/>
     <use x="448.214844" xlink:href="#Tahoma-110"/>
     <use x="503.976562" xlink:href="#Tahoma-116"/>
     <use x="537.423828" xlink:href="#Tahoma-32"/>
    </g>
    <!-- date=2022-04-22 14:53 -->
    <g transform="translate(154.731072 71.147412)scale(0.08 -0.08)">
     <defs>
      <path d="M 48.640625 0 
L 39.453125 0 
L 39.453125 5.5625 
Q 37.3125 3.765625 35.75 2.59375 
Q 34.1875 1.421875 32.078125 0.4375 
Q 30.125 -0.484375 28.015625 -1 
Q 25.921875 -1.515625 23.140625 -1.515625 
Q 18.703125 -1.515625 14.921875 0.34375 
Q 11.140625 2.203125 8.5 5.765625 
Q 5.8125 9.375 4.34375 14.671875 
Q 2.875 19.96875 2.875 26.859375 
Q 2.875 34.03125 4.734375 39.28125 
Q 6.59375 44.53125 9.859375 48.4375 
Q 12.84375 52 17.0625 54.03125 
Q 21.296875 56.0625 25.921875 56.0625 
Q 30.03125 56.0625 33.046875 55.15625 
Q 36.078125 54.25 39.453125 52.34375 
L 39.453125 75.984375 
L 48.640625 75.984375 
z
M 39.453125 13.28125 
L 39.453125 44.734375 
Q 36.03125 46.390625 33.3125 47.015625 
Q 30.609375 47.65625 27.4375 47.65625 
Q 20.359375 47.65625 16.359375 42.359375 
Q 12.359375 37.0625 12.359375 27.046875 
Q 12.359375 17.4375 15.421875 12.328125 
Q 18.5 7.234375 25.296875 7.234375 
Q 28.90625 7.234375 32.5625 8.859375 
Q 36.234375 10.5 39.453125 13.28125 
z
" id="Tahoma-100"/>
      <path d="M 31.9375 27.390625 
L 4.390625 27.390625 
L 4.390625 36.234375 
L 31.9375 36.234375 
z
" id="Tahoma-45"/>
      <path d="M 23.53125 40.625 
L 11.859375 40.625 
L 11.859375 54.546875 
L 23.53125 54.546875 
z
M 23.53125 0 
L 11.859375 0 
L 11.859375 13.921875 
L 23.53125 13.921875 
z
" id="Tahoma-58"/>
     </defs>
     <use xlink:href="#Tahoma-100"/>
     <use x="55.273438" xlink:href="#Tahoma-97"/>
     <use x="107.763672" xlink:href="#Tahoma-116"/>
     <use x="141.210938" xlink:href="#Tahoma-101"/>
     <use x="193.847656" xlink:href="#Tahoma-61"/>
     <use x="266.601562" xlink:href="#Tahoma-50"/>
     <use x="321.191406" xlink:href="#Tahoma-48"/>
     <use x="375.78125" xlink:href="#Tahoma-50"/>
     <use x="430.371094" xlink:href="#Tahoma-50"/>
     <use x="484.960938" xlink:href="#Tahoma-45"/>
     <use x="521.289062" xlink:href="#Tahoma-48"/>
     <use x="575.878906" xlink:href="#Tahoma-52"/>
     <use x="630.46875" xlink:href="#Tahoma-45"/>
     <use x="666.796875" xlink:href="#Tahoma-50"/>
     <use x="721.386719" xlink:href="#Tahoma-50"/>
     <use x="775.976562" xlink:href="#Tahoma-32"/>
     <use x="807.226562" xlink:href="#Tahoma-49"/>
     <use x="861.816406" xlink:href="#Tahoma-52"/>
     <use x="916.40625" xlink:href="#Tahoma-58"/>
     <use x="951.757812" xlink:href="#Tahoma-53"/>
     <use x="1006.347656" xlink:href="#Tahoma-51"/>
    </g>
   </g>
   <g id="legend_1">
    <g id="patch_59">
     <path d="M 353.643014 77.4337 
L 449.371764 77.4337 
Q 450.971764 77.4337 450.971764 75.8337 
L 450.971764 29.8787 
Q 450.971764 28.2787 449.371764 28.2787 
L 353.643014 28.2787 
Q 352.043014 28.2787 352.043014 29.8787 
L 352.043014 75.8337 
Q 352.043014 77.4337 353.643014 77.4337 
z
" style="fill:#ffffff;opacity:0.8;stroke:#cccccc;stroke-linejoin:miter;"/>
    </g>
    <g id="patch_60">
     <path d="M 355.243014 37.55745 
L 371.243014 37.55745 
L 371.243014 31.95745 
L 355.243014 31.95745 
z
" style="fill:#1f77b4;opacity:0.9;"/>
    </g>
    <g id="text_18">
     <!-- wse_sA_0020_1218 -->
     <g transform="translate(377.643014 37.55745)scale(0.08 -0.08)">
      <defs>
       <path d="M -0.484375 0 
L 24.03125 72.703125 
L 35.9375 72.703125 
L 60.453125 0 
L 50.25 0 
L 43.65625 20.3125 
L 15.875 20.3125 
L 9.28125 0 
z
M 40.96875 28.5625 
L 29.734375 62.84375 
L 18.5625 28.5625 
z
" id="Tahoma-65"/>
      </defs>
      <use xlink:href="#Tahoma-119"/>
      <use x="74.21875" xlink:href="#Tahoma-115"/>
      <use x="118.847656" xlink:href="#Tahoma-101"/>
      <use x="171.484375" xlink:href="#Tahoma-95"/>
      <use x="226.074219" xlink:href="#Tahoma-115"/>
      <use x="270.703125" xlink:href="#Tahoma-65"/>
      <use x="330.664062" xlink:href="#Tahoma-95"/>
      <use x="385.253906" xlink:href="#Tahoma-48"/>
      <use x="439.84375" xlink:href="#Tahoma-48"/>
      <use x="494.433594" xlink:href="#Tahoma-50"/>
      <use x="549.023438" xlink:href="#Tahoma-48"/>
      <use x="603.613281" xlink:href="#Tahoma-95"/>
      <use x="658.203125" xlink:href="#Tahoma-49"/>
      <use x="712.792969" xlink:href="#Tahoma-50"/>
      <use x="767.382812" xlink:href="#Tahoma-49"/>
      <use x="821.972656" xlink:href="#Tahoma-56"/>
     </g>
    </g>
    <g id="patch_61">
     <path d="M 355.243014 49.2462 
L 371.243014 49.2462 
L 371.243014 43.6462 
L 355.243014 43.6462 
z
" style="fill:#ff7f0e;opacity:0.9;"/>
    </g>
    <g id="text_19">
     <!-- wse_sA_0100_1218 -->
     <g transform="translate(377.643014 49.2462)scale(0.08 -0.08)">
      <use xlink:href="#Tahoma-119"/>
      <use x="74.21875" xlink:href="#Tahoma-115"/>
      <use x="118.847656" xlink:href="#Tahoma-101"/>
      <use x="171.484375" xlink:href="#Tahoma-95"/>
      <use x="226.074219" xlink:href="#Tahoma-115"/>
      <use x="270.703125" xlink:href="#Tahoma-65"/>
      <use x="330.664062" xlink:href="#Tahoma-95"/>
      <use x="385.253906" xlink:href="#Tahoma-48"/>
      <use x="439.84375" xlink:href="#Tahoma-49"/>
      <use x="494.433594" xlink:href="#Tahoma-48"/>
      <use x="549.023438" xlink:href="#Tahoma-48"/>
      <use x="603.613281" xlink:href="#Tahoma-95"/>
      <use x="658.203125" xlink:href="#Tahoma-49"/>
      <use x="712.792969" xlink:href="#Tahoma-50"/>
      <use x="767.382812" xlink:href="#Tahoma-49"/>
      <use x="821.972656" xlink:href="#Tahoma-56"/>
     </g>
    </g>
    <g id="patch_62">
     <path d="M 355.243014 60.93495 
L 371.243014 60.93495 
L 371.243014 55.33495 
L 355.243014 55.33495 
z
" style="fill:#2ca02c;opacity:0.9;"/>
    </g>
    <g id="text_20">
     <!-- wse_sA_0200_1218 -->
     <g transform="translate(377.643014 60.93495)scale(0.08 -0.08)">
      <use xlink:href="#Tahoma-119"/>
      <use x="74.21875" xlink:href="#Tahoma-115"/>
      <use x="118.847656" xlink:href="#Tahoma-101"/>
      <use x="171.484375" xlink:href="#Tahoma-95"/>
      <use x="226.074219" xlink:href="#Tahoma-115"/>
      <use x="270.703125" xlink:href="#Tahoma-65"/>
      <use x="330.664062" xlink:href="#Tahoma-95"/>
      <use x="385.253906" xlink:href="#Tahoma-48"/>
      <use x="439.84375" xlink:href="#Tahoma-50"/>
      <use x="494.433594" xlink:href="#Tahoma-48"/>
      <use x="549.023438" xlink:href="#Tahoma-48"/>
      <use x="603.613281" xlink:href="#Tahoma-95"/>
      <use x="658.203125" xlink:href="#Tahoma-49"/>
      <use x="712.792969" xlink:href="#Tahoma-50"/>
      <use x="767.382812" xlink:href="#Tahoma-49"/>
      <use x="821.972656" xlink:href="#Tahoma-56"/>
     </g>
    </g>
    <g id="patch_63">
     <path d="M 355.243014 72.6237 
L 371.243014 72.6237 
L 371.243014 67.0237 
L 355.243014 67.0237 
z
" style="fill:#d62728;opacity:0.9;"/>
    </g>
    <g id="text_21">
     <!-- wse_sA_0500_1218 -->
     <g transform="translate(377.643014 72.6237)scale(0.08 -0.08)">
      <use xlink:href="#Tahoma-119"/>
      <use x="74.21875" xlink:href="#Tahoma-115"/>
      <use x="118.847656" xlink:href="#Tahoma-101"/>
      <use x="171.484375" xlink:href="#Tahoma-95"/>
      <use x="226.074219" xlink:href="#Tahoma-115"/>
      <use x="270.703125" xlink:href="#Tahoma-65"/>
      <use x="330.664062" xlink:href="#Tahoma-95"/>
      <use x="385.253906" xlink:href="#Tahoma-48"/>
      <use x="439.84375" xlink:href="#Tahoma-53"/>
      <use x="494.433594" xlink:href="#Tahoma-48"/>
      <use x="549.023438" xlink:href="#Tahoma-48"/>
      <use x="603.613281" xlink:href="#Tahoma-95"/>
      <use x="658.203125" xlink:href="#Tahoma-49"/>
      <use x="712.792969" xlink:href="#Tahoma-50"/>
      <use x="767.382812" xlink:href="#Tahoma-49"/>
      <use x="821.972656" xlink:href="#Tahoma-56"/>
     </g>
    </g>
   </g>
  </g>
  <g id="text_22">
   <!-- r1a Raster Sample Histogram on 4 Events -->
   <g transform="translate(145.72275 10.29474)scale(0.096 -0.096)">
    <defs>
     <path d="M 63.671875 0 
L 51.125 0 
L 28.078125 28.90625 
L 17.046875 28.90625 
L 17.046875 0 
L 7.375 0 
L 7.375 72.703125 
L 26.125 72.703125 
Q 32.375 72.703125 36.59375 72.015625 
Q 40.828125 71.34375 44.625 68.84375 
Q 48.4375 66.40625 50.65625 62.546875 
Q 52.875 58.6875 52.875 52.984375 
Q 52.875 44.96875 48.828125 39.59375 
Q 44.78125 34.234375 37.796875 31.640625 
z
M 42.78125 52.25 
Q 42.78125 55.421875 41.65625 57.890625 
Q 40.53125 60.359375 38.1875 61.921875 
Q 36.140625 63.28125 33.40625 63.84375 
Q 30.671875 64.40625 26.609375 64.40625 
L 17.046875 64.40625 
L 17.046875 36.96875 
L 25.53125 36.96875 
Q 29.6875 36.96875 33 37.6875 
Q 36.328125 38.421875 38.671875 40.71875 
Q 40.765625 42.78125 41.765625 45.609375 
Q 42.78125 48.4375 42.78125 52.25 
z
" id="Tahoma-82"/>
     <path d="M 27.640625 -1.3125 
Q 19.734375 -1.3125 14.1875 0.3125 
Q 8.640625 1.953125 3.765625 4.34375 
L 3.765625 16.453125 
L 4.4375 16.453125 
Q 9.234375 11.96875 15.28125 9.5 
Q 21.34375 7.03125 26.953125 7.03125 
Q 34.96875 7.03125 39.0625 10.375 
Q 43.171875 13.71875 43.171875 19.1875 
Q 43.171875 23.53125 41.015625 26.265625 
Q 38.875 29 34.1875 30.328125 
Q 30.8125 31.296875 28.03125 31.921875 
Q 25.25 32.5625 21.046875 33.640625 
Q 17.28125 34.625 14.296875 36.125 
Q 11.328125 37.640625 9.03125 40.09375 
Q 6.78125 42.484375 5.53125 45.71875 
Q 4.296875 48.96875 4.296875 53.21875 
Q 4.296875 62.0625 11.171875 68.046875 
Q 18.0625 74.03125 28.765625 74.03125 
Q 34.859375 74.03125 40.296875 72.796875 
Q 45.75 71.578125 50.390625 69.34375 
L 50.390625 57.765625 
L 49.65625 57.765625 
Q 46.1875 60.9375 40.765625 63.296875 
Q 35.359375 65.671875 29.390625 65.671875 
Q 22.65625 65.671875 18.5 62.515625 
Q 14.359375 59.375 14.359375 54.25 
Q 14.359375 49.609375 16.796875 46.875 
Q 19.234375 44.140625 23.875 42.875 
Q 26.953125 42.046875 31.390625 40.984375 
Q 35.84375 39.9375 38.765625 39.0625 
Q 46.296875 36.765625 49.75 32.125 
Q 53.21875 27.484375 53.21875 20.703125 
Q 53.21875 16.453125 51.484375 12.296875 
Q 49.75 8.15625 46.625 5.28125 
Q 43.109375 2.09375 38.6875 0.390625 
Q 34.28125 -1.3125 27.640625 -1.3125 
z
" id="Tahoma-83"/>
     <path d="M 60.15625 0 
L 50.484375 0 
L 50.484375 35.59375 
L 17.046875 35.59375 
L 17.046875 0 
L 7.375 0 
L 7.375 72.703125 
L 17.046875 72.703125 
L 17.046875 44.1875 
L 50.484375 44.1875 
L 50.484375 72.703125 
L 60.15625 72.703125 
z
" id="Tahoma-72"/>
     <path d="M 7.375 0 
L 7.375 72.703125 
L 52.828125 72.703125 
L 52.828125 64.109375 
L 17.046875 64.109375 
L 17.046875 44.1875 
L 50.390625 44.1875 
L 50.390625 35.59375 
L 17.046875 35.59375 
L 17.046875 8.59375 
L 52.828125 8.59375 
L 52.828125 0 
z
" id="Tahoma-69"/>
    </defs>
    <use xlink:href="#Tahoma-114"/>
    <use x="36.035156" xlink:href="#Tahoma-49"/>
    <use x="90.625" xlink:href="#Tahoma-97"/>
    <use x="143.115234" xlink:href="#Tahoma-32"/>
    <use x="174.365234" xlink:href="#Tahoma-82"/>
    <use x="235.550781" xlink:href="#Tahoma-97"/>
    <use x="288.041016" xlink:href="#Tahoma-115"/>
    <use x="332.669922" xlink:href="#Tahoma-116"/>
    <use x="366.117188" xlink:href="#Tahoma-101"/>
    <use x="418.753906" xlink:href="#Tahoma-114"/>
    <use x="454.789062" xlink:href="#Tahoma-32"/>
    <use x="486.039062" xlink:href="#Tahoma-83"/>
    <use x="541.751953" xlink:href="#Tahoma-97"/>
    <use x="594.242188" xlink:href="#Tahoma-109"/>
    <use x="678.226562" xlink:href="#Tahoma-112"/>
    <use x="733.5" xlink:href="#Tahoma-108"/>
    <use x="756.351562" xlink:href="#Tahoma-101"/>
    <use x="808.988281" xlink:href="#Tahoma-32"/>
    <use x="840.238281" xlink:href="#Tahoma-72"/>
    <use x="907.767578" xlink:href="#Tahoma-105"/>
    <use x="930.619141" xlink:href="#Tahoma-115"/>
    <use x="975.248047" xlink:href="#Tahoma-116"/>
    <use x="1008.695312" xlink:href="#Tahoma-111"/>
    <use x="1062.992188" xlink:href="#Tahoma-103"/>
    <use x="1118.265625" xlink:href="#Tahoma-114"/>
    <use x="1152.550781" xlink:href="#Tahoma-97"/>
    <use x="1205.041016" xlink:href="#Tahoma-109"/>
    <use x="1289.025391" xlink:href="#Tahoma-32"/>
    <use x="1320.275391" xlink:href="#Tahoma-111"/>
    <use x="1374.572266" xlink:href="#Tahoma-110"/>
    <use x="1430.333984" xlink:href="#Tahoma-32"/>
    <use x="1461.583984" xlink:href="#Tahoma-52"/>
    <use x="1516.173828" xlink:href="#Tahoma-32"/>
    <use x="1547.423828" xlink:href="#Tahoma-69"/>
    <use x="1603.527344" xlink:href="#Tahoma-118"/>
    <use x="1652.582031" xlink:href="#Tahoma-101"/>
    <use x="1705.21875" xlink:href="#Tahoma-110"/>
    <use x="1760.980469" xlink:href="#Tahoma-116"/>
    <use x="1794.427734" xlink:href="#Tahoma-115"/>
   </g>
  </g>
 </g>
 <defs>
  <clipPath id="p76bb794355">
   <rect height="234.34356" width="428.915274" x="26.05649" y="24.2787"/>
  </clipPath>
 </defs>
</svg>
