<?xml version="1.0" encoding="utf-8" standalone="no"?>
<!DOCTYPE svg PUBLIC "-//W3C//DTD SVG 1.1//EN"
  "http://www.w3.org/Graphics/SVG/1.1/DTD/svg11.dtd">
<svg xmlns:xlink="http://www.w3.org/1999/xlink" width="468pt" height="288pt" viewBox="0 0 468 288" xmlns="http://www.w3.org/2000/svg" version="1.1">
 <metadata>
  <rdf:RDF xmlns:dc="http://purl.org/dc/elements/1.1/" xmlns:cc="http://creativecommons.org/ns#" xmlns:rdf="http://www.w3.org/1999/02/22-rdf-syntax-ns#">
   <cc:Work>
    <dc:type rdf:resource="http://purl.org/dc/dcmitype/StillImage"/>
    <dc:date>2023-03-24T16:46:23.890152</dc:date>
    <dc:format>image/svg+xml</dc:format>
    <dc:creator>
     <cc:Agent>
      <dc:title>Matplotlib v3.5.1, https://matplotlib.org/</dc:title>
     </cc:Agent>
    </dc:creator>
   </cc:Work>
  </rdf:RDF>
 </metadata>
 <defs>
  <style type="text/css">*{stroke-linejoin: round; stroke-linecap: butt}</style>
 </defs>
 <g id="figure_1">
  <g id="patch_1">
   <path d="M 0 288 
L 468 288 
L 468 0 
L 0 0 
L 0 288 
z
" style="fill: none"/>
  </g>
  <g id="axes_1">
   <g id="patch_2">
    <path d="M 45.94899 258.62226 
L 462.81601 258.62226 
L 462.81601 18.27372 
L 45.94899 18.27372 
L 45.94899 258.62226 
z
" style="fill: none"/>
   </g>
   <g id="PolyCollection_1">
    <defs>
     <path id="m4e077d34b6" d="M 384.043394 -40.302674 
L 384.043394 -40.302674 
L 316.192356 -82.721664 
L 237.41974 -125.219802 
L 203.494221 -170.509289 
L 158.647125 -223.484523 
L 45.94899 -258.801346 
L 45.94899 -40.302674 
L 45.94899 -40.302674 
L 158.647125 -40.302674 
L 203.494221 -40.302674 
L 237.41974 -40.302674 
L 316.192356 -40.302674 
L 384.043394 -40.302674 
z
" style="stroke: #0000ff; stroke-opacity: 0.1"/>
    </defs>
    <g clip-path="url(#p2ea898bfb8)">
     <use xlink:href="#m4e077d34b6" x="0" y="288" style="fill: #0000ff; fill-opacity: 0.1; stroke: #0000ff; stroke-opacity: 0.1"/>
    </g>
   </g>
   <g id="matplotlib.axis_1">
    <g id="xtick_1">
     <g id="line2d_1">
      <path d="M 462.81601 258.62226 
L 462.81601 18.27372 
" clip-path="url(#p2ea898bfb8)" style="fill: none; stroke: #b0b0b0; stroke-width: 0.8; stroke-linecap: square"/>
     </g>
     <g id="line2d_2">
      <defs>
       <path id="m413c0a0c32" d="M 0 0 
L 0 3.5 
" style="stroke: #000000; stroke-width: 0.8"/>
      </defs>
      <g>
       <use xlink:href="#m413c0a0c32" x="462.81601" y="258.62226" style="stroke: #000000; stroke-width: 0.8"/>
      </g>
     </g>
     <g id="text_1">
      <!-- 1 -->
      <g transform="translate(460.63226 271.70101)scale(0.08 -0.08)">
       <defs>
        <path id="Tahoma-31" d="M 2975 0 
L 706 0 
L 706 475 
L 1550 475 
L 1550 3594 
L 706 3594 
L 706 4019 
Q 1184 4019 1411 4155 
Q 1638 4291 1666 4669 
L 2150 4669 
L 2150 475 
L 2975 475 
L 2975 0 
z
" transform="scale(0.015625)"/>
       </defs>
       <use xlink:href="#Tahoma-31"/>
      </g>
     </g>
    </g>
    <g id="xtick_2">
     <g id="line2d_3">
      <path d="M 350.117875 258.62226 
L 350.117875 18.27372 
" clip-path="url(#p2ea898bfb8)" style="fill: none; stroke: #b0b0b0; stroke-width: 0.8; stroke-linecap: square"/>
     </g>
     <g id="line2d_4">
      <g>
       <use xlink:href="#m413c0a0c32" x="350.117875" y="258.62226" style="stroke: #000000; stroke-width: 0.8"/>
      </g>
     </g>
     <g id="text_2">
      <!-- 10 -->
      <g transform="translate(345.750375 271.70101)scale(0.08 -0.08)">
       <defs>
        <path id="Tahoma-30" d="M 3234 2328 
Q 3234 1075 2870 489 
Q 2506 -97 1747 -97 
Q 978 -97 618 500 
Q 259 1097 259 2322 
Q 259 3581 623 4164 
Q 988 4747 1747 4747 
Q 2516 4747 2875 4144 
Q 3234 3541 3234 2328 
z
M 2434 909 
Q 2525 1141 2562 1494 
Q 2600 1847 2600 2328 
Q 2600 2806 2562 3159 
Q 2525 3513 2431 3747 
Q 2338 3984 2173 4107 
Q 2009 4231 1747 4231 
Q 1488 4231 1320 4107 
Q 1153 3984 1056 3741 
Q 963 3503 928 3140 
Q 894 2778 894 2322 
Q 894 1834 923 1506 
Q 953 1178 1053 919 
Q 1144 678 1311 548 
Q 1478 419 1747 419 
Q 2006 419 2173 542 
Q 2341 666 2434 909 
z
" transform="scale(0.015625)"/>
       </defs>
       <use xlink:href="#Tahoma-31"/>
       <use xlink:href="#Tahoma-30" x="54.589844"/>
      </g>
     </g>
    </g>
    <g id="xtick_3">
     <g id="line2d_5">
      <path d="M 237.41974 258.62226 
L 237.41974 18.27372 
" clip-path="url(#p2ea898bfb8)" style="fill: none; stroke: #b0b0b0; stroke-width: 0.8; stroke-linecap: square"/>
     </g>
     <g id="line2d_6">
      <g>
       <use xlink:href="#m413c0a0c32" x="237.41974" y="258.62226" style="stroke: #000000; stroke-width: 0.8"/>
      </g>
     </g>
     <g id="text_3">
      <!-- 100 -->
      <g transform="translate(230.86849 271.70101)scale(0.08 -0.08)">
       <use xlink:href="#Tahoma-31"/>
       <use xlink:href="#Tahoma-30" x="54.589844"/>
       <use xlink:href="#Tahoma-30" x="109.179688"/>
      </g>
     </g>
    </g>
    <g id="xtick_4">
     <g id="line2d_7">
      <path d="M 124.721606 258.62226 
L 124.721606 18.27372 
" clip-path="url(#p2ea898bfb8)" style="fill: none; stroke: #b0b0b0; stroke-width: 0.8; stroke-linecap: square"/>
     </g>
     <g id="line2d_8">
      <g>
       <use xlink:href="#m413c0a0c32" x="124.721606" y="258.62226" style="stroke: #000000; stroke-width: 0.8"/>
      </g>
     </g>
     <g id="text_4">
      <!-- 1,000 -->
      <g transform="translate(114.775356 271.70101)scale(0.08 -0.08)">
       <defs>
        <path id="Tahoma-2c" d="M 1563 891 
L 688 -1156 
L 231 -1156 
L 781 891 
L 1563 891 
z
" transform="scale(0.015625)"/>
       </defs>
       <use xlink:href="#Tahoma-31"/>
       <use xlink:href="#Tahoma-2c" x="54.589844"/>
       <use xlink:href="#Tahoma-30" x="84.863281"/>
       <use xlink:href="#Tahoma-30" x="139.453125"/>
       <use xlink:href="#Tahoma-30" x="194.042969"/>
      </g>
     </g>
    </g>
    <g id="xtick_5">
     <g id="line2d_9">
      <defs>
       <path id="m2c71d884b4" d="M 0 0 
L 0 2 
" style="stroke: #000000; stroke-width: 0.6"/>
      </defs>
      <g>
       <use xlink:href="#m2c71d884b4" x="428.890491" y="258.62226" style="stroke: #000000; stroke-width: 0.6"/>
      </g>
     </g>
    </g>
    <g id="xtick_6">
     <g id="line2d_10">
      <g>
       <use xlink:href="#m2c71d884b4" x="409.045335" y="258.62226" style="stroke: #000000; stroke-width: 0.6"/>
      </g>
     </g>
    </g>
    <g id="xtick_7">
     <g id="line2d_11">
      <g>
       <use xlink:href="#m2c71d884b4" x="394.964972" y="258.62226" style="stroke: #000000; stroke-width: 0.6"/>
      </g>
     </g>
    </g>
    <g id="xtick_8">
     <g id="line2d_12">
      <g>
       <use xlink:href="#m2c71d884b4" x="384.043394" y="258.62226" style="stroke: #000000; stroke-width: 0.6"/>
      </g>
     </g>
    </g>
    <g id="xtick_9">
     <g id="line2d_13">
      <g>
       <use xlink:href="#m2c71d884b4" x="375.119816" y="258.62226" style="stroke: #000000; stroke-width: 0.6"/>
      </g>
     </g>
    </g>
    <g id="xtick_10">
     <g id="line2d_14">
      <g>
       <use xlink:href="#m2c71d884b4" x="367.575037" y="258.62226" style="stroke: #000000; stroke-width: 0.6"/>
      </g>
     </g>
    </g>
    <g id="xtick_11">
     <g id="line2d_15">
      <g>
       <use xlink:href="#m2c71d884b4" x="361.039453" y="258.62226" style="stroke: #000000; stroke-width: 0.6"/>
      </g>
     </g>
    </g>
    <g id="xtick_12">
     <g id="line2d_16">
      <g>
       <use xlink:href="#m2c71d884b4" x="355.274659" y="258.62226" style="stroke: #000000; stroke-width: 0.6"/>
      </g>
     </g>
    </g>
    <g id="xtick_13">
     <g id="line2d_17">
      <g>
       <use xlink:href="#m2c71d884b4" x="316.192356" y="258.62226" style="stroke: #000000; stroke-width: 0.6"/>
      </g>
     </g>
    </g>
    <g id="xtick_14">
     <g id="line2d_18">
      <g>
       <use xlink:href="#m2c71d884b4" x="296.3472" y="258.62226" style="stroke: #000000; stroke-width: 0.6"/>
      </g>
     </g>
    </g>
    <g id="xtick_15">
     <g id="line2d_19">
      <g>
       <use xlink:href="#m2c71d884b4" x="282.266837" y="258.62226" style="stroke: #000000; stroke-width: 0.6"/>
      </g>
     </g>
    </g>
    <g id="xtick_16">
     <g id="line2d_20">
      <g>
       <use xlink:href="#m2c71d884b4" x="271.34526" y="258.62226" style="stroke: #000000; stroke-width: 0.6"/>
      </g>
     </g>
    </g>
    <g id="xtick_17">
     <g id="line2d_21">
      <g>
       <use xlink:href="#m2c71d884b4" x="262.421681" y="258.62226" style="stroke: #000000; stroke-width: 0.6"/>
      </g>
     </g>
    </g>
    <g id="xtick_18">
     <g id="line2d_22">
      <g>
       <use xlink:href="#m2c71d884b4" x="254.876902" y="258.62226" style="stroke: #000000; stroke-width: 0.6"/>
      </g>
     </g>
    </g>
    <g id="xtick_19">
     <g id="line2d_23">
      <g>
       <use xlink:href="#m2c71d884b4" x="248.341318" y="258.62226" style="stroke: #000000; stroke-width: 0.6"/>
      </g>
     </g>
    </g>
    <g id="xtick_20">
     <g id="line2d_24">
      <g>
       <use xlink:href="#m2c71d884b4" x="242.576524" y="258.62226" style="stroke: #000000; stroke-width: 0.6"/>
      </g>
     </g>
    </g>
    <g id="xtick_21">
     <g id="line2d_25">
      <g>
       <use xlink:href="#m2c71d884b4" x="203.494221" y="258.62226" style="stroke: #000000; stroke-width: 0.6"/>
      </g>
     </g>
    </g>
    <g id="xtick_22">
     <g id="line2d_26">
      <g>
       <use xlink:href="#m2c71d884b4" x="183.649065" y="258.62226" style="stroke: #000000; stroke-width: 0.6"/>
      </g>
     </g>
    </g>
    <g id="xtick_23">
     <g id="line2d_27">
      <g>
       <use xlink:href="#m2c71d884b4" x="169.568702" y="258.62226" style="stroke: #000000; stroke-width: 0.6"/>
      </g>
     </g>
    </g>
    <g id="xtick_24">
     <g id="line2d_28">
      <g>
       <use xlink:href="#m2c71d884b4" x="158.647125" y="258.62226" style="stroke: #000000; stroke-width: 0.6"/>
      </g>
     </g>
    </g>
    <g id="xtick_25">
     <g id="line2d_29">
      <g>
       <use xlink:href="#m2c71d884b4" x="149.723546" y="258.62226" style="stroke: #000000; stroke-width: 0.6"/>
      </g>
     </g>
    </g>
    <g id="xtick_26">
     <g id="line2d_30">
      <g>
       <use xlink:href="#m2c71d884b4" x="142.178768" y="258.62226" style="stroke: #000000; stroke-width: 0.6"/>
      </g>
     </g>
    </g>
    <g id="xtick_27">
     <g id="line2d_31">
      <g>
       <use xlink:href="#m2c71d884b4" x="135.643183" y="258.62226" style="stroke: #000000; stroke-width: 0.6"/>
      </g>
     </g>
    </g>
    <g id="xtick_28">
     <g id="line2d_32">
      <g>
       <use xlink:href="#m2c71d884b4" x="129.87839" y="258.62226" style="stroke: #000000; stroke-width: 0.6"/>
      </g>
     </g>
    </g>
    <g id="xtick_29">
     <g id="line2d_33">
      <g>
       <use xlink:href="#m2c71d884b4" x="90.796087" y="258.62226" style="stroke: #000000; stroke-width: 0.6"/>
      </g>
     </g>
    </g>
    <g id="xtick_30">
     <g id="line2d_34">
      <g>
       <use xlink:href="#m2c71d884b4" x="70.95093" y="258.62226" style="stroke: #000000; stroke-width: 0.6"/>
      </g>
     </g>
    </g>
    <g id="xtick_31">
     <g id="line2d_35">
      <g>
       <use xlink:href="#m2c71d884b4" x="56.870568" y="258.62226" style="stroke: #000000; stroke-width: 0.6"/>
      </g>
     </g>
    </g>
    <g id="xtick_32">
     <g id="line2d_36">
      <g>
       <use xlink:href="#m2c71d884b4" x="45.94899" y="258.62226" style="stroke: #000000; stroke-width: 0.6"/>
      </g>
     </g>
    </g>
    <g id="text_5">
     <!-- ARI -->
     <g transform="translate(248.00875 283.38976)scale(0.08 -0.08)">
      <defs>
       <path id="Tahoma-41" d="M -31 0 
L 1538 4653 
L 2300 4653 
L 3869 0 
L 3216 0 
L 2794 1300 
L 1016 1300 
L 594 0 
L -31 0 
z
M 2622 1828 
L 1903 4022 
L 1188 1828 
L 2622 1828 
z
" transform="scale(0.015625)"/>
       <path id="Tahoma-52" d="M 4075 0 
L 3272 0 
L 1797 1850 
L 1091 1850 
L 1091 0 
L 472 0 
L 472 4653 
L 1672 4653 
Q 2072 4653 2342 4609 
Q 2613 4566 2856 4406 
Q 3100 4250 3242 4003 
Q 3384 3756 3384 3391 
Q 3384 2878 3125 2534 
Q 2866 2191 2419 2025 
L 4075 0 
z
M 2738 3344 
Q 2738 3547 2666 3705 
Q 2594 3863 2444 3963 
Q 2313 4050 2138 4086 
Q 1963 4122 1703 4122 
L 1091 4122 
L 1091 2366 
L 1634 2366 
Q 1900 2366 2112 2412 
Q 2325 2459 2475 2606 
Q 2609 2738 2673 2919 
Q 2738 3100 2738 3344 
z
" transform="scale(0.015625)"/>
       <path id="Tahoma-49" d="M 2097 0 
L 291 0 
L 291 475 
L 884 475 
L 884 4178 
L 291 4178 
L 291 4653 
L 2097 4653 
L 2097 4178 
L 1503 4178 
L 1503 475 
L 2097 475 
L 2097 0 
z
" transform="scale(0.015625)"/>
      </defs>
      <use xlink:href="#Tahoma-41"/>
      <use xlink:href="#Tahoma-52" x="59.960938"/>
      <use xlink:href="#Tahoma-49" x="122.021484"/>
     </g>
    </g>
   </g>
   <g id="matplotlib.axis_2">
    <g id="ytick_1">
     <g id="line2d_37">
      <path d="M 45.94899 247.697326 
L 462.81601 247.697326 
" clip-path="url(#p2ea898bfb8)" style="fill: none; stroke: #b0b0b0; stroke-width: 0.8; stroke-linecap: square"/>
     </g>
     <g id="line2d_38">
      <defs>
       <path id="mba78ff74f8" d="M 0 0 
L -3.5 0 
" style="stroke: #000000; stroke-width: 0.8"/>
      </defs>
      <g>
       <use xlink:href="#mba78ff74f8" x="45.94899" y="247.697326" style="stroke: #000000; stroke-width: 0.8"/>
      </g>
     </g>
     <g id="text_6">
      <!-- 0 -->
      <g transform="translate(34.58149 250.736701)scale(0.08 -0.08)">
       <use xlink:href="#Tahoma-30"/>
      </g>
     </g>
    </g>
    <g id="ytick_2">
     <g id="line2d_39">
      <path d="M 45.94899 203.603659 
L 462.81601 203.603659 
" clip-path="url(#p2ea898bfb8)" style="fill: none; stroke: #b0b0b0; stroke-width: 0.8; stroke-linecap: square"/>
     </g>
     <g id="line2d_40">
      <g>
       <use xlink:href="#mba78ff74f8" x="45.94899" y="203.603659" style="stroke: #000000; stroke-width: 0.8"/>
      </g>
     </g>
     <g id="text_7">
      <!-- 2,000 -->
      <g transform="translate(19.05649 206.643034)scale(0.08 -0.08)">
       <defs>
        <path id="Tahoma-32" d="M 3213 0 
L 341 0 
L 341 653 
Q 650 947 925 1215 
Q 1200 1484 1463 1775 
Q 1994 2359 2187 2711 
Q 2381 3063 2381 3438 
Q 2381 3631 2320 3778 
Q 2259 3925 2153 4022 
Q 2044 4116 1900 4162 
Q 1756 4209 1584 4209 
Q 1419 4209 1248 4167 
Q 1078 4125 922 4063 
Q 791 4009 669 3934 
Q 547 3859 472 3806 
L 438 3806 
L 438 4469 
Q 631 4566 976 4658 
Q 1322 4750 1631 4750 
Q 2281 4750 2650 4404 
Q 3019 4059 3019 3469 
Q 3019 3197 2955 2965 
Q 2891 2734 2778 2538 
Q 2663 2334 2500 2134 
Q 2338 1934 2156 1741 
Q 1863 1422 1502 1078 
Q 1141 734 925 534 
L 3213 534 
L 3213 0 
z
" transform="scale(0.015625)"/>
       </defs>
       <use xlink:href="#Tahoma-32"/>
       <use xlink:href="#Tahoma-2c" x="54.589844"/>
       <use xlink:href="#Tahoma-30" x="84.863281"/>
       <use xlink:href="#Tahoma-30" x="139.453125"/>
       <use xlink:href="#Tahoma-30" x="194.042969"/>
      </g>
     </g>
    </g>
    <g id="ytick_3">
     <g id="line2d_41">
      <path d="M 45.94899 159.509992 
L 462.81601 159.509992 
" clip-path="url(#p2ea898bfb8)" style="fill: none; stroke: #b0b0b0; stroke-width: 0.8; stroke-linecap: square"/>
     </g>
     <g id="line2d_42">
      <g>
       <use xlink:href="#mba78ff74f8" x="45.94899" y="159.509992" style="stroke: #000000; stroke-width: 0.8"/>
      </g>
     </g>
     <g id="text_8">
      <!-- 4,000 -->
      <g transform="translate(19.13649 162.549367)scale(0.08 -0.08)">
       <defs>
        <path id="Tahoma-34" d="M 3334 1600 
L 2781 1600 
L 2781 0 
L 2181 0 
L 2181 1600 
L 125 1600 
L 125 2256 
L 2206 4653 
L 2781 4653 
L 2781 2100 
L 3334 2100 
L 3334 1600 
z
M 2181 2100 
L 2181 3919 
L 613 2100 
L 2181 2100 
z
" transform="scale(0.015625)"/>
       </defs>
       <use xlink:href="#Tahoma-34"/>
       <use xlink:href="#Tahoma-2c" x="53.589844"/>
       <use xlink:href="#Tahoma-30" x="83.863281"/>
       <use xlink:href="#Tahoma-30" x="138.453125"/>
       <use xlink:href="#Tahoma-30" x="193.042969"/>
      </g>
     </g>
    </g>
    <g id="ytick_4">
     <g id="line2d_43">
      <path d="M 45.94899 115.416324 
L 462.81601 115.416324 
" clip-path="url(#p2ea898bfb8)" style="fill: none; stroke: #b0b0b0; stroke-width: 0.8; stroke-linecap: square"/>
     </g>
     <g id="line2d_44">
      <g>
       <use xlink:href="#mba78ff74f8" x="45.94899" y="115.416324" style="stroke: #000000; stroke-width: 0.8"/>
      </g>
     </g>
     <g id="text_9">
      <!-- 6,000 -->
      <g transform="translate(19.05649 118.455699)scale(0.08 -0.08)">
       <defs>
        <path id="Tahoma-36" d="M 3284 1509 
Q 3284 1150 3165 847 
Q 3047 544 2847 341 
Q 2638 125 2378 14 
Q 2119 -97 1806 -97 
Q 1491 -97 1233 9 
Q 975 116 778 325 
Q 538 578 402 1001 
Q 266 1425 266 2044 
Q 266 2650 391 3139 
Q 516 3628 775 3991 
Q 1028 4344 1428 4542 
Q 1828 4741 2353 4741 
Q 2509 4741 2643 4725 
Q 2778 4709 2881 4675 
L 2881 4078 
L 2853 4078 
Q 2769 4125 2609 4164 
Q 2450 4203 2269 4203 
Q 1688 4203 1330 3811 
Q 972 3419 906 2647 
Q 1128 2803 1362 2887 
Q 1597 2972 1875 2972 
Q 2147 2972 2351 2917 
Q 2556 2863 2778 2697 
Q 3034 2503 3159 2206 
Q 3284 1909 3284 1509 
z
M 2650 1484 
Q 2650 1772 2575 1965 
Q 2500 2159 2331 2297 
Q 2209 2397 2054 2428 
Q 1900 2459 1738 2459 
Q 1519 2459 1312 2393 
Q 1106 2328 906 2203 
Q 900 2134 897 2070 
Q 894 2006 894 1909 
Q 894 1425 989 1128 
Q 1084 831 1225 678 
Q 1359 531 1501 472 
Q 1644 413 1809 413 
Q 2184 413 2417 681 
Q 2650 950 2650 1484 
z
" transform="scale(0.015625)"/>
       </defs>
       <use xlink:href="#Tahoma-36"/>
       <use xlink:href="#Tahoma-2c" x="54.589844"/>
       <use xlink:href="#Tahoma-30" x="84.863281"/>
       <use xlink:href="#Tahoma-30" x="139.453125"/>
       <use xlink:href="#Tahoma-30" x="194.042969"/>
      </g>
     </g>
    </g>
    <g id="ytick_5">
     <g id="line2d_45">
      <path d="M 45.94899 71.322657 
L 462.81601 71.322657 
" clip-path="url(#p2ea898bfb8)" style="fill: none; stroke: #b0b0b0; stroke-width: 0.8; stroke-linecap: square"/>
     </g>
     <g id="line2d_46">
      <g>
       <use xlink:href="#mba78ff74f8" x="45.94899" y="71.322657" style="stroke: #000000; stroke-width: 0.8"/>
      </g>
     </g>
     <g id="text_10">
      <!-- 8,000 -->
      <g transform="translate(19.05649 74.362032)scale(0.08 -0.08)">
       <defs>
        <path id="Tahoma-38" d="M 2534 3569 
Q 2534 3881 2325 4090 
Q 2116 4300 1744 4300 
Q 1403 4300 1186 4112 
Q 969 3925 969 3606 
Q 969 3375 1080 3215 
Q 1191 3056 1413 2928 
Q 1509 2875 1707 2781 
Q 1906 2688 2069 2634 
Q 2341 2844 2437 3064 
Q 2534 3284 2534 3569 
z
M 2622 1238 
Q 2622 1525 2509 1694 
Q 2397 1863 2075 2038 
Q 1969 2097 1792 2165 
Q 1616 2234 1394 2328 
Q 1134 2156 996 1904 
Q 859 1653 859 1331 
Q 859 909 1114 634 
Q 1369 359 1753 359 
Q 2147 359 2384 595 
Q 2622 831 2622 1238 
z
M 1747 -106 
Q 1400 -106 1115 -3 
Q 831 100 631 294 
Q 434 481 332 739 
Q 231 997 231 1284 
Q 231 1663 432 1980 
Q 634 2297 1019 2484 
L 1019 2503 
Q 675 2703 509 2940 
Q 344 3178 344 3534 
Q 344 4059 741 4409 
Q 1138 4759 1747 4759 
Q 2381 4759 2764 4426 
Q 3147 4094 3147 3575 
Q 3147 3263 2964 2956 
Q 2781 2650 2438 2478 
L 2438 2459 
Q 2844 2269 3053 1997 
Q 3263 1725 3263 1297 
Q 3263 700 2830 297 
Q 2397 -106 1747 -106 
z
" transform="scale(0.015625)"/>
       </defs>
       <use xlink:href="#Tahoma-38"/>
       <use xlink:href="#Tahoma-2c" x="54.589844"/>
       <use xlink:href="#Tahoma-30" x="84.863281"/>
       <use xlink:href="#Tahoma-30" x="139.453125"/>
       <use xlink:href="#Tahoma-30" x="194.042969"/>
      </g>
     </g>
    </g>
    <g id="ytick_6">
     <g id="line2d_47">
      <path d="M 45.94899 27.22899 
L 462.81601 27.22899 
" clip-path="url(#p2ea898bfb8)" style="fill: none; stroke: #b0b0b0; stroke-width: 0.8; stroke-linecap: square"/>
     </g>
     <g id="line2d_48">
      <g>
       <use xlink:href="#mba78ff74f8" x="45.94899" y="27.22899" style="stroke: #000000; stroke-width: 0.8"/>
      </g>
     </g>
     <g id="text_11">
      <!-- 10,000 -->
      <g transform="translate(14.68899 30.268365)scale(0.08 -0.08)">
       <use xlink:href="#Tahoma-31"/>
       <use xlink:href="#Tahoma-30" x="54.589844"/>
       <use xlink:href="#Tahoma-2c" x="109.179688"/>
       <use xlink:href="#Tahoma-30" x="139.453125"/>
       <use xlink:href="#Tahoma-30" x="194.042969"/>
       <use xlink:href="#Tahoma-30" x="248.632812"/>
      </g>
     </g>
    </g>
    <g id="text_12">
     <!-- impacts -->
     <g transform="translate(9.07899 152.001115)rotate(-90)scale(0.08 -0.08)">
      <defs>
       <path id="Tahoma-69" d="M 1025 0 
L 438 0 
L 438 3491 
L 1025 3491 
L 1025 0 
z
M 1066 4075 
L 397 4075 
L 397 4684 
L 1066 4684 
L 1066 4075 
z
" transform="scale(0.015625)"/>
       <path id="Tahoma-6d" d="M 4388 0 
L 4388 2019 
Q 4388 2259 4369 2464 
Q 4350 2669 4291 2784 
Q 4228 2909 4112 2968 
Q 3997 3028 3800 3028 
Q 3619 3028 3411 2917 
Q 3203 2806 2981 2597 
Q 2984 2544 2989 2470 
Q 2994 2397 2994 2297 
L 2994 0 
L 2406 0 
L 2406 2019 
Q 2406 2259 2387 2464 
Q 2369 2669 2309 2784 
Q 2247 2909 2131 2968 
Q 2016 3028 1819 3028 
Q 1628 3028 1418 2909 
Q 1209 2791 1013 2606 
L 1013 0 
L 425 0 
L 425 3491 
L 1013 3491 
L 1013 3103 
Q 1244 3334 1470 3461 
Q 1697 3588 1969 3588 
Q 2278 3588 2517 3447 
Q 2756 3306 2881 2984 
Q 3147 3281 3400 3434 
Q 3653 3588 3950 3588 
Q 4175 3588 4359 3517 
Q 4544 3447 4681 3291 
Q 4822 3131 4898 2893 
Q 4975 2656 4975 2297 
L 4975 0 
L 4388 0 
z
" transform="scale(0.015625)"/>
       <path id="Tahoma-70" d="M 3353 1838 
Q 3353 966 2936 448 
Q 2519 -69 1881 -69 
Q 1622 -69 1422 -9 
Q 1222 50 1013 175 
L 1013 -1288 
L 425 -1288 
L 425 3491 
L 1013 3491 
L 1013 3125 
Q 1231 3322 1498 3455 
Q 1766 3588 2081 3588 
Q 2681 3588 3017 3113 
Q 3353 2638 3353 1838 
z
M 2747 1772 
Q 2747 2369 2556 2698 
Q 2366 3028 1938 3028 
Q 1688 3028 1455 2917 
Q 1222 2806 1013 2631 
L 1013 653 
Q 1244 541 1408 500 
Q 1572 459 1784 459 
Q 2241 459 2494 793 
Q 2747 1128 2747 1772 
z
" transform="scale(0.015625)"/>
       <path id="Tahoma-61" d="M 2375 859 
L 2375 1828 
Q 2166 1809 1845 1776 
Q 1525 1744 1328 1684 
Q 1094 1613 941 1464 
Q 788 1316 788 1050 
Q 788 750 956 597 
Q 1125 444 1450 444 
Q 1728 444 1953 564 
Q 2178 684 2375 859 
z
M 2375 372 
Q 2303 319 2183 223 
Q 2063 128 1950 72 
Q 1794 -9 1648 -53 
Q 1503 -97 1241 -97 
Q 1025 -97 831 -15 
Q 638 66 491 213 
Q 350 356 265 567 
Q 181 778 181 1013 
Q 181 1375 334 1629 
Q 488 1884 819 2034 
Q 1113 2169 1513 2220 
Q 1913 2272 2375 2297 
L 2375 2409 
Q 2375 2616 2312 2742 
Q 2250 2869 2138 2938 
Q 2025 3009 1862 3032 
Q 1700 3056 1528 3056 
Q 1325 3056 1050 2995 
Q 775 2934 500 2819 
L 466 2819 
L 466 3416 
Q 628 3463 931 3519 
Q 1234 3575 1531 3575 
Q 1891 3575 2137 3519 
Q 2384 3463 2581 3316 
Q 2772 3172 2865 2944 
Q 2959 2716 2959 2388 
L 2959 0 
L 2375 0 
L 2375 372 
z
" transform="scale(0.015625)"/>
       <path id="Tahoma-63" d="M 1813 -78 
Q 1453 -78 1153 33 
Q 853 144 638 369 
Q 422 594 303 936 
Q 184 1278 184 1741 
Q 184 2200 307 2534 
Q 431 2869 638 3097 
Q 844 3325 1151 3448 
Q 1459 3572 1813 3572 
Q 2100 3572 2367 3490 
Q 2634 3409 2844 3303 
L 2844 2644 
L 2809 2644 
Q 2747 2697 2648 2765 
Q 2550 2834 2409 2906 
Q 2288 2969 2122 3016 
Q 1956 3063 1803 3063 
Q 1347 3063 1070 2717 
Q 794 2372 794 1741 
Q 794 1122 1061 776 
Q 1328 431 1803 431 
Q 2091 431 2350 550 
Q 2609 669 2809 856 
L 2844 856 
L 2844 197 
Q 2756 156 2625 98 
Q 2494 41 2388 13 
Q 2238 -31 2119 -54 
Q 2000 -78 1813 -78 
z
" transform="scale(0.015625)"/>
       <path id="Tahoma-74" d="M 1481 -69 
Q 1000 -69 731 204 
Q 463 478 463 1069 
L 463 3003 
L 66 3003 
L 66 3491 
L 463 3491 
L 463 4494 
L 1050 4494 
L 1050 3491 
L 2131 3491 
L 2131 3003 
L 1050 3003 
L 1050 1344 
Q 1050 1078 1059 934 
Q 1069 791 1131 666 
Q 1184 556 1303 501 
Q 1422 447 1625 447 
Q 1769 447 1903 489 
Q 2038 531 2097 559 
L 2131 559 
L 2131 31 
Q 1966 -16 1795 -42 
Q 1625 -69 1481 -69 
z
" transform="scale(0.015625)"/>
       <path id="Tahoma-73" d="M 1369 -84 
Q 1019 -84 714 9 
Q 409 103 209 209 
L 209 869 
L 241 869 
Q 316 809 417 737 
Q 519 666 688 588 
Q 838 519 1017 466 
Q 1197 413 1391 413 
Q 1531 413 1690 445 
Q 1850 478 1928 528 
Q 2038 600 2086 681 
Q 2134 763 2134 925 
Q 2134 1134 2020 1240 
Q 1906 1347 1616 1419 
Q 1503 1447 1322 1484 
Q 1141 1522 988 1566 
Q 588 1681 406 1923 
Q 225 2166 225 2509 
Q 225 2981 581 3278 
Q 938 3575 1528 3575 
Q 1819 3575 2112 3503 
Q 2406 3431 2606 3322 
L 2606 2694 
L 2575 2694 
Q 2350 2872 2073 2975 
Q 1797 3078 1516 3078 
Q 1225 3078 1025 2956 
Q 825 2834 825 2588 
Q 825 2369 944 2261 
Q 1063 2153 1325 2084 
Q 1456 2050 1617 2017 
Q 1778 1984 1956 1941 
Q 2344 1844 2539 1619 
Q 2734 1394 2734 1006 
Q 2734 781 2645 579 
Q 2556 378 2384 234 
Q 2197 78 1961 -3 
Q 1725 -84 1369 -84 
z
" transform="scale(0.015625)"/>
      </defs>
      <use xlink:href="#Tahoma-69"/>
      <use xlink:href="#Tahoma-6d" x="22.851562"/>
      <use xlink:href="#Tahoma-70" x="106.835938"/>
      <use xlink:href="#Tahoma-61" x="162.109375"/>
      <use xlink:href="#Tahoma-63" x="214.599609"/>
      <use xlink:href="#Tahoma-74" x="260.742188"/>
      <use xlink:href="#Tahoma-73" x="294.189453"/>
     </g>
    </g>
   </g>
   <g id="line2d_49">
    <path d="M 384.043394 247.697326 
L 316.192356 205.278336 
L 237.41974 162.780198 
L 203.494221 117.490711 
L 158.647125 64.515477 
L 45.94899 29.198654 
" clip-path="url(#p2ea898bfb8)" style="fill: none; stroke-dasharray: 12.8,3.2,2,3.2; stroke-dashoffset: 0; stroke: #000000; stroke-opacity: 0.75; stroke-width: 2"/>
    <defs>
     <path id="m5995857459" d="M 0 2 
C 0.530406 2 1.03916 1.789267 1.414214 1.414214 
C 1.789267 1.03916 2 0.530406 2 0 
C 2 -0.530406 1.789267 -1.03916 1.414214 -1.414214 
C 1.03916 -1.789267 0.530406 -2 0 -2 
C -0.530406 -2 -1.03916 -1.789267 -1.414214 -1.414214 
C -1.789267 -1.03916 -2 -0.530406 -2 0 
C -2 0.530406 -1.789267 1.03916 -1.414214 1.414214 
C -1.03916 1.789267 -0.530406 2 0 2 
z
" style="stroke: #000000; stroke-opacity: 0.75"/>
    </defs>
    <g clip-path="url(#p2ea898bfb8)">
     <use xlink:href="#m5995857459" x="384.043394" y="247.697326" style="fill-opacity: 0; stroke: #000000; stroke-opacity: 0.75"/>
     <use xlink:href="#m5995857459" x="316.192356" y="205.278336" style="fill-opacity: 0; stroke: #000000; stroke-opacity: 0.75"/>
     <use xlink:href="#m5995857459" x="237.41974" y="162.780198" style="fill-opacity: 0; stroke: #000000; stroke-opacity: 0.75"/>
     <use xlink:href="#m5995857459" x="203.494221" y="117.490711" style="fill-opacity: 0; stroke: #000000; stroke-opacity: 0.75"/>
     <use xlink:href="#m5995857459" x="158.647125" y="64.515477" style="fill-opacity: 0; stroke: #000000; stroke-opacity: 0.75"/>
     <use xlink:href="#m5995857459" x="45.94899" y="29.198654" style="fill-opacity: 0; stroke: #000000; stroke-opacity: 0.75"/>
    </g>
   </g>
   <g id="patch_3">
    <path d="M 45.94899 258.62226 
L 45.94899 18.27372 
" style="fill: none; stroke: #000000; stroke-width: 0.8; stroke-linejoin: miter; stroke-linecap: square"/>
   </g>
   <g id="patch_4">
    <path d="M 462.81601 258.62226 
L 462.81601 18.27372 
" style="fill: none; stroke: #000000; stroke-width: 0.8; stroke-linejoin: miter; stroke-linecap: square"/>
   </g>
   <g id="patch_5">
    <path d="M 45.94899 258.62226 
L 462.81601 258.62226 
" style="fill: none; stroke: #000000; stroke-width: 0.8; stroke-linejoin: miter; stroke-linecap: square"/>
   </g>
   <g id="patch_6">
    <path d="M 45.94899 18.27372 
L 462.81601 18.27372 
" style="fill: none; stroke: #000000; stroke-width: 0.8; stroke-linejoin: miter; stroke-linecap: square"/>
   </g>
   <g id="text_13">
    <!-- annualized impacts = 324 impacts  -->
    <g transform="translate(56.868121 172.255906)scale(0.08 -0.08)">
     <defs>
      <path id="Tahoma-6e" d="M 3169 0 
L 2581 0 
L 2581 1988 
Q 2581 2228 2557 2436 
Q 2534 2644 2469 2769 
Q 2397 2900 2269 2964 
Q 2141 3028 1919 3028 
Q 1700 3028 1467 2911 
Q 1234 2794 1013 2606 
L 1013 0 
L 425 0 
L 425 3491 
L 1013 3491 
L 1013 3103 
Q 1275 3338 1531 3463 
Q 1788 3588 2072 3588 
Q 2588 3588 2878 3248 
Q 3169 2909 3169 2266 
L 3169 0 
z
" transform="scale(0.015625)"/>
      <path id="Tahoma-75" d="M 3144 0 
L 2556 0 
L 2556 388 
Q 2284 150 2040 26 
Q 1797 -97 1497 -97 
Q 1269 -97 1067 -22 
Q 866 53 716 216 
Q 566 378 483 625 
Q 400 872 400 1225 
L 400 3491 
L 988 3491 
L 988 1503 
Q 988 1225 1008 1042 
Q 1028 859 1100 722 
Q 1172 588 1295 525 
Q 1419 463 1650 463 
Q 1866 463 2109 584 
Q 2353 706 2556 884 
L 2556 3491 
L 3144 3491 
L 3144 0 
z
" transform="scale(0.015625)"/>
      <path id="Tahoma-6c" d="M 1025 0 
L 438 0 
L 438 4863 
L 1025 4863 
L 1025 0 
z
" transform="scale(0.015625)"/>
      <path id="Tahoma-7a" d="M 2719 0 
L 153 0 
L 153 434 
L 1978 3006 
L 228 3006 
L 228 3491 
L 2684 3491 
L 2684 3072 
L 850 491 
L 2719 491 
L 2719 0 
z
" transform="scale(0.015625)"/>
      <path id="Tahoma-65" d="M 1941 -81 
Q 1106 -81 645 389 
Q 184 859 184 1725 
Q 184 2578 631 3083 
Q 1078 3588 1800 3588 
Q 2125 3588 2375 3494 
Q 2625 3400 2813 3200 
Q 3000 3000 3100 2711 
Q 3200 2422 3200 2003 
L 3200 1684 
L 781 1684 
Q 781 1075 1087 753 
Q 1394 431 1934 431 
Q 2128 431 2314 475 
Q 2500 519 2650 588 
Q 2809 659 2918 726 
Q 3028 794 3100 853 
L 3134 853 
L 3134 213 
Q 3031 172 2878 111 
Q 2725 50 2603 16 
Q 2431 -31 2292 -56 
Q 2153 -81 1941 -81 
z
M 2628 2134 
Q 2622 2372 2572 2544 
Q 2522 2716 2428 2834 
Q 2325 2966 2164 3034 
Q 2003 3103 1766 3103 
Q 1531 3103 1367 3033 
Q 1203 2963 1069 2828 
Q 938 2691 869 2523 
Q 800 2356 781 2134 
L 2628 2134 
z
" transform="scale(0.015625)"/>
      <path id="Tahoma-64" d="M 3113 0 
L 2525 0 
L 2525 356 
Q 2388 241 2288 166 
Q 2188 91 2053 28 
Q 1928 -31 1793 -64 
Q 1659 -97 1481 -97 
Q 1197 -97 955 22 
Q 713 141 544 369 
Q 372 600 278 939 
Q 184 1278 184 1719 
Q 184 2178 303 2514 
Q 422 2850 631 3100 
Q 822 3328 1092 3458 
Q 1363 3588 1659 3588 
Q 1922 3588 2115 3530 
Q 2309 3472 2525 3350 
L 2525 4863 
L 3113 4863 
L 3113 0 
z
M 2525 850 
L 2525 2863 
Q 2306 2969 2132 3009 
Q 1959 3050 1756 3050 
Q 1303 3050 1047 2711 
Q 791 2372 791 1731 
Q 791 1116 987 789 
Q 1184 463 1619 463 
Q 1850 463 2084 567 
Q 2319 672 2525 850 
z
" transform="scale(0.015625)"/>
      <path id="Tahoma-20" transform="scale(0.015625)"/>
      <path id="Tahoma-3d" d="M 4056 2444 
L 600 2444 
L 600 2944 
L 4056 2944 
L 4056 2444 
z
M 4056 1131 
L 600 1131 
L 600 1631 
L 4056 1631 
L 4056 1131 
z
" transform="scale(0.015625)"/>
      <path id="Tahoma-33" d="M 1597 4209 
Q 1428 4209 1259 4168 
Q 1091 4128 928 4063 
Q 778 4000 667 3931 
Q 556 3863 469 3803 
L 431 3803 
L 431 4463 
Q 634 4572 982 4661 
Q 1331 4750 1647 4750 
Q 1963 4750 2198 4686 
Q 2434 4622 2625 4488 
Q 2831 4338 2936 4125 
Q 3041 3913 3041 3628 
Q 3041 3244 2787 2953 
Q 2534 2663 2181 2584 
L 2181 2541 
Q 2328 2513 2495 2444 
Q 2663 2375 2806 2241 
Q 2950 2106 3040 1895 
Q 3131 1684 3131 1381 
Q 3131 1066 3023 802 
Q 2916 538 2719 334 
Q 2516 122 2228 12 
Q 1941 -97 1575 -97 
Q 1225 -97 881 -12 
Q 538 72 303 191 
L 303 850 
L 347 850 
Q 544 706 875 575 
Q 1206 444 1538 444 
Q 1728 444 1920 505 
Q 2113 566 2241 703 
Q 2366 841 2431 1006 
Q 2497 1172 2497 1425 
Q 2497 1678 2423 1840 
Q 2350 2003 2219 2097 
Q 2088 2191 1908 2227 
Q 1728 2263 1519 2263 
L 1253 2263 
L 1253 2781 
L 1459 2781 
Q 1881 2781 2145 2981 
Q 2409 3181 2409 3563 
Q 2409 3738 2340 3864 
Q 2272 3991 2166 4066 
Q 2047 4147 1903 4178 
Q 1759 4209 1597 4209 
z
" transform="scale(0.015625)"/>
     </defs>
     <use xlink:href="#Tahoma-61"/>
     <use xlink:href="#Tahoma-6e" x="52.490234"/>
     <use xlink:href="#Tahoma-6e" x="108.251953"/>
     <use xlink:href="#Tahoma-75" x="164.013672"/>
     <use xlink:href="#Tahoma-61" x="219.775391"/>
     <use xlink:href="#Tahoma-6c" x="272.265625"/>
     <use xlink:href="#Tahoma-69" x="295.242188"/>
     <use xlink:href="#Tahoma-7a" x="318.09375"/>
     <use xlink:href="#Tahoma-65" x="362.027344"/>
     <use xlink:href="#Tahoma-64" x="414.664062"/>
     <use xlink:href="#Tahoma-20" x="469.9375"/>
     <use xlink:href="#Tahoma-69" x="501.1875"/>
     <use xlink:href="#Tahoma-6d" x="524.039062"/>
     <use xlink:href="#Tahoma-70" x="608.023438"/>
     <use xlink:href="#Tahoma-61" x="663.296875"/>
     <use xlink:href="#Tahoma-63" x="715.787109"/>
     <use xlink:href="#Tahoma-74" x="761.929688"/>
     <use xlink:href="#Tahoma-73" x="795.376953"/>
     <use xlink:href="#Tahoma-20" x="840.005859"/>
     <use xlink:href="#Tahoma-3d" x="871.255859"/>
     <use xlink:href="#Tahoma-20" x="944.009766"/>
     <use xlink:href="#Tahoma-33" x="975.259766"/>
     <use xlink:href="#Tahoma-32" x="1029.849609"/>
     <use xlink:href="#Tahoma-34" x="1084.439453"/>
     <use xlink:href="#Tahoma-20" x="1139.029297"/>
     <use xlink:href="#Tahoma-69" x="1170.279297"/>
     <use xlink:href="#Tahoma-6d" x="1193.130859"/>
     <use xlink:href="#Tahoma-70" x="1277.115234"/>
     <use xlink:href="#Tahoma-61" x="1332.388672"/>
     <use xlink:href="#Tahoma-63" x="1384.878906"/>
     <use xlink:href="#Tahoma-74" x="1431.021484"/>
     <use xlink:href="#Tahoma-73" x="1464.46875"/>
     <use xlink:href="#Tahoma-20" x="1509.097656"/>
    </g>
    <!-- ltail='extrapolate'  -->
    <g transform="translate(56.868121 181.160406)scale(0.08 -0.08)">
     <defs>
      <path id="Tahoma-27" d="M 1022 4863 
L 888 3053 
L 463 3053 
L 328 4863 
L 1022 4863 
z
" transform="scale(0.015625)"/>
      <path id="Tahoma-78" d="M 3138 0 
L 2416 0 
L 1569 1319 
L 697 0 
L 31 0 
L 1244 1731 
L 44 3491 
L 766 3491 
L 1606 2184 
L 2469 3491 
L 3138 3491 
L 1931 1772 
L 3138 0 
z
" transform="scale(0.015625)"/>
      <path id="Tahoma-72" d="M 2275 2859 
L 2244 2859 
Q 2178 2878 2104 2883 
Q 2031 2888 1928 2888 
Q 1691 2888 1456 2784 
Q 1222 2681 1013 2478 
L 1013 0 
L 425 0 
L 425 3491 
L 1013 3491 
L 1013 2972 
Q 1334 3256 1573 3373 
Q 1813 3491 2038 3491 
Q 2128 3491 2173 3486 
Q 2219 3481 2275 3472 
L 2275 2859 
z
" transform="scale(0.015625)"/>
      <path id="Tahoma-6f" d="M 3297 1744 
Q 3297 863 2872 383 
Q 2447 -97 1741 -97 
Q 1013 -97 595 398 
Q 178 894 178 1744 
Q 178 2619 608 3103 
Q 1038 3588 1741 3588 
Q 2447 3588 2872 3105 
Q 3297 2622 3297 1744 
z
M 2691 1744 
Q 2691 2422 2444 2751 
Q 2197 3081 1741 3081 
Q 1281 3081 1032 2751 
Q 784 2422 784 1744 
Q 784 1088 1032 748 
Q 1281 409 1741 409 
Q 2194 409 2442 742 
Q 2691 1075 2691 1744 
z
" transform="scale(0.015625)"/>
     </defs>
     <use xlink:href="#Tahoma-6c"/>
     <use xlink:href="#Tahoma-74" x="23.101562"/>
     <use xlink:href="#Tahoma-61" x="56.548828"/>
     <use xlink:href="#Tahoma-69" x="109.039062"/>
     <use xlink:href="#Tahoma-6c" x="132.015625"/>
     <use xlink:href="#Tahoma-3d" x="154.867188"/>
     <use xlink:href="#Tahoma-27" x="227.621094"/>
     <use xlink:href="#Tahoma-65" x="248.714844"/>
     <use xlink:href="#Tahoma-78" x="301.351562"/>
     <use xlink:href="#Tahoma-74" x="350.863281"/>
     <use xlink:href="#Tahoma-72" x="384.310547"/>
     <use xlink:href="#Tahoma-61" x="418.595703"/>
     <use xlink:href="#Tahoma-70" x="471.085938"/>
     <use xlink:href="#Tahoma-6f" x="526.359375"/>
     <use xlink:href="#Tahoma-6c" x="580.65625"/>
     <use xlink:href="#Tahoma-61" x="603.507812"/>
     <use xlink:href="#Tahoma-74" x="655.998047"/>
     <use xlink:href="#Tahoma-65" x="689.445312"/>
     <use xlink:href="#Tahoma-27" x="742.082031"/>
     <use xlink:href="#Tahoma-20" x="763.175781"/>
    </g>
    <!-- rtail='0.2' -->
    <g transform="translate(56.868121 190.064906)scale(0.08 -0.08)">
     <defs>
      <path id="Tahoma-2e" d="M 1341 0 
L 594 0 
L 594 891 
L 1341 891 
L 1341 0 
z
" transform="scale(0.015625)"/>
     </defs>
     <use xlink:href="#Tahoma-72"/>
     <use xlink:href="#Tahoma-74" x="36.035156"/>
     <use xlink:href="#Tahoma-61" x="69.482422"/>
     <use xlink:href="#Tahoma-69" x="121.972656"/>
     <use xlink:href="#Tahoma-6c" x="144.949219"/>
     <use xlink:href="#Tahoma-3d" x="167.800781"/>
     <use xlink:href="#Tahoma-27" x="240.554688"/>
     <use xlink:href="#Tahoma-30" x="261.648438"/>
     <use xlink:href="#Tahoma-2e" x="316.238281"/>
     <use xlink:href="#Tahoma-32" x="346.511719"/>
     <use xlink:href="#Tahoma-27" x="401.101562"/>
    </g>
    <!-- assets = 17691 -->
    <g transform="translate(56.868121 198.969406)scale(0.08 -0.08)">
     <defs>
      <path id="Tahoma-37" d="M 3263 3956 
L 1250 0 
L 584 0 
L 2716 4106 
L 309 4106 
L 309 4653 
L 3263 4653 
L 3263 3956 
z
" transform="scale(0.015625)"/>
      <path id="Tahoma-39" d="M 2600 2741 
Q 2600 3216 2512 3514 
Q 2425 3813 2272 3975 
Q 2134 4125 1993 4181 
Q 1853 4238 1684 4238 
Q 1300 4238 1072 3963 
Q 844 3688 844 3166 
Q 844 2872 919 2681 
Q 994 2491 1163 2353 
Q 1281 2256 1431 2223 
Q 1581 2191 1753 2191 
Q 1953 2191 2184 2261 
Q 2416 2331 2588 2447 
Q 2591 2494 2595 2570 
Q 2600 2647 2600 2741 
z
M 209 3141 
Q 209 3500 326 3797 
Q 444 4094 647 4309 
Q 841 4516 1120 4631 
Q 1400 4747 1688 4747 
Q 2009 4747 2270 4639 
Q 2531 4531 2722 4328 
Q 2963 4072 3095 3656 
Q 3228 3241 3228 2606 
Q 3228 2028 3098 1511 
Q 2969 994 2716 653 
Q 2447 291 2070 100 
Q 1694 -91 1141 -91 
Q 1016 -91 875 -77 
Q 734 -63 613 -25 
L 613 572 
L 644 572 
Q 722 528 887 487 
Q 1053 447 1225 447 
Q 1838 447 2188 850 
Q 2538 1253 2584 2003 
Q 2334 1834 2107 1756 
Q 1881 1678 1616 1678 
Q 1356 1678 1143 1734 
Q 931 1791 716 1953 
Q 466 2144 337 2436 
Q 209 2728 209 3141 
z
" transform="scale(0.015625)"/>
     </defs>
     <use xlink:href="#Tahoma-61"/>
     <use xlink:href="#Tahoma-73" x="52.490234"/>
     <use xlink:href="#Tahoma-73" x="97.119141"/>
     <use xlink:href="#Tahoma-65" x="141.748047"/>
     <use xlink:href="#Tahoma-74" x="194.384766"/>
     <use xlink:href="#Tahoma-73" x="227.832031"/>
     <use xlink:href="#Tahoma-20" x="272.460938"/>
     <use xlink:href="#Tahoma-3d" x="303.710938"/>
     <use xlink:href="#Tahoma-20" x="376.464844"/>
     <use xlink:href="#Tahoma-31" x="407.714844"/>
     <use xlink:href="#Tahoma-37" x="462.304688"/>
     <use xlink:href="#Tahoma-36" x="516.894531"/>
     <use xlink:href="#Tahoma-39" x="571.484375"/>
     <use xlink:href="#Tahoma-31" x="626.074219"/>
    </g>
    <!-- event_rels = 'mutEx' -->
    <g transform="translate(56.868121 207.873906)scale(0.08 -0.08)">
     <defs>
      <path id="Tahoma-76" d="M 3169 3491 
L 1853 0 
L 1325 0 
L 19 3491 
L 653 3491 
L 1609 797 
L 2556 3491 
L 3169 3491 
z
" transform="scale(0.015625)"/>
      <path id="Tahoma-5f" d="M 3544 -938 
L -50 -938 
L -50 -531 
L 3544 -531 
L 3544 -938 
z
" transform="scale(0.015625)"/>
      <path id="Tahoma-45" d="M 472 0 
L 472 4653 
L 3381 4653 
L 3381 4103 
L 1091 4103 
L 1091 2828 
L 3225 2828 
L 3225 2278 
L 1091 2278 
L 1091 550 
L 3381 550 
L 3381 0 
L 472 0 
z
" transform="scale(0.015625)"/>
     </defs>
     <use xlink:href="#Tahoma-65"/>
     <use xlink:href="#Tahoma-76" x="52.636719"/>
     <use xlink:href="#Tahoma-65" x="101.691406"/>
     <use xlink:href="#Tahoma-6e" x="154.328125"/>
     <use xlink:href="#Tahoma-74" x="210.089844"/>
     <use xlink:href="#Tahoma-5f" x="243.537109"/>
     <use xlink:href="#Tahoma-72" x="298.126953"/>
     <use xlink:href="#Tahoma-65" x="333.662109"/>
     <use xlink:href="#Tahoma-6c" x="386.298828"/>
     <use xlink:href="#Tahoma-73" x="409.150391"/>
     <use xlink:href="#Tahoma-20" x="453.779297"/>
     <use xlink:href="#Tahoma-3d" x="485.029297"/>
     <use xlink:href="#Tahoma-20" x="557.783203"/>
     <use xlink:href="#Tahoma-27" x="589.033203"/>
     <use xlink:href="#Tahoma-6d" x="610.126953"/>
     <use xlink:href="#Tahoma-75" x="694.111328"/>
     <use xlink:href="#Tahoma-74" x="749.873047"/>
     <use xlink:href="#Tahoma-45" x="783.320312"/>
     <use xlink:href="#Tahoma-78" x="839.423828"/>
     <use xlink:href="#Tahoma-27" x="888.935547"/>
    </g>
    <!-- prec = 3  -->
    <g transform="translate(56.868121 216.778406)scale(0.08 -0.08)">
     <use xlink:href="#Tahoma-70"/>
     <use xlink:href="#Tahoma-72" x="55.273438"/>
     <use xlink:href="#Tahoma-65" x="90.808594"/>
     <use xlink:href="#Tahoma-63" x="143.445312"/>
     <use xlink:href="#Tahoma-20" x="189.587891"/>
     <use xlink:href="#Tahoma-3d" x="220.837891"/>
     <use xlink:href="#Tahoma-20" x="293.591797"/>
     <use xlink:href="#Tahoma-33" x="324.841797"/>
     <use xlink:href="#Tahoma-20" x="379.431641"/>
    </g>
    <!-- max_fails=0  -->
    <g transform="translate(56.868121 225.682906)scale(0.08 -0.08)">
     <defs>
      <path id="Tahoma-66" d="M 2263 4300 
L 2231 4300 
Q 2153 4328 2006 4354 
Q 1859 4381 1744 4381 
Q 1372 4381 1214 4214 
Q 1056 4047 1056 3609 
L 1056 3491 
L 2028 3491 
L 2028 3003 
L 1075 3003 
L 1075 0 
L 488 0 
L 488 3003 
L 91 3003 
L 91 3491 
L 488 3491 
L 488 3606 
Q 488 4238 791 4566 
Q 1094 4894 1659 4894 
Q 1822 4894 1978 4876 
Q 2134 4859 2263 4838 
L 2263 4300 
z
" transform="scale(0.015625)"/>
     </defs>
     <use xlink:href="#Tahoma-6d"/>
     <use xlink:href="#Tahoma-61" x="83.984375"/>
     <use xlink:href="#Tahoma-78" x="136.474609"/>
     <use xlink:href="#Tahoma-5f" x="185.986328"/>
     <use xlink:href="#Tahoma-66" x="240.576172"/>
     <use xlink:href="#Tahoma-61" x="271.162109"/>
     <use xlink:href="#Tahoma-69" x="323.652344"/>
     <use xlink:href="#Tahoma-6c" x="346.628906"/>
     <use xlink:href="#Tahoma-73" x="369.480469"/>
     <use xlink:href="#Tahoma-3d" x="414.109375"/>
     <use xlink:href="#Tahoma-30" x="486.863281"/>
     <use xlink:href="#Tahoma-20" x="541.453125"/>
    </g>
    <!-- date=2023-03-24 16:46 -->
    <g transform="translate(56.868121 234.587406)scale(0.08 -0.08)">
     <defs>
      <path id="Tahoma-2d" d="M 2044 1753 
L 281 1753 
L 281 2319 
L 2044 2319 
L 2044 1753 
z
" transform="scale(0.015625)"/>
      <path id="Tahoma-3a" d="M 1506 2600 
L 759 2600 
L 759 3491 
L 1506 3491 
L 1506 2600 
z
M 1506 0 
L 759 0 
L 759 891 
L 1506 891 
L 1506 0 
z
" transform="scale(0.015625)"/>
     </defs>
     <use xlink:href="#Tahoma-64"/>
     <use xlink:href="#Tahoma-61" x="55.273438"/>
     <use xlink:href="#Tahoma-74" x="107.763672"/>
     <use xlink:href="#Tahoma-65" x="141.210938"/>
     <use xlink:href="#Tahoma-3d" x="193.847656"/>
     <use xlink:href="#Tahoma-32" x="266.601562"/>
     <use xlink:href="#Tahoma-30" x="321.191406"/>
     <use xlink:href="#Tahoma-32" x="375.78125"/>
     <use xlink:href="#Tahoma-33" x="430.371094"/>
     <use xlink:href="#Tahoma-2d" x="484.960938"/>
     <use xlink:href="#Tahoma-30" x="521.289062"/>
     <use xlink:href="#Tahoma-33" x="575.878906"/>
     <use xlink:href="#Tahoma-2d" x="630.46875"/>
     <use xlink:href="#Tahoma-32" x="666.796875"/>
     <use xlink:href="#Tahoma-34" x="721.386719"/>
     <use xlink:href="#Tahoma-20" x="775.976562"/>
     <use xlink:href="#Tahoma-31" x="807.226562"/>
     <use xlink:href="#Tahoma-36" x="861.816406"/>
     <use xlink:href="#Tahoma-3a" x="916.40625"/>
     <use xlink:href="#Tahoma-34" x="951.757812"/>
     <use xlink:href="#Tahoma-36" x="1006.347656"/>
    </g>
   </g>
   <g id="legend_1">
    <g id="patch_7">
     <path d="M 394.69601 36.40122 
L 457.21601 36.40122 
Q 458.81601 36.40122 458.81601 34.80122 
L 458.81601 23.87372 
Q 458.81601 22.27372 457.21601 22.27372 
L 394.69601 22.27372 
Q 393.09601 22.27372 393.09601 23.87372 
L 393.09601 34.80122 
Q 393.09601 36.40122 394.69601 36.40122 
z
" style="fill: #ffffff; opacity: 0.8; stroke: #cccccc; stroke-linejoin: miter"/>
    </g>
    <g id="line2d_50">
     <path d="M 396.29601 28.79122 
L 404.29601 28.79122 
L 412.29601 28.79122 
" style="fill: none; stroke-dasharray: 12.8,3.2,2,3.2; stroke-dashoffset: 0; stroke: #000000; stroke-opacity: 0.75; stroke-width: 2"/>
     <g>
      <use xlink:href="#m5995857459" x="404.29601" y="28.79122" style="fill-opacity: 0; stroke: #000000; stroke-opacity: 0.75"/>
     </g>
    </g>
    <g id="text_14">
     <!-- ppl.afct.sA -->
     <g transform="translate(418.69601 31.59122)scale(0.08 -0.08)">
      <use xlink:href="#Tahoma-70"/>
      <use xlink:href="#Tahoma-70" x="55.273438"/>
      <use xlink:href="#Tahoma-6c" x="110.546875"/>
      <use xlink:href="#Tahoma-2e" x="133.398438"/>
      <use xlink:href="#Tahoma-61" x="163.671875"/>
      <use xlink:href="#Tahoma-66" x="216.162109"/>
      <use xlink:href="#Tahoma-63" x="246.998047"/>
      <use xlink:href="#Tahoma-74" x="293.140625"/>
      <use xlink:href="#Tahoma-2e" x="326.587891"/>
      <use xlink:href="#Tahoma-73" x="356.861328"/>
      <use xlink:href="#Tahoma-41" x="401.490234"/>
     </g>
    </g>
   </g>
  </g>
  <g id="text_15">
   <!-- ppl.afct.sA r6 Impacts-ARI plot for 6 events -->
   <g transform="translate(142.04775 10.34124)scale(0.096 -0.096)">
    <use xlink:href="#Tahoma-70"/>
    <use xlink:href="#Tahoma-70" x="55.273438"/>
    <use xlink:href="#Tahoma-6c" x="110.546875"/>
    <use xlink:href="#Tahoma-2e" x="133.398438"/>
    <use xlink:href="#Tahoma-61" x="163.671875"/>
    <use xlink:href="#Tahoma-66" x="216.162109"/>
    <use xlink:href="#Tahoma-63" x="246.998047"/>
    <use xlink:href="#Tahoma-74" x="293.140625"/>
    <use xlink:href="#Tahoma-2e" x="326.587891"/>
    <use xlink:href="#Tahoma-73" x="356.861328"/>
    <use xlink:href="#Tahoma-41" x="401.490234"/>
    <use xlink:href="#Tahoma-20" x="461.451172"/>
    <use xlink:href="#Tahoma-72" x="492.701172"/>
    <use xlink:href="#Tahoma-36" x="528.736328"/>
    <use xlink:href="#Tahoma-20" x="583.326172"/>
    <use xlink:href="#Tahoma-49" x="614.576172"/>
    <use xlink:href="#Tahoma-6d" x="651.380859"/>
    <use xlink:href="#Tahoma-70" x="735.365234"/>
    <use xlink:href="#Tahoma-61" x="790.638672"/>
    <use xlink:href="#Tahoma-63" x="843.128906"/>
    <use xlink:href="#Tahoma-74" x="889.271484"/>
    <use xlink:href="#Tahoma-73" x="922.71875"/>
    <use xlink:href="#Tahoma-2d" x="967.347656"/>
    <use xlink:href="#Tahoma-41" x="1001.425781"/>
    <use xlink:href="#Tahoma-52" x="1061.386719"/>
    <use xlink:href="#Tahoma-49" x="1123.447266"/>
    <use xlink:href="#Tahoma-20" x="1160.751953"/>
    <use xlink:href="#Tahoma-70" x="1192.001953"/>
    <use xlink:href="#Tahoma-6c" x="1247.275391"/>
    <use xlink:href="#Tahoma-6f" x="1270.126953"/>
    <use xlink:href="#Tahoma-74" x="1324.423828"/>
    <use xlink:href="#Tahoma-20" x="1357.871094"/>
    <use xlink:href="#Tahoma-66" x="1389.121094"/>
    <use xlink:href="#Tahoma-6f" x="1419.957031"/>
    <use xlink:href="#Tahoma-72" x="1474.253906"/>
    <use xlink:href="#Tahoma-20" x="1510.289062"/>
    <use xlink:href="#Tahoma-36" x="1541.539062"/>
    <use xlink:href="#Tahoma-20" x="1596.128906"/>
    <use xlink:href="#Tahoma-65" x="1627.378906"/>
    <use xlink:href="#Tahoma-76" x="1680.015625"/>
    <use xlink:href="#Tahoma-65" x="1729.070312"/>
    <use xlink:href="#Tahoma-6e" x="1781.707031"/>
    <use xlink:href="#Tahoma-74" x="1837.46875"/>
    <use xlink:href="#Tahoma-73" x="1870.916016"/>
   </g>
  </g>
 </g>
 <defs>
  <clipPath id="p2ea898bfb8">
   <rect x="45.94899" y="18.27372" width="416.86702" height="240.34854"/>
  </clipPath>
 </defs>
</svg>
