<?xml version="1.0" encoding="utf-8" standalone="no"?>
<!DOCTYPE svg PUBLIC "-//W3C//DTD SVG 1.1//EN"
  "http://www.w3.org/Graphics/SVG/1.1/DTD/svg11.dtd">
<svg xmlns:xlink="http://www.w3.org/1999/xlink" width="468pt" height="288pt" viewBox="0 0 468 288" xmlns="http://www.w3.org/2000/svg" version="1.1">
 <metadata>
  <rdf:RDF xmlns:dc="http://purl.org/dc/elements/1.1/" xmlns:cc="http://creativecommons.org/ns#" xmlns:rdf="http://www.w3.org/1999/02/22-rdf-syntax-ns#">
   <cc:Work>
    <dc:type rdf:resource="http://purl.org/dc/dcmitype/StillImage"/>
    <dc:date>2023-03-26T07:50:42.119541</dc:date>
    <dc:format>image/svg+xml</dc:format>
    <dc:creator>
     <cc:Agent>
      <dc:title>Matplotlib v3.5.1, https://matplotlib.org/</dc:title>
     </cc:Agent>
    </dc:creator>
   </cc:Work>
  </rdf:RDF>
 </metadata>
 <defs>
  <style type="text/css">*{stroke-linejoin: round; stroke-linecap: butt}</style>
 </defs>
 <g id="figure_1">
  <g id="patch_1">
   <path d="M 0 288 
L 468 288 
L 468 0 
L 0 0 
L 0 288 
z
" style="fill: none"/>
  </g>
  <g id="axes_1">
   <g id="patch_2">
    <path d="M 43.52649 258.62226 
L 464.99976 258.62226 
L 464.99976 22.111512 
L 43.52649 22.111512 
L 43.52649 258.62226 
z
" style="fill: none"/>
   </g>
   <g id="patch_3">
    <path d="M 62.684366 258.62226 
L 66.76051 258.62226 
L 66.76051 33.373929 
L 62.684366 33.373929 
z
" clip-path="url(#pb6b8c54183)" style="fill: #1f77b4; opacity: 0.9"/>
   </g>
   <g id="patch_4">
    <path d="M 83.065085 258.62226 
L 87.141229 258.62226 
L 87.141229 258.62226 
L 83.065085 258.62226 
z
" clip-path="url(#pb6b8c54183)" style="fill: #1f77b4; opacity: 0.9"/>
   </g>
   <g id="patch_5">
    <path d="M 103.445804 258.62226 
L 107.521948 258.62226 
L 107.521948 258.62226 
L 103.445804 258.62226 
z
" clip-path="url(#pb6b8c54183)" style="fill: #1f77b4; opacity: 0.9"/>
   </g>
   <g id="patch_6">
    <path d="M 123.826523 258.62226 
L 127.902667 258.62226 
L 127.902667 258.62226 
L 123.826523 258.62226 
z
" clip-path="url(#pb6b8c54183)" style="fill: #1f77b4; opacity: 0.9"/>
   </g>
   <g id="patch_7">
    <path d="M 144.207242 258.62226 
L 148.283386 258.62226 
L 148.283386 258.62226 
L 144.207242 258.62226 
z
" clip-path="url(#pb6b8c54183)" style="fill: #1f77b4; opacity: 0.9"/>
   </g>
   <g id="patch_8">
    <path d="M 164.587961 258.62226 
L 168.664105 258.62226 
L 168.664105 258.62226 
L 164.587961 258.62226 
z
" clip-path="url(#pb6b8c54183)" style="fill: #1f77b4; opacity: 0.9"/>
   </g>
   <g id="patch_9">
    <path d="M 184.96868 258.62226 
L 189.044824 258.62226 
L 189.044824 258.360058 
L 184.96868 258.360058 
z
" clip-path="url(#pb6b8c54183)" style="fill: #1f77b4; opacity: 0.9"/>
   </g>
   <g id="patch_10">
    <path d="M 205.349399 258.62226 
L 209.425543 258.62226 
L 209.425543 258.62226 
L 205.349399 258.62226 
z
" clip-path="url(#pb6b8c54183)" style="fill: #1f77b4; opacity: 0.9"/>
   </g>
   <g id="patch_11">
    <path d="M 225.730118 258.62226 
L 229.806262 258.62226 
L 229.806262 258.62226 
L 225.730118 258.62226 
z
" clip-path="url(#pb6b8c54183)" style="fill: #1f77b4; opacity: 0.9"/>
   </g>
   <g id="patch_12">
    <path d="M 246.110837 258.62226 
L 250.186981 258.62226 
L 250.186981 258.587873 
L 246.110837 258.587873 
z
" clip-path="url(#pb6b8c54183)" style="fill: #1f77b4; opacity: 0.9"/>
   </g>
   <g id="patch_13">
    <path d="M 266.491556 258.62226 
L 270.5677 258.62226 
L 270.5677 258.62226 
L 266.491556 258.62226 
z
" clip-path="url(#pb6b8c54183)" style="fill: #1f77b4; opacity: 0.9"/>
   </g>
   <g id="patch_14">
    <path d="M 286.872275 258.62226 
L 290.948419 258.62226 
L 290.948419 258.62226 
L 286.872275 258.62226 
z
" clip-path="url(#pb6b8c54183)" style="fill: #1f77b4; opacity: 0.9"/>
   </g>
   <g id="patch_15">
    <path d="M 307.252995 258.62226 
L 311.329138 258.62226 
L 311.329138 258.433131 
L 307.252995 258.433131 
z
" clip-path="url(#pb6b8c54183)" style="fill: #1f77b4; opacity: 0.9"/>
   </g>
   <g id="patch_16">
    <path d="M 327.633714 258.62226 
L 331.709857 258.62226 
L 331.709857 258.62226 
L 327.633714 258.62226 
z
" clip-path="url(#pb6b8c54183)" style="fill: #1f77b4; opacity: 0.9"/>
   </g>
   <g id="patch_17">
    <path d="M 348.014433 258.62226 
L 352.090576 258.62226 
L 352.090576 258.62226 
L 348.014433 258.62226 
z
" clip-path="url(#pb6b8c54183)" style="fill: #1f77b4; opacity: 0.9"/>
   </g>
   <g id="patch_18">
    <path d="M 368.395152 258.62226 
L 372.471296 258.62226 
L 372.471296 258.62226 
L 368.395152 258.62226 
z
" clip-path="url(#pb6b8c54183)" style="fill: #1f77b4; opacity: 0.9"/>
   </g>
   <g id="patch_19">
    <path d="M 388.775871 258.62226 
L 392.852015 258.62226 
L 392.852015 258.62226 
L 388.775871 258.62226 
z
" clip-path="url(#pb6b8c54183)" style="fill: #1f77b4; opacity: 0.9"/>
   </g>
   <g id="patch_20">
    <path d="M 409.15659 258.62226 
L 413.232734 258.62226 
L 413.232734 258.62226 
L 409.15659 258.62226 
z
" clip-path="url(#pb6b8c54183)" style="fill: #1f77b4; opacity: 0.9"/>
   </g>
   <g id="patch_21">
    <path d="M 429.537309 258.62226 
L 433.613453 258.62226 
L 433.613453 257.358534 
L 429.537309 257.358534 
z
" clip-path="url(#pb6b8c54183)" style="fill: #1f77b4; opacity: 0.9"/>
   </g>
   <g id="patch_22">
    <path d="M 66.76051 258.62226 
L 70.836654 258.62226 
L 70.836654 36.180775 
L 66.76051 36.180775 
z
" clip-path="url(#pb6b8c54183)" style="fill: #ff7f0e; opacity: 0.9"/>
   </g>
   <g id="patch_23">
    <path d="M 87.141229 258.62226 
L 91.217373 258.62226 
L 91.217373 258.62226 
L 87.141229 258.62226 
z
" clip-path="url(#pb6b8c54183)" style="fill: #ff7f0e; opacity: 0.9"/>
   </g>
   <g id="patch_24">
    <path d="M 107.521948 258.62226 
L 111.598092 258.62226 
L 111.598092 258.62226 
L 107.521948 258.62226 
z
" clip-path="url(#pb6b8c54183)" style="fill: #ff7f0e; opacity: 0.9"/>
   </g>
   <g id="patch_25">
    <path d="M 127.902667 258.62226 
L 131.978811 258.62226 
L 131.978811 258.62226 
L 127.902667 258.62226 
z
" clip-path="url(#pb6b8c54183)" style="fill: #ff7f0e; opacity: 0.9"/>
   </g>
   <g id="patch_26">
    <path d="M 148.283386 258.62226 
L 152.35953 258.62226 
L 152.35953 258.62226 
L 148.283386 258.62226 
z
" clip-path="url(#pb6b8c54183)" style="fill: #ff7f0e; opacity: 0.9"/>
   </g>
   <g id="patch_27">
    <path d="M 168.664105 258.62226 
L 172.740249 258.62226 
L 172.740249 258.62226 
L 168.664105 258.62226 
z
" clip-path="url(#pb6b8c54183)" style="fill: #ff7f0e; opacity: 0.9"/>
   </g>
   <g id="patch_28">
    <path d="M 189.044824 258.62226 
L 193.120968 258.62226 
L 193.120968 258.145139 
L 189.044824 258.145139 
z
" clip-path="url(#pb6b8c54183)" style="fill: #ff7f0e; opacity: 0.9"/>
   </g>
   <g id="patch_29">
    <path d="M 209.425543 258.62226 
L 213.501687 258.62226 
L 213.501687 258.62226 
L 209.425543 258.62226 
z
" clip-path="url(#pb6b8c54183)" style="fill: #ff7f0e; opacity: 0.9"/>
   </g>
   <g id="patch_30">
    <path d="M 229.806262 258.62226 
L 233.882406 258.62226 
L 233.882406 258.62226 
L 229.806262 258.62226 
z
" clip-path="url(#pb6b8c54183)" style="fill: #ff7f0e; opacity: 0.9"/>
   </g>
   <g id="patch_31">
    <path d="M 250.186981 258.62226 
L 254.263125 258.62226 
L 254.263125 258.574978 
L 250.186981 258.574978 
z
" clip-path="url(#pb6b8c54183)" style="fill: #ff7f0e; opacity: 0.9"/>
   </g>
   <g id="patch_32">
    <path d="M 270.5677 258.62226 
L 274.643844 258.62226 
L 274.643844 258.62226 
L 270.5677 258.62226 
z
" clip-path="url(#pb6b8c54183)" style="fill: #ff7f0e; opacity: 0.9"/>
   </g>
   <g id="patch_33">
    <path d="M 290.948419 258.62226 
L 295.024563 258.62226 
L 295.024563 258.62226 
L 290.948419 258.62226 
z
" clip-path="url(#pb6b8c54183)" style="fill: #ff7f0e; opacity: 0.9"/>
   </g>
   <g id="patch_34">
    <path d="M 311.329138 258.62226 
L 315.405282 258.62226 
L 315.405282 258.239704 
L 311.329138 258.239704 
z
" clip-path="url(#pb6b8c54183)" style="fill: #ff7f0e; opacity: 0.9"/>
   </g>
   <g id="patch_35">
    <path d="M 331.709857 258.62226 
L 335.786001 258.62226 
L 335.786001 258.62226 
L 331.709857 258.62226 
z
" clip-path="url(#pb6b8c54183)" style="fill: #ff7f0e; opacity: 0.9"/>
   </g>
   <g id="patch_36">
    <path d="M 352.090576 258.62226 
L 356.16672 258.62226 
L 356.16672 258.62226 
L 352.090576 258.62226 
z
" clip-path="url(#pb6b8c54183)" style="fill: #ff7f0e; opacity: 0.9"/>
   </g>
   <g id="patch_37">
    <path d="M 372.471296 258.62226 
L 376.547439 258.62226 
L 376.547439 258.62226 
L 372.471296 258.62226 
z
" clip-path="url(#pb6b8c54183)" style="fill: #ff7f0e; opacity: 0.9"/>
   </g>
   <g id="patch_38">
    <path d="M 392.852015 258.62226 
L 396.928158 258.62226 
L 396.928158 258.62226 
L 392.852015 258.62226 
z
" clip-path="url(#pb6b8c54183)" style="fill: #ff7f0e; opacity: 0.9"/>
   </g>
   <g id="patch_39">
    <path d="M 413.232734 258.62226 
L 417.308877 258.62226 
L 417.308877 258.62226 
L 413.232734 258.62226 
z
" clip-path="url(#pb6b8c54183)" style="fill: #ff7f0e; opacity: 0.9"/>
   </g>
   <g id="patch_40">
    <path d="M 433.613453 258.62226 
L 437.689596 258.62226 
L 437.689596 254.97293 
L 433.613453 254.97293 
z
" clip-path="url(#pb6b8c54183)" style="fill: #ff7f0e; opacity: 0.9"/>
   </g>
   <g id="patch_41">
    <path d="M 70.836654 258.62226 
L 74.912797 258.62226 
L 74.912797 39.456145 
L 70.836654 39.456145 
z
" clip-path="url(#pb6b8c54183)" style="fill: #2ca02c; opacity: 0.9"/>
   </g>
   <g id="patch_42">
    <path d="M 91.217373 258.62226 
L 95.293516 258.62226 
L 95.293516 258.62226 
L 91.217373 258.62226 
z
" clip-path="url(#pb6b8c54183)" style="fill: #2ca02c; opacity: 0.9"/>
   </g>
   <g id="patch_43">
    <path d="M 111.598092 258.62226 
L 115.674235 258.62226 
L 115.674235 258.62226 
L 111.598092 258.62226 
z
" clip-path="url(#pb6b8c54183)" style="fill: #2ca02c; opacity: 0.9"/>
   </g>
   <g id="patch_44">
    <path d="M 131.978811 258.62226 
L 136.054954 258.62226 
L 136.054954 258.62226 
L 131.978811 258.62226 
z
" clip-path="url(#pb6b8c54183)" style="fill: #2ca02c; opacity: 0.9"/>
   </g>
   <g id="patch_45">
    <path d="M 152.35953 258.62226 
L 156.435674 258.62226 
L 156.435674 258.62226 
L 152.35953 258.62226 
z
" clip-path="url(#pb6b8c54183)" style="fill: #2ca02c; opacity: 0.9"/>
   </g>
   <g id="patch_46">
    <path d="M 172.740249 258.62226 
L 176.816393 258.62226 
L 176.816393 258.62226 
L 172.740249 258.62226 
z
" clip-path="url(#pb6b8c54183)" style="fill: #2ca02c; opacity: 0.9"/>
   </g>
   <g id="patch_47">
    <path d="M 193.120968 258.62226 
L 197.197112 258.62226 
L 197.197112 257.857147 
L 193.120968 257.857147 
z
" clip-path="url(#pb6b8c54183)" style="fill: #2ca02c; opacity: 0.9"/>
   </g>
   <g id="patch_48">
    <path d="M 213.501687 258.62226 
L 217.577831 258.62226 
L 217.577831 258.62226 
L 213.501687 258.62226 
z
" clip-path="url(#pb6b8c54183)" style="fill: #2ca02c; opacity: 0.9"/>
   </g>
   <g id="patch_49">
    <path d="M 233.882406 258.62226 
L 237.95855 258.62226 
L 237.95855 258.62226 
L 233.882406 258.62226 
z
" clip-path="url(#pb6b8c54183)" style="fill: #2ca02c; opacity: 0.9"/>
   </g>
   <g id="patch_50">
    <path d="M 254.263125 258.62226 
L 258.339269 258.62226 
L 258.339269 258.553486 
L 254.263125 258.553486 
z
" clip-path="url(#pb6b8c54183)" style="fill: #2ca02c; opacity: 0.9"/>
   </g>
   <g id="patch_51">
    <path d="M 274.643844 258.62226 
L 278.719988 258.62226 
L 278.719988 258.62226 
L 274.643844 258.62226 
z
" clip-path="url(#pb6b8c54183)" style="fill: #2ca02c; opacity: 0.9"/>
   </g>
   <g id="patch_52">
    <path d="M 295.024563 258.62226 
L 299.100707 258.62226 
L 299.100707 258.62226 
L 295.024563 258.62226 
z
" clip-path="url(#pb6b8c54183)" style="fill: #2ca02c; opacity: 0.9"/>
   </g>
   <g id="patch_53">
    <path d="M 315.405282 258.62226 
L 319.481426 258.62226 
L 319.481426 258.080663 
L 315.405282 258.080663 
z
" clip-path="url(#pb6b8c54183)" style="fill: #2ca02c; opacity: 0.9"/>
   </g>
   <g id="patch_54">
    <path d="M 335.786001 258.62226 
L 339.862145 258.62226 
L 339.862145 258.62226 
L 335.786001 258.62226 
z
" clip-path="url(#pb6b8c54183)" style="fill: #2ca02c; opacity: 0.9"/>
   </g>
   <g id="patch_55">
    <path d="M 356.16672 258.62226 
L 360.242864 258.62226 
L 360.242864 258.62226 
L 356.16672 258.62226 
z
" clip-path="url(#pb6b8c54183)" style="fill: #2ca02c; opacity: 0.9"/>
   </g>
   <g id="patch_56">
    <path d="M 376.547439 258.62226 
L 380.623583 258.62226 
L 380.623583 258.62226 
L 376.547439 258.62226 
z
" clip-path="url(#pb6b8c54183)" style="fill: #2ca02c; opacity: 0.9"/>
   </g>
   <g id="patch_57">
    <path d="M 396.928158 258.62226 
L 401.004302 258.62226 
L 401.004302 258.62226 
L 396.928158 258.62226 
z
" clip-path="url(#pb6b8c54183)" style="fill: #2ca02c; opacity: 0.9"/>
   </g>
   <g id="patch_58">
    <path d="M 417.308877 258.62226 
L 421.385021 258.62226 
L 421.385021 258.62226 
L 417.308877 258.62226 
z
" clip-path="url(#pb6b8c54183)" style="fill: #2ca02c; opacity: 0.9"/>
   </g>
   <g id="patch_59">
    <path d="M 437.689596 258.62226 
L 441.76574 258.62226 
L 441.76574 252.166084 
L 437.689596 252.166084 
z
" clip-path="url(#pb6b8c54183)" style="fill: #2ca02c; opacity: 0.9"/>
   </g>
   <g id="patch_60">
    <path d="M 74.912797 258.62226 
L 78.988941 258.62226 
L 78.988941 43.096878 
L 74.912797 43.096878 
z
" clip-path="url(#pb6b8c54183)" style="fill: #d62728; opacity: 0.9"/>
   </g>
   <g id="patch_61">
    <path d="M 95.293516 258.62226 
L 99.36966 258.62226 
L 99.36966 258.62226 
L 95.293516 258.62226 
z
" clip-path="url(#pb6b8c54183)" style="fill: #d62728; opacity: 0.9"/>
   </g>
   <g id="patch_62">
    <path d="M 115.674235 258.62226 
L 119.750379 258.62226 
L 119.750379 258.62226 
L 115.674235 258.62226 
z
" clip-path="url(#pb6b8c54183)" style="fill: #d62728; opacity: 0.9"/>
   </g>
   <g id="patch_63">
    <path d="M 136.054954 258.62226 
L 140.131098 258.62226 
L 140.131098 258.62226 
L 136.054954 258.62226 
z
" clip-path="url(#pb6b8c54183)" style="fill: #d62728; opacity: 0.9"/>
   </g>
   <g id="patch_64">
    <path d="M 156.435674 258.62226 
L 160.511817 258.62226 
L 160.511817 258.62226 
L 156.435674 258.62226 
z
" clip-path="url(#pb6b8c54183)" style="fill: #d62728; opacity: 0.9"/>
   </g>
   <g id="patch_65">
    <path d="M 176.816393 258.62226 
L 180.892536 258.62226 
L 180.892536 258.62226 
L 176.816393 258.62226 
z
" clip-path="url(#pb6b8c54183)" style="fill: #d62728; opacity: 0.9"/>
   </g>
   <g id="patch_66">
    <path d="M 197.197112 258.62226 
L 201.273255 258.62226 
L 201.273255 257.457397 
L 197.197112 257.457397 
z
" clip-path="url(#pb6b8c54183)" style="fill: #d62728; opacity: 0.9"/>
   </g>
   <g id="patch_67">
    <path d="M 217.577831 258.62226 
L 221.653975 258.62226 
L 221.653975 258.62226 
L 217.577831 258.62226 
z
" clip-path="url(#pb6b8c54183)" style="fill: #d62728; opacity: 0.9"/>
   </g>
   <g id="patch_68">
    <path d="M 237.95855 258.62226 
L 242.034694 258.62226 
L 242.034694 258.62226 
L 237.95855 258.62226 
z
" clip-path="url(#pb6b8c54183)" style="fill: #d62728; opacity: 0.9"/>
   </g>
   <g id="patch_69">
    <path d="M 258.339269 258.62226 
L 262.415413 258.62226 
L 262.415413 258.510502 
L 258.339269 258.510502 
z
" clip-path="url(#pb6b8c54183)" style="fill: #d62728; opacity: 0.9"/>
   </g>
   <g id="patch_70">
    <path d="M 278.719988 258.62226 
L 282.796132 258.62226 
L 282.796132 258.62226 
L 278.719988 258.62226 
z
" clip-path="url(#pb6b8c54183)" style="fill: #d62728; opacity: 0.9"/>
   </g>
   <g id="patch_71">
    <path d="M 299.100707 258.62226 
L 303.176851 258.62226 
L 303.176851 258.62226 
L 299.100707 258.62226 
z
" clip-path="url(#pb6b8c54183)" style="fill: #d62728; opacity: 0.9"/>
   </g>
   <g id="patch_72">
    <path d="M 319.481426 258.62226 
L 323.55757 258.62226 
L 323.55757 257.77118 
L 319.481426 257.77118 
z
" clip-path="url(#pb6b8c54183)" style="fill: #d62728; opacity: 0.9"/>
   </g>
   <g id="patch_73">
    <path d="M 339.862145 258.62226 
L 343.938289 258.62226 
L 343.938289 258.62226 
L 339.862145 258.62226 
z
" clip-path="url(#pb6b8c54183)" style="fill: #d62728; opacity: 0.9"/>
   </g>
   <g id="patch_74">
    <path d="M 360.242864 258.62226 
L 364.319008 258.62226 
L 364.319008 258.62226 
L 360.242864 258.62226 
z
" clip-path="url(#pb6b8c54183)" style="fill: #d62728; opacity: 0.9"/>
   </g>
   <g id="patch_75">
    <path d="M 380.623583 258.62226 
L 384.699727 258.62226 
L 384.699727 258.62226 
L 380.623583 258.62226 
z
" clip-path="url(#pb6b8c54183)" style="fill: #d62728; opacity: 0.9"/>
   </g>
   <g id="patch_76">
    <path d="M 401.004302 258.62226 
L 405.080446 258.62226 
L 405.080446 258.62226 
L 401.004302 258.62226 
z
" clip-path="url(#pb6b8c54183)" style="fill: #d62728; opacity: 0.9"/>
   </g>
   <g id="patch_77">
    <path d="M 421.385021 258.62226 
L 425.461165 258.62226 
L 425.461165 258.62226 
L 421.385021 258.62226 
z
" clip-path="url(#pb6b8c54183)" style="fill: #d62728; opacity: 0.9"/>
   </g>
   <g id="patch_78">
    <path d="M 441.76574 258.62226 
L 445.841884 258.62226 
L 445.841884 249.277568 
L 441.76574 249.277568 
z
" clip-path="url(#pb6b8c54183)" style="fill: #d62728; opacity: 0.9"/>
   </g>
   <g id="matplotlib.axis_1">
    <g id="xtick_1">
     <g id="line2d_1">
      <path d="M 60.646294 258.62226 
L 60.646294 22.111512 
" clip-path="url(#pb6b8c54183)" style="fill: none; stroke: #b0b0b0; stroke-width: 0.8; stroke-linecap: square"/>
     </g>
     <g id="line2d_2">
      <defs>
       <path id="m09a93b3139" d="M 0 0 
L 0 3.5 
" style="stroke: #000000; stroke-width: 0.8"/>
      </defs>
      <g>
       <use xlink:href="#m09a93b3139" x="60.646294" y="258.62226" style="stroke: #000000; stroke-width: 0.8"/>
      </g>
     </g>
     <g id="text_1">
      <!-- 0.00 -->
      <g transform="translate(52.883794 271.70101)scale(0.08 -0.08)">
       <defs>
        <path id="Tahoma-30" d="M 3234 2328 
Q 3234 1075 2870 489 
Q 2506 -97 1747 -97 
Q 978 -97 618 500 
Q 259 1097 259 2322 
Q 259 3581 623 4164 
Q 988 4747 1747 4747 
Q 2516 4747 2875 4144 
Q 3234 3541 3234 2328 
z
M 2434 909 
Q 2525 1141 2562 1494 
Q 2600 1847 2600 2328 
Q 2600 2806 2562 3159 
Q 2525 3513 2431 3747 
Q 2338 3984 2173 4107 
Q 2009 4231 1747 4231 
Q 1488 4231 1320 4107 
Q 1153 3984 1056 3741 
Q 963 3503 928 3140 
Q 894 2778 894 2322 
Q 894 1834 923 1506 
Q 953 1178 1053 919 
Q 1144 678 1311 548 
Q 1478 419 1747 419 
Q 2006 419 2173 542 
Q 2341 666 2434 909 
z
" transform="scale(0.015625)"/>
        <path id="Tahoma-2e" d="M 1341 0 
L 594 0 
L 594 891 
L 1341 891 
L 1341 0 
z
" transform="scale(0.015625)"/>
       </defs>
       <use xlink:href="#Tahoma-30"/>
       <use xlink:href="#Tahoma-2e" x="54.589844"/>
       <use xlink:href="#Tahoma-30" x="84.863281"/>
       <use xlink:href="#Tahoma-30" x="139.453125"/>
      </g>
     </g>
    </g>
    <g id="xtick_2">
     <g id="line2d_3">
      <path d="M 138.093026 258.62226 
L 138.093026 22.111512 
" clip-path="url(#pb6b8c54183)" style="fill: none; stroke: #b0b0b0; stroke-width: 0.8; stroke-linecap: square"/>
     </g>
     <g id="line2d_4">
      <g>
       <use xlink:href="#m09a93b3139" x="138.093026" y="258.62226" style="stroke: #000000; stroke-width: 0.8"/>
      </g>
     </g>
     <g id="text_2">
      <!-- 0.20 -->
      <g transform="translate(130.330526 271.70101)scale(0.08 -0.08)">
       <defs>
        <path id="Tahoma-32" d="M 3213 0 
L 341 0 
L 341 653 
Q 650 947 925 1215 
Q 1200 1484 1463 1775 
Q 1994 2359 2187 2711 
Q 2381 3063 2381 3438 
Q 2381 3631 2320 3778 
Q 2259 3925 2153 4022 
Q 2044 4116 1900 4162 
Q 1756 4209 1584 4209 
Q 1419 4209 1248 4167 
Q 1078 4125 922 4063 
Q 791 4009 669 3934 
Q 547 3859 472 3806 
L 438 3806 
L 438 4469 
Q 631 4566 976 4658 
Q 1322 4750 1631 4750 
Q 2281 4750 2650 4404 
Q 3019 4059 3019 3469 
Q 3019 3197 2955 2965 
Q 2891 2734 2778 2538 
Q 2663 2334 2500 2134 
Q 2338 1934 2156 1741 
Q 1863 1422 1502 1078 
Q 1141 734 925 534 
L 3213 534 
L 3213 0 
z
" transform="scale(0.015625)"/>
       </defs>
       <use xlink:href="#Tahoma-30"/>
       <use xlink:href="#Tahoma-2e" x="54.589844"/>
       <use xlink:href="#Tahoma-32" x="84.863281"/>
       <use xlink:href="#Tahoma-30" x="139.453125"/>
      </g>
     </g>
    </g>
    <g id="xtick_3">
     <g id="line2d_5">
      <path d="M 215.539759 258.62226 
L 215.539759 22.111512 
" clip-path="url(#pb6b8c54183)" style="fill: none; stroke: #b0b0b0; stroke-width: 0.8; stroke-linecap: square"/>
     </g>
     <g id="line2d_6">
      <g>
       <use xlink:href="#m09a93b3139" x="215.539759" y="258.62226" style="stroke: #000000; stroke-width: 0.8"/>
      </g>
     </g>
     <g id="text_3">
      <!-- 0.40 -->
      <g transform="translate(207.777259 271.70101)scale(0.08 -0.08)">
       <defs>
        <path id="Tahoma-34" d="M 3334 1600 
L 2781 1600 
L 2781 0 
L 2181 0 
L 2181 1600 
L 125 1600 
L 125 2256 
L 2206 4653 
L 2781 4653 
L 2781 2100 
L 3334 2100 
L 3334 1600 
z
M 2181 2100 
L 2181 3919 
L 613 2100 
L 2181 2100 
z
" transform="scale(0.015625)"/>
       </defs>
       <use xlink:href="#Tahoma-30"/>
       <use xlink:href="#Tahoma-2e" x="54.589844"/>
       <use xlink:href="#Tahoma-34" x="84.863281"/>
       <use xlink:href="#Tahoma-30" x="139.453125"/>
      </g>
     </g>
    </g>
    <g id="xtick_4">
     <g id="line2d_7">
      <path d="M 292.986491 258.62226 
L 292.986491 22.111512 
" clip-path="url(#pb6b8c54183)" style="fill: none; stroke: #b0b0b0; stroke-width: 0.8; stroke-linecap: square"/>
     </g>
     <g id="line2d_8">
      <g>
       <use xlink:href="#m09a93b3139" x="292.986491" y="258.62226" style="stroke: #000000; stroke-width: 0.8"/>
      </g>
     </g>
     <g id="text_4">
      <!-- 0.60 -->
      <g transform="translate(285.223991 271.70101)scale(0.08 -0.08)">
       <defs>
        <path id="Tahoma-36" d="M 3284 1509 
Q 3284 1150 3165 847 
Q 3047 544 2847 341 
Q 2638 125 2378 14 
Q 2119 -97 1806 -97 
Q 1491 -97 1233 9 
Q 975 116 778 325 
Q 538 578 402 1001 
Q 266 1425 266 2044 
Q 266 2650 391 3139 
Q 516 3628 775 3991 
Q 1028 4344 1428 4542 
Q 1828 4741 2353 4741 
Q 2509 4741 2643 4725 
Q 2778 4709 2881 4675 
L 2881 4078 
L 2853 4078 
Q 2769 4125 2609 4164 
Q 2450 4203 2269 4203 
Q 1688 4203 1330 3811 
Q 972 3419 906 2647 
Q 1128 2803 1362 2887 
Q 1597 2972 1875 2972 
Q 2147 2972 2351 2917 
Q 2556 2863 2778 2697 
Q 3034 2503 3159 2206 
Q 3284 1909 3284 1509 
z
M 2650 1484 
Q 2650 1772 2575 1965 
Q 2500 2159 2331 2297 
Q 2209 2397 2054 2428 
Q 1900 2459 1738 2459 
Q 1519 2459 1312 2393 
Q 1106 2328 906 2203 
Q 900 2134 897 2070 
Q 894 2006 894 1909 
Q 894 1425 989 1128 
Q 1084 831 1225 678 
Q 1359 531 1501 472 
Q 1644 413 1809 413 
Q 2184 413 2417 681 
Q 2650 950 2650 1484 
z
" transform="scale(0.015625)"/>
       </defs>
       <use xlink:href="#Tahoma-30"/>
       <use xlink:href="#Tahoma-2e" x="54.589844"/>
       <use xlink:href="#Tahoma-36" x="84.863281"/>
       <use xlink:href="#Tahoma-30" x="139.453125"/>
      </g>
     </g>
    </g>
    <g id="xtick_5">
     <g id="line2d_9">
      <path d="M 370.433224 258.62226 
L 370.433224 22.111512 
" clip-path="url(#pb6b8c54183)" style="fill: none; stroke: #b0b0b0; stroke-width: 0.8; stroke-linecap: square"/>
     </g>
     <g id="line2d_10">
      <g>
       <use xlink:href="#m09a93b3139" x="370.433224" y="258.62226" style="stroke: #000000; stroke-width: 0.8"/>
      </g>
     </g>
     <g id="text_5">
      <!-- 0.80 -->
      <g transform="translate(362.670724 271.70101)scale(0.08 -0.08)">
       <defs>
        <path id="Tahoma-38" d="M 2534 3569 
Q 2534 3881 2325 4090 
Q 2116 4300 1744 4300 
Q 1403 4300 1186 4112 
Q 969 3925 969 3606 
Q 969 3375 1080 3215 
Q 1191 3056 1413 2928 
Q 1509 2875 1707 2781 
Q 1906 2688 2069 2634 
Q 2341 2844 2437 3064 
Q 2534 3284 2534 3569 
z
M 2622 1238 
Q 2622 1525 2509 1694 
Q 2397 1863 2075 2038 
Q 1969 2097 1792 2165 
Q 1616 2234 1394 2328 
Q 1134 2156 996 1904 
Q 859 1653 859 1331 
Q 859 909 1114 634 
Q 1369 359 1753 359 
Q 2147 359 2384 595 
Q 2622 831 2622 1238 
z
M 1747 -106 
Q 1400 -106 1115 -3 
Q 831 100 631 294 
Q 434 481 332 739 
Q 231 997 231 1284 
Q 231 1663 432 1980 
Q 634 2297 1019 2484 
L 1019 2503 
Q 675 2703 509 2940 
Q 344 3178 344 3534 
Q 344 4059 741 4409 
Q 1138 4759 1747 4759 
Q 2381 4759 2764 4426 
Q 3147 4094 3147 3575 
Q 3147 3263 2964 2956 
Q 2781 2650 2438 2478 
L 2438 2459 
Q 2844 2269 3053 1997 
Q 3263 1725 3263 1297 
Q 3263 700 2830 297 
Q 2397 -106 1747 -106 
z
" transform="scale(0.015625)"/>
       </defs>
       <use xlink:href="#Tahoma-30"/>
       <use xlink:href="#Tahoma-2e" x="54.589844"/>
       <use xlink:href="#Tahoma-38" x="84.863281"/>
       <use xlink:href="#Tahoma-30" x="139.453125"/>
      </g>
     </g>
    </g>
    <g id="xtick_6">
     <g id="line2d_11">
      <path d="M 447.879956 258.62226 
L 447.879956 22.111512 
" clip-path="url(#pb6b8c54183)" style="fill: none; stroke: #b0b0b0; stroke-width: 0.8; stroke-linecap: square"/>
     </g>
     <g id="line2d_12">
      <g>
       <use xlink:href="#m09a93b3139" x="447.879956" y="258.62226" style="stroke: #000000; stroke-width: 0.8"/>
      </g>
     </g>
     <g id="text_6">
      <!-- 1.00 -->
      <g transform="translate(440.117456 271.70101)scale(0.08 -0.08)">
       <defs>
        <path id="Tahoma-31" d="M 2975 0 
L 706 0 
L 706 475 
L 1550 475 
L 1550 3594 
L 706 3594 
L 706 4019 
Q 1184 4019 1411 4155 
Q 1638 4291 1666 4669 
L 2150 4669 
L 2150 475 
L 2975 475 
L 2975 0 
z
" transform="scale(0.015625)"/>
       </defs>
       <use xlink:href="#Tahoma-31"/>
       <use xlink:href="#Tahoma-2e" x="54.589844"/>
       <use xlink:href="#Tahoma-30" x="84.863281"/>
       <use xlink:href="#Tahoma-30" x="139.453125"/>
      </g>
     </g>
    </g>
    <g id="text_7">
     <!-- raster value -->
     <g transform="translate(233.605 283.38976)scale(0.08 -0.08)">
      <defs>
       <path id="Tahoma-72" d="M 2275 2859 
L 2244 2859 
Q 2178 2878 2104 2883 
Q 2031 2888 1928 2888 
Q 1691 2888 1456 2784 
Q 1222 2681 1013 2478 
L 1013 0 
L 425 0 
L 425 3491 
L 1013 3491 
L 1013 2972 
Q 1334 3256 1573 3373 
Q 1813 3491 2038 3491 
Q 2128 3491 2173 3486 
Q 2219 3481 2275 3472 
L 2275 2859 
z
" transform="scale(0.015625)"/>
       <path id="Tahoma-61" d="M 2375 859 
L 2375 1828 
Q 2166 1809 1845 1776 
Q 1525 1744 1328 1684 
Q 1094 1613 941 1464 
Q 788 1316 788 1050 
Q 788 750 956 597 
Q 1125 444 1450 444 
Q 1728 444 1953 564 
Q 2178 684 2375 859 
z
M 2375 372 
Q 2303 319 2183 223 
Q 2063 128 1950 72 
Q 1794 -9 1648 -53 
Q 1503 -97 1241 -97 
Q 1025 -97 831 -15 
Q 638 66 491 213 
Q 350 356 265 567 
Q 181 778 181 1013 
Q 181 1375 334 1629 
Q 488 1884 819 2034 
Q 1113 2169 1513 2220 
Q 1913 2272 2375 2297 
L 2375 2409 
Q 2375 2616 2312 2742 
Q 2250 2869 2138 2938 
Q 2025 3009 1862 3032 
Q 1700 3056 1528 3056 
Q 1325 3056 1050 2995 
Q 775 2934 500 2819 
L 466 2819 
L 466 3416 
Q 628 3463 931 3519 
Q 1234 3575 1531 3575 
Q 1891 3575 2137 3519 
Q 2384 3463 2581 3316 
Q 2772 3172 2865 2944 
Q 2959 2716 2959 2388 
L 2959 0 
L 2375 0 
L 2375 372 
z
" transform="scale(0.015625)"/>
       <path id="Tahoma-73" d="M 1369 -84 
Q 1019 -84 714 9 
Q 409 103 209 209 
L 209 869 
L 241 869 
Q 316 809 417 737 
Q 519 666 688 588 
Q 838 519 1017 466 
Q 1197 413 1391 413 
Q 1531 413 1690 445 
Q 1850 478 1928 528 
Q 2038 600 2086 681 
Q 2134 763 2134 925 
Q 2134 1134 2020 1240 
Q 1906 1347 1616 1419 
Q 1503 1447 1322 1484 
Q 1141 1522 988 1566 
Q 588 1681 406 1923 
Q 225 2166 225 2509 
Q 225 2981 581 3278 
Q 938 3575 1528 3575 
Q 1819 3575 2112 3503 
Q 2406 3431 2606 3322 
L 2606 2694 
L 2575 2694 
Q 2350 2872 2073 2975 
Q 1797 3078 1516 3078 
Q 1225 3078 1025 2956 
Q 825 2834 825 2588 
Q 825 2369 944 2261 
Q 1063 2153 1325 2084 
Q 1456 2050 1617 2017 
Q 1778 1984 1956 1941 
Q 2344 1844 2539 1619 
Q 2734 1394 2734 1006 
Q 2734 781 2645 579 
Q 2556 378 2384 234 
Q 2197 78 1961 -3 
Q 1725 -84 1369 -84 
z
" transform="scale(0.015625)"/>
       <path id="Tahoma-74" d="M 1481 -69 
Q 1000 -69 731 204 
Q 463 478 463 1069 
L 463 3003 
L 66 3003 
L 66 3491 
L 463 3491 
L 463 4494 
L 1050 4494 
L 1050 3491 
L 2131 3491 
L 2131 3003 
L 1050 3003 
L 1050 1344 
Q 1050 1078 1059 934 
Q 1069 791 1131 666 
Q 1184 556 1303 501 
Q 1422 447 1625 447 
Q 1769 447 1903 489 
Q 2038 531 2097 559 
L 2131 559 
L 2131 31 
Q 1966 -16 1795 -42 
Q 1625 -69 1481 -69 
z
" transform="scale(0.015625)"/>
       <path id="Tahoma-65" d="M 1941 -81 
Q 1106 -81 645 389 
Q 184 859 184 1725 
Q 184 2578 631 3083 
Q 1078 3588 1800 3588 
Q 2125 3588 2375 3494 
Q 2625 3400 2813 3200 
Q 3000 3000 3100 2711 
Q 3200 2422 3200 2003 
L 3200 1684 
L 781 1684 
Q 781 1075 1087 753 
Q 1394 431 1934 431 
Q 2128 431 2314 475 
Q 2500 519 2650 588 
Q 2809 659 2918 726 
Q 3028 794 3100 853 
L 3134 853 
L 3134 213 
Q 3031 172 2878 111 
Q 2725 50 2603 16 
Q 2431 -31 2292 -56 
Q 2153 -81 1941 -81 
z
M 2628 2134 
Q 2622 2372 2572 2544 
Q 2522 2716 2428 2834 
Q 2325 2966 2164 3034 
Q 2003 3103 1766 3103 
Q 1531 3103 1367 3033 
Q 1203 2963 1069 2828 
Q 938 2691 869 2523 
Q 800 2356 781 2134 
L 2628 2134 
z
" transform="scale(0.015625)"/>
       <path id="Tahoma-20" transform="scale(0.015625)"/>
       <path id="Tahoma-76" d="M 3169 3491 
L 1853 0 
L 1325 0 
L 19 3491 
L 653 3491 
L 1609 797 
L 2556 3491 
L 3169 3491 
z
" transform="scale(0.015625)"/>
       <path id="Tahoma-6c" d="M 1025 0 
L 438 0 
L 438 4863 
L 1025 4863 
L 1025 0 
z
" transform="scale(0.015625)"/>
       <path id="Tahoma-75" d="M 3144 0 
L 2556 0 
L 2556 388 
Q 2284 150 2040 26 
Q 1797 -97 1497 -97 
Q 1269 -97 1067 -22 
Q 866 53 716 216 
Q 566 378 483 625 
Q 400 872 400 1225 
L 400 3491 
L 988 3491 
L 988 1503 
Q 988 1225 1008 1042 
Q 1028 859 1100 722 
Q 1172 588 1295 525 
Q 1419 463 1650 463 
Q 1866 463 2109 584 
Q 2353 706 2556 884 
L 2556 3491 
L 3144 3491 
L 3144 0 
z
" transform="scale(0.015625)"/>
      </defs>
      <use xlink:href="#Tahoma-72"/>
      <use xlink:href="#Tahoma-61" x="34.285156"/>
      <use xlink:href="#Tahoma-73" x="86.775391"/>
      <use xlink:href="#Tahoma-74" x="131.404297"/>
      <use xlink:href="#Tahoma-65" x="164.851562"/>
      <use xlink:href="#Tahoma-72" x="217.488281"/>
      <use xlink:href="#Tahoma-20" x="253.523438"/>
      <use xlink:href="#Tahoma-76" x="284.773438"/>
      <use xlink:href="#Tahoma-61" x="332.703125"/>
      <use xlink:href="#Tahoma-6c" x="385.193359"/>
      <use xlink:href="#Tahoma-75" x="408.044922"/>
      <use xlink:href="#Tahoma-65" x="463.806641"/>
     </g>
    </g>
   </g>
   <g id="matplotlib.axis_2">
    <g id="ytick_1">
     <g id="line2d_13">
      <path d="M 43.52649 258.62226 
L 464.99976 258.62226 
" clip-path="url(#pb6b8c54183)" style="fill: none; stroke: #b0b0b0; stroke-width: 0.8; stroke-linecap: square"/>
     </g>
     <g id="line2d_14">
      <defs>
       <path id="m4723711482" d="M 0 0 
L -3.5 0 
" style="stroke: #000000; stroke-width: 0.8"/>
      </defs>
      <g>
       <use xlink:href="#m4723711482" x="43.52649" y="258.62226" style="stroke: #000000; stroke-width: 0.8"/>
      </g>
     </g>
     <g id="text_8">
      <!-- 0 -->
      <g transform="translate(32.15899 261.661635)scale(0.08 -0.08)">
       <use xlink:href="#Tahoma-30"/>
      </g>
     </g>
    </g>
    <g id="ytick_2">
     <g id="line2d_15">
      <path d="M 43.52649 215.638398 
L 464.99976 215.638398 
" clip-path="url(#pb6b8c54183)" style="fill: none; stroke: #b0b0b0; stroke-width: 0.8; stroke-linecap: square"/>
     </g>
     <g id="line2d_16">
      <g>
       <use xlink:href="#m4723711482" x="43.52649" y="215.638398" style="stroke: #000000; stroke-width: 0.8"/>
      </g>
     </g>
     <g id="text_9">
      <!-- 10000 -->
      <g transform="translate(14.68899 218.677773)scale(0.08 -0.08)">
       <use xlink:href="#Tahoma-31"/>
       <use xlink:href="#Tahoma-30" x="54.589844"/>
       <use xlink:href="#Tahoma-30" x="109.179688"/>
       <use xlink:href="#Tahoma-30" x="163.769531"/>
       <use xlink:href="#Tahoma-30" x="218.359375"/>
      </g>
     </g>
    </g>
    <g id="ytick_3">
     <g id="line2d_17">
      <path d="M 43.52649 172.654536 
L 464.99976 172.654536 
" clip-path="url(#pb6b8c54183)" style="fill: none; stroke: #b0b0b0; stroke-width: 0.8; stroke-linecap: square"/>
     </g>
     <g id="line2d_18">
      <g>
       <use xlink:href="#m4723711482" x="43.52649" y="172.654536" style="stroke: #000000; stroke-width: 0.8"/>
      </g>
     </g>
     <g id="text_10">
      <!-- 20000 -->
      <g transform="translate(14.68899 175.693911)scale(0.08 -0.08)">
       <use xlink:href="#Tahoma-32"/>
       <use xlink:href="#Tahoma-30" x="54.589844"/>
       <use xlink:href="#Tahoma-30" x="109.179688"/>
       <use xlink:href="#Tahoma-30" x="163.769531"/>
       <use xlink:href="#Tahoma-30" x="218.359375"/>
      </g>
     </g>
    </g>
    <g id="ytick_4">
     <g id="line2d_19">
      <path d="M 43.52649 129.670674 
L 464.99976 129.670674 
" clip-path="url(#pb6b8c54183)" style="fill: none; stroke: #b0b0b0; stroke-width: 0.8; stroke-linecap: square"/>
     </g>
     <g id="line2d_20">
      <g>
       <use xlink:href="#m4723711482" x="43.52649" y="129.670674" style="stroke: #000000; stroke-width: 0.8"/>
      </g>
     </g>
     <g id="text_11">
      <!-- 30000 -->
      <g transform="translate(14.68899 132.710049)scale(0.08 -0.08)">
       <defs>
        <path id="Tahoma-33" d="M 1597 4209 
Q 1428 4209 1259 4168 
Q 1091 4128 928 4063 
Q 778 4000 667 3931 
Q 556 3863 469 3803 
L 431 3803 
L 431 4463 
Q 634 4572 982 4661 
Q 1331 4750 1647 4750 
Q 1963 4750 2198 4686 
Q 2434 4622 2625 4488 
Q 2831 4338 2936 4125 
Q 3041 3913 3041 3628 
Q 3041 3244 2787 2953 
Q 2534 2663 2181 2584 
L 2181 2541 
Q 2328 2513 2495 2444 
Q 2663 2375 2806 2241 
Q 2950 2106 3040 1895 
Q 3131 1684 3131 1381 
Q 3131 1066 3023 802 
Q 2916 538 2719 334 
Q 2516 122 2228 12 
Q 1941 -97 1575 -97 
Q 1225 -97 881 -12 
Q 538 72 303 191 
L 303 850 
L 347 850 
Q 544 706 875 575 
Q 1206 444 1538 444 
Q 1728 444 1920 505 
Q 2113 566 2241 703 
Q 2366 841 2431 1006 
Q 2497 1172 2497 1425 
Q 2497 1678 2423 1840 
Q 2350 2003 2219 2097 
Q 2088 2191 1908 2227 
Q 1728 2263 1519 2263 
L 1253 2263 
L 1253 2781 
L 1459 2781 
Q 1881 2781 2145 2981 
Q 2409 3181 2409 3563 
Q 2409 3738 2340 3864 
Q 2272 3991 2166 4066 
Q 2047 4147 1903 4178 
Q 1759 4209 1597 4209 
z
" transform="scale(0.015625)"/>
       </defs>
       <use xlink:href="#Tahoma-33"/>
       <use xlink:href="#Tahoma-30" x="54.589844"/>
       <use xlink:href="#Tahoma-30" x="109.179688"/>
       <use xlink:href="#Tahoma-30" x="163.769531"/>
       <use xlink:href="#Tahoma-30" x="218.359375"/>
      </g>
     </g>
    </g>
    <g id="ytick_5">
     <g id="line2d_21">
      <path d="M 43.52649 86.686812 
L 464.99976 86.686812 
" clip-path="url(#pb6b8c54183)" style="fill: none; stroke: #b0b0b0; stroke-width: 0.8; stroke-linecap: square"/>
     </g>
     <g id="line2d_22">
      <g>
       <use xlink:href="#m4723711482" x="43.52649" y="86.686812" style="stroke: #000000; stroke-width: 0.8"/>
      </g>
     </g>
     <g id="text_12">
      <!-- 40000 -->
      <g transform="translate(14.68899 89.726187)scale(0.08 -0.08)">
       <use xlink:href="#Tahoma-34"/>
       <use xlink:href="#Tahoma-30" x="54.589844"/>
       <use xlink:href="#Tahoma-30" x="109.179688"/>
       <use xlink:href="#Tahoma-30" x="163.769531"/>
       <use xlink:href="#Tahoma-30" x="218.359375"/>
      </g>
     </g>
    </g>
    <g id="ytick_6">
     <g id="line2d_23">
      <path d="M 43.52649 43.702951 
L 464.99976 43.702951 
" clip-path="url(#pb6b8c54183)" style="fill: none; stroke: #b0b0b0; stroke-width: 0.8; stroke-linecap: square"/>
     </g>
     <g id="line2d_24">
      <g>
       <use xlink:href="#m4723711482" x="43.52649" y="43.702951" style="stroke: #000000; stroke-width: 0.8"/>
      </g>
     </g>
     <g id="text_13">
      <!-- 50000 -->
      <g transform="translate(14.68899 46.742326)scale(0.08 -0.08)">
       <defs>
        <path id="Tahoma-35" d="M 3159 1481 
Q 3159 1144 3051 856 
Q 2944 569 2750 359 
Q 2553 147 2261 25 
Q 1969 -97 1606 -97 
Q 1272 -97 948 -23 
Q 625 50 388 169 
L 388 828 
L 431 828 
Q 503 775 637 708 
Q 772 641 934 581 
Q 1119 516 1272 480 
Q 1425 444 1616 444 
Q 1803 444 1981 511 
Q 2159 578 2288 728 
Q 2403 866 2464 1050 
Q 2525 1234 2525 1484 
Q 2525 1731 2458 1890 
Q 2391 2050 2263 2153 
Q 2128 2272 1933 2320 
Q 1738 2369 1497 2369 
Q 1244 2369 987 2330 
Q 731 2291 578 2256 
L 578 4653 
L 3131 4653 
L 3131 4106 
L 1181 4106 
L 1181 2869 
Q 1294 2881 1403 2887 
Q 1513 2894 1603 2894 
Q 1959 2894 2206 2834 
Q 2453 2775 2681 2603 
Q 2913 2428 3036 2165 
Q 3159 1903 3159 1481 
z
" transform="scale(0.015625)"/>
       </defs>
       <use xlink:href="#Tahoma-35"/>
       <use xlink:href="#Tahoma-30" x="54.589844"/>
       <use xlink:href="#Tahoma-30" x="109.179688"/>
       <use xlink:href="#Tahoma-30" x="163.769531"/>
       <use xlink:href="#Tahoma-30" x="218.359375"/>
      </g>
     </g>
    </g>
    <g id="text_14">
     <!-- asset count -->
     <g transform="translate(9.07899 160.546886)rotate(-90)scale(0.08 -0.08)">
      <defs>
       <path id="Tahoma-63" d="M 1813 -78 
Q 1453 -78 1153 33 
Q 853 144 638 369 
Q 422 594 303 936 
Q 184 1278 184 1741 
Q 184 2200 307 2534 
Q 431 2869 638 3097 
Q 844 3325 1151 3448 
Q 1459 3572 1813 3572 
Q 2100 3572 2367 3490 
Q 2634 3409 2844 3303 
L 2844 2644 
L 2809 2644 
Q 2747 2697 2648 2765 
Q 2550 2834 2409 2906 
Q 2288 2969 2122 3016 
Q 1956 3063 1803 3063 
Q 1347 3063 1070 2717 
Q 794 2372 794 1741 
Q 794 1122 1061 776 
Q 1328 431 1803 431 
Q 2091 431 2350 550 
Q 2609 669 2809 856 
L 2844 856 
L 2844 197 
Q 2756 156 2625 98 
Q 2494 41 2388 13 
Q 2238 -31 2119 -54 
Q 2000 -78 1813 -78 
z
" transform="scale(0.015625)"/>
       <path id="Tahoma-6f" d="M 3297 1744 
Q 3297 863 2872 383 
Q 2447 -97 1741 -97 
Q 1013 -97 595 398 
Q 178 894 178 1744 
Q 178 2619 608 3103 
Q 1038 3588 1741 3588 
Q 2447 3588 2872 3105 
Q 3297 2622 3297 1744 
z
M 2691 1744 
Q 2691 2422 2444 2751 
Q 2197 3081 1741 3081 
Q 1281 3081 1032 2751 
Q 784 2422 784 1744 
Q 784 1088 1032 748 
Q 1281 409 1741 409 
Q 2194 409 2442 742 
Q 2691 1075 2691 1744 
z
" transform="scale(0.015625)"/>
       <path id="Tahoma-6e" d="M 3169 0 
L 2581 0 
L 2581 1988 
Q 2581 2228 2557 2436 
Q 2534 2644 2469 2769 
Q 2397 2900 2269 2964 
Q 2141 3028 1919 3028 
Q 1700 3028 1467 2911 
Q 1234 2794 1013 2606 
L 1013 0 
L 425 0 
L 425 3491 
L 1013 3491 
L 1013 3103 
Q 1275 3338 1531 3463 
Q 1788 3588 2072 3588 
Q 2588 3588 2878 3248 
Q 3169 2909 3169 2266 
L 3169 0 
z
" transform="scale(0.015625)"/>
      </defs>
      <use xlink:href="#Tahoma-61"/>
      <use xlink:href="#Tahoma-73" x="52.490234"/>
      <use xlink:href="#Tahoma-73" x="97.119141"/>
      <use xlink:href="#Tahoma-65" x="141.748047"/>
      <use xlink:href="#Tahoma-74" x="194.384766"/>
      <use xlink:href="#Tahoma-20" x="227.832031"/>
      <use xlink:href="#Tahoma-63" x="259.082031"/>
      <use xlink:href="#Tahoma-6f" x="305.224609"/>
      <use xlink:href="#Tahoma-75" x="359.521484"/>
      <use xlink:href="#Tahoma-6e" x="415.283203"/>
      <use xlink:href="#Tahoma-74" x="471.044922"/>
     </g>
    </g>
   </g>
   <g id="patch_79">
    <path d="M 43.52649 258.62226 
L 43.52649 22.111512 
" style="fill: none; stroke: #000000; stroke-width: 0.8; stroke-linejoin: miter; stroke-linecap: square"/>
   </g>
   <g id="patch_80">
    <path d="M 464.99976 258.62226 
L 464.99976 22.111512 
" style="fill: none; stroke: #000000; stroke-width: 0.8; stroke-linejoin: miter; stroke-linecap: square"/>
   </g>
   <g id="patch_81">
    <path d="M 43.52649 258.62226 
L 464.99976 258.62226 
" style="fill: none; stroke: #000000; stroke-width: 0.8; stroke-linejoin: miter; stroke-linecap: square"/>
   </g>
   <g id="patch_82">
    <path d="M 43.52649 22.111512 
L 464.99976 22.111512 
" style="fill: none; stroke: #000000; stroke-width: 0.8; stroke-linejoin: miter; stroke-linecap: square"/>
   </g>
   <g id="text_15">
    <!-- finv_fcnt=52810  -->
    <g transform="translate(169.968471 24.848662)scale(0.08 -0.08)">
     <defs>
      <path id="Tahoma-66" d="M 2263 4300 
L 2231 4300 
Q 2153 4328 2006 4354 
Q 1859 4381 1744 4381 
Q 1372 4381 1214 4214 
Q 1056 4047 1056 3609 
L 1056 3491 
L 2028 3491 
L 2028 3003 
L 1075 3003 
L 1075 0 
L 488 0 
L 488 3003 
L 91 3003 
L 91 3491 
L 488 3491 
L 488 3606 
Q 488 4238 791 4566 
Q 1094 4894 1659 4894 
Q 1822 4894 1978 4876 
Q 2134 4859 2263 4838 
L 2263 4300 
z
" transform="scale(0.015625)"/>
      <path id="Tahoma-69" d="M 1025 0 
L 438 0 
L 438 3491 
L 1025 3491 
L 1025 0 
z
M 1066 4075 
L 397 4075 
L 397 4684 
L 1066 4684 
L 1066 4075 
z
" transform="scale(0.015625)"/>
      <path id="Tahoma-5f" d="M 3544 -938 
L -50 -938 
L -50 -531 
L 3544 -531 
L 3544 -938 
z
" transform="scale(0.015625)"/>
      <path id="Tahoma-3d" d="M 4056 2444 
L 600 2444 
L 600 2944 
L 4056 2944 
L 4056 2444 
z
M 4056 1131 
L 600 1131 
L 600 1631 
L 4056 1631 
L 4056 1131 
z
" transform="scale(0.015625)"/>
     </defs>
     <use xlink:href="#Tahoma-66"/>
     <use xlink:href="#Tahoma-69" x="31.835938"/>
     <use xlink:href="#Tahoma-6e" x="54.6875"/>
     <use xlink:href="#Tahoma-76" x="109.574219"/>
     <use xlink:href="#Tahoma-5f" x="159.378906"/>
     <use xlink:href="#Tahoma-66" x="213.96875"/>
     <use xlink:href="#Tahoma-63" x="244.804688"/>
     <use xlink:href="#Tahoma-6e" x="290.947266"/>
     <use xlink:href="#Tahoma-74" x="346.708984"/>
     <use xlink:href="#Tahoma-3d" x="380.15625"/>
     <use xlink:href="#Tahoma-35" x="452.910156"/>
     <use xlink:href="#Tahoma-32" x="507.5"/>
     <use xlink:href="#Tahoma-38" x="562.089844"/>
     <use xlink:href="#Tahoma-31" x="616.679688"/>
     <use xlink:href="#Tahoma-30" x="671.269531"/>
     <use xlink:href="#Tahoma-20" x="725.859375"/>
    </g>
    <!-- finv_name='finv_infra.road_r2b_230325'  -->
    <g transform="translate(169.968471 33.753162)scale(0.08 -0.08)">
     <defs>
      <path id="Tahoma-6d" d="M 4388 0 
L 4388 2019 
Q 4388 2259 4369 2464 
Q 4350 2669 4291 2784 
Q 4228 2909 4112 2968 
Q 3997 3028 3800 3028 
Q 3619 3028 3411 2917 
Q 3203 2806 2981 2597 
Q 2984 2544 2989 2470 
Q 2994 2397 2994 2297 
L 2994 0 
L 2406 0 
L 2406 2019 
Q 2406 2259 2387 2464 
Q 2369 2669 2309 2784 
Q 2247 2909 2131 2968 
Q 2016 3028 1819 3028 
Q 1628 3028 1418 2909 
Q 1209 2791 1013 2606 
L 1013 0 
L 425 0 
L 425 3491 
L 1013 3491 
L 1013 3103 
Q 1244 3334 1470 3461 
Q 1697 3588 1969 3588 
Q 2278 3588 2517 3447 
Q 2756 3306 2881 2984 
Q 3147 3281 3400 3434 
Q 3653 3588 3950 3588 
Q 4175 3588 4359 3517 
Q 4544 3447 4681 3291 
Q 4822 3131 4898 2893 
Q 4975 2656 4975 2297 
L 4975 0 
L 4388 0 
z
" transform="scale(0.015625)"/>
      <path id="Tahoma-27" d="M 1022 4863 
L 888 3053 
L 463 3053 
L 328 4863 
L 1022 4863 
z
" transform="scale(0.015625)"/>
      <path id="Tahoma-64" d="M 3113 0 
L 2525 0 
L 2525 356 
Q 2388 241 2288 166 
Q 2188 91 2053 28 
Q 1928 -31 1793 -64 
Q 1659 -97 1481 -97 
Q 1197 -97 955 22 
Q 713 141 544 369 
Q 372 600 278 939 
Q 184 1278 184 1719 
Q 184 2178 303 2514 
Q 422 2850 631 3100 
Q 822 3328 1092 3458 
Q 1363 3588 1659 3588 
Q 1922 3588 2115 3530 
Q 2309 3472 2525 3350 
L 2525 4863 
L 3113 4863 
L 3113 0 
z
M 2525 850 
L 2525 2863 
Q 2306 2969 2132 3009 
Q 1959 3050 1756 3050 
Q 1303 3050 1047 2711 
Q 791 2372 791 1731 
Q 791 1116 987 789 
Q 1184 463 1619 463 
Q 1850 463 2084 567 
Q 2319 672 2525 850 
z
" transform="scale(0.015625)"/>
      <path id="Tahoma-62" d="M 2747 1756 
Q 2747 2381 2556 2704 
Q 2366 3028 1944 3028 
Q 1703 3028 1458 2915 
Q 1213 2803 1013 2631 
L 1013 631 
Q 1234 522 1406 476 
Q 1578 431 1784 431 
Q 2234 431 2490 750 
Q 2747 1069 2747 1756 
z
M 3353 1803 
Q 3353 947 2937 425 
Q 2522 -97 1897 -97 
Q 1613 -97 1411 -26 
Q 1209 44 1013 163 
L 975 0 
L 425 0 
L 425 4863 
L 1013 4863 
L 1013 3125 
Q 1234 3325 1493 3456 
Q 1753 3588 2081 3588 
Q 2672 3588 3012 3114 
Q 3353 2641 3353 1803 
z
" transform="scale(0.015625)"/>
     </defs>
     <use xlink:href="#Tahoma-66"/>
     <use xlink:href="#Tahoma-69" x="31.835938"/>
     <use xlink:href="#Tahoma-6e" x="54.6875"/>
     <use xlink:href="#Tahoma-76" x="109.574219"/>
     <use xlink:href="#Tahoma-5f" x="159.378906"/>
     <use xlink:href="#Tahoma-6e" x="213.96875"/>
     <use xlink:href="#Tahoma-61" x="269.730469"/>
     <use xlink:href="#Tahoma-6d" x="322.220703"/>
     <use xlink:href="#Tahoma-65" x="406.205078"/>
     <use xlink:href="#Tahoma-3d" x="458.841797"/>
     <use xlink:href="#Tahoma-27" x="531.595703"/>
     <use xlink:href="#Tahoma-66" x="552.689453"/>
     <use xlink:href="#Tahoma-69" x="584.525391"/>
     <use xlink:href="#Tahoma-6e" x="607.376953"/>
     <use xlink:href="#Tahoma-76" x="662.263672"/>
     <use xlink:href="#Tahoma-5f" x="712.068359"/>
     <use xlink:href="#Tahoma-69" x="766.658203"/>
     <use xlink:href="#Tahoma-6e" x="789.509766"/>
     <use xlink:href="#Tahoma-66" x="845.271484"/>
     <use xlink:href="#Tahoma-72" x="876.607422"/>
     <use xlink:href="#Tahoma-61" x="910.892578"/>
     <use xlink:href="#Tahoma-2e" x="963.382812"/>
     <use xlink:href="#Tahoma-72" x="993.65625"/>
     <use xlink:href="#Tahoma-6f" x="1029.191406"/>
     <use xlink:href="#Tahoma-61" x="1083.488281"/>
     <use xlink:href="#Tahoma-64" x="1135.978516"/>
     <use xlink:href="#Tahoma-5f" x="1191.251953"/>
     <use xlink:href="#Tahoma-72" x="1245.841797"/>
     <use xlink:href="#Tahoma-32" x="1281.876953"/>
     <use xlink:href="#Tahoma-62" x="1336.466797"/>
     <use xlink:href="#Tahoma-5f" x="1391.740234"/>
     <use xlink:href="#Tahoma-32" x="1446.330078"/>
     <use xlink:href="#Tahoma-33" x="1500.919922"/>
     <use xlink:href="#Tahoma-30" x="1555.509766"/>
     <use xlink:href="#Tahoma-33" x="1610.099609"/>
     <use xlink:href="#Tahoma-32" x="1664.689453"/>
     <use xlink:href="#Tahoma-35" x="1719.279297"/>
     <use xlink:href="#Tahoma-27" x="1773.869141"/>
     <use xlink:href="#Tahoma-20" x="1794.962891"/>
    </g>
    <!-- as_inun=True  -->
    <g transform="translate(169.968471 42.657662)scale(0.08 -0.08)">
     <defs>
      <path id="Tahoma-54" d="M 1559 0 
L 1559 4103 
L -3 4103 
L -3 4653 
L 3741 4653 
L 3741 4103 
L 2178 4103 
L 2178 0 
L 1559 0 
z
" transform="scale(0.015625)"/>
     </defs>
     <use xlink:href="#Tahoma-61"/>
     <use xlink:href="#Tahoma-73" x="52.490234"/>
     <use xlink:href="#Tahoma-5f" x="97.119141"/>
     <use xlink:href="#Tahoma-69" x="151.708984"/>
     <use xlink:href="#Tahoma-6e" x="174.560547"/>
     <use xlink:href="#Tahoma-75" x="230.322266"/>
     <use xlink:href="#Tahoma-6e" x="286.083984"/>
     <use xlink:href="#Tahoma-3d" x="341.845703"/>
     <use xlink:href="#Tahoma-54" x="414.599609"/>
     <use xlink:href="#Tahoma-72" x="463.748047"/>
     <use xlink:href="#Tahoma-75" x="499.783203"/>
     <use xlink:href="#Tahoma-65" x="555.544922"/>
     <use xlink:href="#Tahoma-20" x="608.181641"/>
    </g>
    <!-- gtype=LineString  -->
    <g transform="translate(169.968471 51.562162)scale(0.08 -0.08)">
     <defs>
      <path id="Tahoma-67" d="M 2525 947 
L 2525 2863 
Q 2306 2969 2120 3014 
Q 1934 3059 1750 3059 
Q 1303 3059 1047 2731 
Q 791 2403 791 1791 
Q 791 1209 986 906 
Q 1181 603 1619 603 
Q 1847 603 2089 693 
Q 2331 784 2525 947 
z
M 550 -559 
Q 609 -584 725 -626 
Q 841 -669 988 -706 
Q 1150 -747 1287 -772 
Q 1425 -797 1588 -797 
Q 1859 -797 2048 -725 
Q 2238 -653 2344 -525 
Q 2444 -397 2484 -228 
Q 2525 -59 2525 156 
L 2525 463 
Q 2288 256 2059 157 
Q 1831 59 1488 59 
Q 891 59 537 503 
Q 184 947 184 1778 
Q 184 2213 306 2548 
Q 428 2884 634 3119 
Q 831 3344 1100 3466 
Q 1369 3588 1656 3588 
Q 1928 3588 2126 3523 
Q 2325 3459 2525 3341 
L 2559 3491 
L 3113 3491 
L 3113 397 
Q 3113 -491 2725 -906 
Q 2338 -1322 1541 -1322 
Q 1284 -1322 1017 -1281 
Q 750 -1241 519 -1172 
L 519 -559 
L 550 -559 
z
" transform="scale(0.015625)"/>
      <path id="Tahoma-79" d="M 3169 3491 
L 1291 -1288 
L 663 -1288 
L 1288 169 
L 19 3491 
L 653 3491 
L 1606 906 
L 2556 3491 
L 3169 3491 
z
" transform="scale(0.015625)"/>
      <path id="Tahoma-70" d="M 3353 1838 
Q 3353 966 2936 448 
Q 2519 -69 1881 -69 
Q 1622 -69 1422 -9 
Q 1222 50 1013 175 
L 1013 -1288 
L 425 -1288 
L 425 3491 
L 1013 3491 
L 1013 3125 
Q 1231 3322 1498 3455 
Q 1766 3588 2081 3588 
Q 2681 3588 3017 3113 
Q 3353 2638 3353 1838 
z
M 2747 1772 
Q 2747 2369 2556 2698 
Q 2366 3028 1938 3028 
Q 1688 3028 1455 2917 
Q 1222 2806 1013 2631 
L 1013 653 
Q 1244 541 1408 500 
Q 1572 459 1784 459 
Q 2241 459 2494 793 
Q 2747 1128 2747 1772 
z
" transform="scale(0.015625)"/>
      <path id="Tahoma-4c" d="M 3169 0 
L 472 0 
L 472 4653 
L 1091 4653 
L 1091 550 
L 3169 550 
L 3169 0 
z
" transform="scale(0.015625)"/>
      <path id="Tahoma-53" d="M 1769 -84 
Q 1263 -84 908 20 
Q 553 125 241 278 
L 241 1053 
L 284 1053 
Q 591 766 978 608 
Q 1366 450 1725 450 
Q 2238 450 2500 664 
Q 2763 878 2763 1228 
Q 2763 1506 2625 1681 
Q 2488 1856 2188 1941 
Q 1972 2003 1794 2043 
Q 1616 2084 1347 2153 
Q 1106 2216 915 2312 
Q 725 2409 578 2566 
Q 434 2719 354 2926 
Q 275 3134 275 3406 
Q 275 3972 715 4355 
Q 1156 4738 1841 4738 
Q 2231 4738 2579 4659 
Q 2928 4581 3225 4438 
L 3225 3697 
L 3178 3697 
Q 2956 3900 2609 4051 
Q 2263 4203 1881 4203 
Q 1450 4203 1184 4001 
Q 919 3800 919 3472 
Q 919 3175 1075 3000 
Q 1231 2825 1528 2744 
Q 1725 2691 2009 2623 
Q 2294 2556 2481 2500 
Q 2963 2353 3184 2056 
Q 3406 1759 3406 1325 
Q 3406 1053 3295 787 
Q 3184 522 2984 338 
Q 2759 134 2476 25 
Q 2194 -84 1769 -84 
z
" transform="scale(0.015625)"/>
     </defs>
     <use xlink:href="#Tahoma-67"/>
     <use xlink:href="#Tahoma-74" x="55.273438"/>
     <use xlink:href="#Tahoma-79" x="87.720703"/>
     <use xlink:href="#Tahoma-70" x="137.525391"/>
     <use xlink:href="#Tahoma-65" x="192.798828"/>
     <use xlink:href="#Tahoma-3d" x="245.435547"/>
     <use xlink:href="#Tahoma-4c" x="318.189453"/>
     <use xlink:href="#Tahoma-69" x="367.945312"/>
     <use xlink:href="#Tahoma-6e" x="390.796875"/>
     <use xlink:href="#Tahoma-65" x="446.558594"/>
     <use xlink:href="#Tahoma-53" x="499.195312"/>
     <use xlink:href="#Tahoma-74" x="554.908203"/>
     <use xlink:href="#Tahoma-72" x="588.355469"/>
     <use xlink:href="#Tahoma-69" x="624.390625"/>
     <use xlink:href="#Tahoma-6e" x="647.242188"/>
     <use xlink:href="#Tahoma-67" x="703.003906"/>
     <use xlink:href="#Tahoma-20" x="758.277344"/>
    </g>
    <!-- date=2023-03-26 07:49 -->
    <g transform="translate(169.968471 60.509162)scale(0.08 -0.08)">
     <defs>
      <path id="Tahoma-2d" d="M 2044 1753 
L 281 1753 
L 281 2319 
L 2044 2319 
L 2044 1753 
z
" transform="scale(0.015625)"/>
      <path id="Tahoma-37" d="M 3263 3956 
L 1250 0 
L 584 0 
L 2716 4106 
L 309 4106 
L 309 4653 
L 3263 4653 
L 3263 3956 
z
" transform="scale(0.015625)"/>
      <path id="Tahoma-3a" d="M 1506 2600 
L 759 2600 
L 759 3491 
L 1506 3491 
L 1506 2600 
z
M 1506 0 
L 759 0 
L 759 891 
L 1506 891 
L 1506 0 
z
" transform="scale(0.015625)"/>
      <path id="Tahoma-39" d="M 2600 2741 
Q 2600 3216 2512 3514 
Q 2425 3813 2272 3975 
Q 2134 4125 1993 4181 
Q 1853 4238 1684 4238 
Q 1300 4238 1072 3963 
Q 844 3688 844 3166 
Q 844 2872 919 2681 
Q 994 2491 1163 2353 
Q 1281 2256 1431 2223 
Q 1581 2191 1753 2191 
Q 1953 2191 2184 2261 
Q 2416 2331 2588 2447 
Q 2591 2494 2595 2570 
Q 2600 2647 2600 2741 
z
M 209 3141 
Q 209 3500 326 3797 
Q 444 4094 647 4309 
Q 841 4516 1120 4631 
Q 1400 4747 1688 4747 
Q 2009 4747 2270 4639 
Q 2531 4531 2722 4328 
Q 2963 4072 3095 3656 
Q 3228 3241 3228 2606 
Q 3228 2028 3098 1511 
Q 2969 994 2716 653 
Q 2447 291 2070 100 
Q 1694 -91 1141 -91 
Q 1016 -91 875 -77 
Q 734 -63 613 -25 
L 613 572 
L 644 572 
Q 722 528 887 487 
Q 1053 447 1225 447 
Q 1838 447 2188 850 
Q 2538 1253 2584 2003 
Q 2334 1834 2107 1756 
Q 1881 1678 1616 1678 
Q 1356 1678 1143 1734 
Q 931 1791 716 1953 
Q 466 2144 337 2436 
Q 209 2728 209 3141 
z
" transform="scale(0.015625)"/>
     </defs>
     <use xlink:href="#Tahoma-64"/>
     <use xlink:href="#Tahoma-61" x="55.273438"/>
     <use xlink:href="#Tahoma-74" x="107.763672"/>
     <use xlink:href="#Tahoma-65" x="141.210938"/>
     <use xlink:href="#Tahoma-3d" x="193.847656"/>
     <use xlink:href="#Tahoma-32" x="266.601562"/>
     <use xlink:href="#Tahoma-30" x="321.191406"/>
     <use xlink:href="#Tahoma-32" x="375.78125"/>
     <use xlink:href="#Tahoma-33" x="430.371094"/>
     <use xlink:href="#Tahoma-2d" x="484.960938"/>
     <use xlink:href="#Tahoma-30" x="521.289062"/>
     <use xlink:href="#Tahoma-33" x="575.878906"/>
     <use xlink:href="#Tahoma-2d" x="630.46875"/>
     <use xlink:href="#Tahoma-32" x="666.796875"/>
     <use xlink:href="#Tahoma-36" x="721.386719"/>
     <use xlink:href="#Tahoma-20" x="775.976562"/>
     <use xlink:href="#Tahoma-30" x="807.226562"/>
     <use xlink:href="#Tahoma-37" x="861.816406"/>
     <use xlink:href="#Tahoma-3a" x="916.40625"/>
     <use xlink:href="#Tahoma-34" x="951.757812"/>
     <use xlink:href="#Tahoma-39" x="1006.347656"/>
    </g>
    <!-- psmp_stat=None -->
    <g transform="translate(169.968471 69.413662)scale(0.08 -0.08)">
     <defs>
      <path id="Tahoma-4e" d="M 3800 0 
L 3106 0 
L 1050 4013 
L 1050 0 
L 472 0 
L 472 4653 
L 1350 4653 
L 3222 969 
L 3222 4653 
L 3800 4653 
L 3800 0 
z
" transform="scale(0.015625)"/>
     </defs>
     <use xlink:href="#Tahoma-70"/>
     <use xlink:href="#Tahoma-73" x="55.273438"/>
     <use xlink:href="#Tahoma-6d" x="99.902344"/>
     <use xlink:href="#Tahoma-70" x="183.886719"/>
     <use xlink:href="#Tahoma-5f" x="239.160156"/>
     <use xlink:href="#Tahoma-73" x="293.75"/>
     <use xlink:href="#Tahoma-74" x="338.378906"/>
     <use xlink:href="#Tahoma-61" x="371.826172"/>
     <use xlink:href="#Tahoma-74" x="424.316406"/>
     <use xlink:href="#Tahoma-3d" x="457.763672"/>
     <use xlink:href="#Tahoma-4e" x="530.517578"/>
     <use xlink:href="#Tahoma-6f" x="597.265625"/>
     <use xlink:href="#Tahoma-6e" x="651.5625"/>
     <use xlink:href="#Tahoma-65" x="707.324219"/>
    </g>
   </g>
   <g id="legend_1">
    <g id="patch_83">
     <path d="M 363.67101 75.266512 
L 459.39976 75.266512 
Q 460.99976 75.266512 460.99976 73.666512 
L 460.99976 27.711512 
Q 460.99976 26.111512 459.39976 26.111512 
L 363.67101 26.111512 
Q 362.07101 26.111512 362.07101 27.711512 
L 362.07101 73.666512 
Q 362.07101 75.266512 363.67101 75.266512 
z
" style="fill: #ffffff; opacity: 0.8; stroke: #cccccc; stroke-linejoin: miter"/>
    </g>
    <g id="patch_84">
     <path d="M 365.27101 35.390262 
L 381.27101 35.390262 
L 381.27101 29.790262 
L 365.27101 29.790262 
z
" style="fill: #1f77b4; opacity: 0.9"/>
    </g>
    <g id="text_16">
     <!-- wse_sA_0020_1218 -->
     <g transform="translate(387.67101 35.390262)scale(0.08 -0.08)">
      <defs>
       <path id="Tahoma-77" d="M 4656 3491 
L 3772 0 
L 3228 0 
L 2375 2691 
L 1528 0 
L 988 0 
L 94 3491 
L 706 3491 
L 1322 788 
L 2150 3491 
L 2634 3491 
L 3484 788 
L 4066 3491 
L 4656 3491 
z
" transform="scale(0.015625)"/>
       <path id="Tahoma-41" d="M -31 0 
L 1538 4653 
L 2300 4653 
L 3869 0 
L 3216 0 
L 2794 1300 
L 1016 1300 
L 594 0 
L -31 0 
z
M 2622 1828 
L 1903 4022 
L 1188 1828 
L 2622 1828 
z
" transform="scale(0.015625)"/>
      </defs>
      <use xlink:href="#Tahoma-77"/>
      <use xlink:href="#Tahoma-73" x="74.21875"/>
      <use xlink:href="#Tahoma-65" x="118.847656"/>
      <use xlink:href="#Tahoma-5f" x="171.484375"/>
      <use xlink:href="#Tahoma-73" x="226.074219"/>
      <use xlink:href="#Tahoma-41" x="270.703125"/>
      <use xlink:href="#Tahoma-5f" x="330.664062"/>
      <use xlink:href="#Tahoma-30" x="385.253906"/>
      <use xlink:href="#Tahoma-30" x="439.84375"/>
      <use xlink:href="#Tahoma-32" x="494.433594"/>
      <use xlink:href="#Tahoma-30" x="549.023438"/>
      <use xlink:href="#Tahoma-5f" x="603.613281"/>
      <use xlink:href="#Tahoma-31" x="658.203125"/>
      <use xlink:href="#Tahoma-32" x="712.792969"/>
      <use xlink:href="#Tahoma-31" x="767.382812"/>
      <use xlink:href="#Tahoma-38" x="821.972656"/>
     </g>
    </g>
    <g id="patch_85">
     <path d="M 365.27101 47.079012 
L 381.27101 47.079012 
L 381.27101 41.479012 
L 365.27101 41.479012 
z
" style="fill: #ff7f0e; opacity: 0.9"/>
    </g>
    <g id="text_17">
     <!-- wse_sA_0100_1218 -->
     <g transform="translate(387.67101 47.079012)scale(0.08 -0.08)">
      <use xlink:href="#Tahoma-77"/>
      <use xlink:href="#Tahoma-73" x="74.21875"/>
      <use xlink:href="#Tahoma-65" x="118.847656"/>
      <use xlink:href="#Tahoma-5f" x="171.484375"/>
      <use xlink:href="#Tahoma-73" x="226.074219"/>
      <use xlink:href="#Tahoma-41" x="270.703125"/>
      <use xlink:href="#Tahoma-5f" x="330.664062"/>
      <use xlink:href="#Tahoma-30" x="385.253906"/>
      <use xlink:href="#Tahoma-31" x="439.84375"/>
      <use xlink:href="#Tahoma-30" x="494.433594"/>
      <use xlink:href="#Tahoma-30" x="549.023438"/>
      <use xlink:href="#Tahoma-5f" x="603.613281"/>
      <use xlink:href="#Tahoma-31" x="658.203125"/>
      <use xlink:href="#Tahoma-32" x="712.792969"/>
      <use xlink:href="#Tahoma-31" x="767.382812"/>
      <use xlink:href="#Tahoma-38" x="821.972656"/>
     </g>
    </g>
    <g id="patch_86">
     <path d="M 365.27101 58.767762 
L 381.27101 58.767762 
L 381.27101 53.167762 
L 365.27101 53.167762 
z
" style="fill: #2ca02c; opacity: 0.9"/>
    </g>
    <g id="text_18">
     <!-- wse_sA_0200_1218 -->
     <g transform="translate(387.67101 58.767762)scale(0.08 -0.08)">
      <use xlink:href="#Tahoma-77"/>
      <use xlink:href="#Tahoma-73" x="74.21875"/>
      <use xlink:href="#Tahoma-65" x="118.847656"/>
      <use xlink:href="#Tahoma-5f" x="171.484375"/>
      <use xlink:href="#Tahoma-73" x="226.074219"/>
      <use xlink:href="#Tahoma-41" x="270.703125"/>
      <use xlink:href="#Tahoma-5f" x="330.664062"/>
      <use xlink:href="#Tahoma-30" x="385.253906"/>
      <use xlink:href="#Tahoma-32" x="439.84375"/>
      <use xlink:href="#Tahoma-30" x="494.433594"/>
      <use xlink:href="#Tahoma-30" x="549.023438"/>
      <use xlink:href="#Tahoma-5f" x="603.613281"/>
      <use xlink:href="#Tahoma-31" x="658.203125"/>
      <use xlink:href="#Tahoma-32" x="712.792969"/>
      <use xlink:href="#Tahoma-31" x="767.382812"/>
      <use xlink:href="#Tahoma-38" x="821.972656"/>
     </g>
    </g>
    <g id="patch_87">
     <path d="M 365.27101 70.456512 
L 381.27101 70.456512 
L 381.27101 64.856512 
L 365.27101 64.856512 
z
" style="fill: #d62728; opacity: 0.9"/>
    </g>
    <g id="text_19">
     <!-- wse_sA_0500_1218 -->
     <g transform="translate(387.67101 70.456512)scale(0.08 -0.08)">
      <use xlink:href="#Tahoma-77"/>
      <use xlink:href="#Tahoma-73" x="74.21875"/>
      <use xlink:href="#Tahoma-65" x="118.847656"/>
      <use xlink:href="#Tahoma-5f" x="171.484375"/>
      <use xlink:href="#Tahoma-73" x="226.074219"/>
      <use xlink:href="#Tahoma-41" x="270.703125"/>
      <use xlink:href="#Tahoma-5f" x="330.664062"/>
      <use xlink:href="#Tahoma-30" x="385.253906"/>
      <use xlink:href="#Tahoma-35" x="439.84375"/>
      <use xlink:href="#Tahoma-30" x="494.433594"/>
      <use xlink:href="#Tahoma-30" x="549.023438"/>
      <use xlink:href="#Tahoma-5f" x="603.613281"/>
      <use xlink:href="#Tahoma-31" x="658.203125"/>
      <use xlink:href="#Tahoma-32" x="712.792969"/>
      <use xlink:href="#Tahoma-31" x="767.382812"/>
      <use xlink:href="#Tahoma-38" x="821.972656"/>
     </g>
    </g>
   </g>
  </g>
  <g id="text_20">
   <!-- r7 Raster Sample Histogram on 4 Events -->
   <g transform="translate(148.242 10.29474)scale(0.096 -0.096)">
    <defs>
     <path id="Tahoma-52" d="M 4075 0 
L 3272 0 
L 1797 1850 
L 1091 1850 
L 1091 0 
L 472 0 
L 472 4653 
L 1672 4653 
Q 2072 4653 2342 4609 
Q 2613 4566 2856 4406 
Q 3100 4250 3242 4003 
Q 3384 3756 3384 3391 
Q 3384 2878 3125 2534 
Q 2866 2191 2419 2025 
L 4075 0 
z
M 2738 3344 
Q 2738 3547 2666 3705 
Q 2594 3863 2444 3963 
Q 2313 4050 2138 4086 
Q 1963 4122 1703 4122 
L 1091 4122 
L 1091 2366 
L 1634 2366 
Q 1900 2366 2112 2412 
Q 2325 2459 2475 2606 
Q 2609 2738 2673 2919 
Q 2738 3100 2738 3344 
z
" transform="scale(0.015625)"/>
     <path id="Tahoma-48" d="M 3850 0 
L 3231 0 
L 3231 2278 
L 1091 2278 
L 1091 0 
L 472 0 
L 472 4653 
L 1091 4653 
L 1091 2828 
L 3231 2828 
L 3231 4653 
L 3850 4653 
L 3850 0 
z
" transform="scale(0.015625)"/>
     <path id="Tahoma-45" d="M 472 0 
L 472 4653 
L 3381 4653 
L 3381 4103 
L 1091 4103 
L 1091 2828 
L 3225 2828 
L 3225 2278 
L 1091 2278 
L 1091 550 
L 3381 550 
L 3381 0 
L 472 0 
z
" transform="scale(0.015625)"/>
    </defs>
    <use xlink:href="#Tahoma-72"/>
    <use xlink:href="#Tahoma-37" x="36.035156"/>
    <use xlink:href="#Tahoma-20" x="90.625"/>
    <use xlink:href="#Tahoma-52" x="121.875"/>
    <use xlink:href="#Tahoma-61" x="183.060547"/>
    <use xlink:href="#Tahoma-73" x="235.550781"/>
    <use xlink:href="#Tahoma-74" x="280.179688"/>
    <use xlink:href="#Tahoma-65" x="313.626953"/>
    <use xlink:href="#Tahoma-72" x="366.263672"/>
    <use xlink:href="#Tahoma-20" x="402.298828"/>
    <use xlink:href="#Tahoma-53" x="433.548828"/>
    <use xlink:href="#Tahoma-61" x="489.261719"/>
    <use xlink:href="#Tahoma-6d" x="541.751953"/>
    <use xlink:href="#Tahoma-70" x="625.736328"/>
    <use xlink:href="#Tahoma-6c" x="681.009766"/>
    <use xlink:href="#Tahoma-65" x="703.861328"/>
    <use xlink:href="#Tahoma-20" x="756.498047"/>
    <use xlink:href="#Tahoma-48" x="787.748047"/>
    <use xlink:href="#Tahoma-69" x="855.277344"/>
    <use xlink:href="#Tahoma-73" x="878.128906"/>
    <use xlink:href="#Tahoma-74" x="922.757812"/>
    <use xlink:href="#Tahoma-6f" x="956.205078"/>
    <use xlink:href="#Tahoma-67" x="1010.501953"/>
    <use xlink:href="#Tahoma-72" x="1065.775391"/>
    <use xlink:href="#Tahoma-61" x="1100.060547"/>
    <use xlink:href="#Tahoma-6d" x="1152.550781"/>
    <use xlink:href="#Tahoma-20" x="1236.535156"/>
    <use xlink:href="#Tahoma-6f" x="1267.785156"/>
    <use xlink:href="#Tahoma-6e" x="1322.082031"/>
    <use xlink:href="#Tahoma-20" x="1377.84375"/>
    <use xlink:href="#Tahoma-34" x="1409.09375"/>
    <use xlink:href="#Tahoma-20" x="1463.683594"/>
    <use xlink:href="#Tahoma-45" x="1494.933594"/>
    <use xlink:href="#Tahoma-76" x="1551.037109"/>
    <use xlink:href="#Tahoma-65" x="1600.091797"/>
    <use xlink:href="#Tahoma-6e" x="1652.728516"/>
    <use xlink:href="#Tahoma-74" x="1708.490234"/>
    <use xlink:href="#Tahoma-73" x="1741.9375"/>
   </g>
  </g>
 </g>
 <defs>
  <clipPath id="pb6b8c54183">
   <rect x="43.52649" y="22.111512" width="421.47327" height="236.510748"/>
  </clipPath>
 </defs>
</svg>
