<?xml version="1.0" encoding="utf-8" standalone="no"?>
<!DOCTYPE svg PUBLIC "-//W3C//DTD SVG 1.1//EN"
  "http://www.w3.org/Graphics/SVG/1.1/DTD/svg11.dtd">
<!-- Created with matplotlib (https://matplotlib.org/) -->
<svg height="288pt" version="1.1" viewBox="0 0 468 288" width="468pt" xmlns="http://www.w3.org/2000/svg" xmlns:xlink="http://www.w3.org/1999/xlink">
 <metadata>
  <rdf:RDF xmlns:cc="http://creativecommons.org/ns#" xmlns:dc="http://purl.org/dc/elements/1.1/" xmlns:rdf="http://www.w3.org/1999/02/22-rdf-syntax-ns#">
   <cc:Work>
    <dc:type rdf:resource="http://purl.org/dc/dcmitype/StillImage"/>
    <dc:date>2022-04-22T14:53:29.374007</dc:date>
    <dc:format>image/svg+xml</dc:format>
    <dc:creator>
     <cc:Agent>
      <dc:title>Matplotlib v3.3.2, https://matplotlib.org/</dc:title>
     </cc:Agent>
    </dc:creator>
   </cc:Work>
  </rdf:RDF>
 </metadata>
 <defs>
  <style type="text/css">*{stroke-linecap:butt;stroke-linejoin:round;}</style>
 </defs>
 <g id="figure_1">
  <g id="patch_1">
   <path d="M 0 288 
L 468 288 
L 468 0 
L 0 0 
z
" style="fill:none;"/>
  </g>
  <g id="axes_1">
   <g id="patch_2">
    <path d="M 45.94899 258.62226 
L 462.81601 258.62226 
L 462.81601 24.2742 
L 45.94899 24.2742 
z
" style="fill:none;"/>
   </g>
   <g id="PolyCollection_1">
    <defs>
     <path d="M 45.94899 -242.421431 
L 45.94899 -242.421431 
L 45.94899 -82.638663 
L 94.583476 -40.029925 
L 289.121418 -34.703832 
L 393.338173 -31.508177 
L 462.81601 -29.37774 
L 45.94899 -29.37774 
L 45.94899 -29.37774 
L 45.94899 -31.508177 
L 45.94899 -34.703832 
L 45.94899 -40.029925 
L 45.94899 -82.638663 
L 45.94899 -242.421431 
z
" id="m808b9521be" style="stroke:#0000ff;stroke-opacity:0.1;"/>
    </defs>
    <g clip-path="url(#pdd67e44ef2)">
     <use style="fill:#0000ff;fill-opacity:0.1;stroke:#0000ff;stroke-opacity:0.1;" x="0" xlink:href="#m808b9521be" y="288"/>
    </g>
   </g>
   <g id="matplotlib.axis_1">
    <g id="xtick_1">
     <g id="line2d_1">
      <path clip-path="url(#pdd67e44ef2)" d="M 45.94899 258.62226 
L 45.94899 24.2742 
" style="fill:none;stroke:#b0b0b0;stroke-linecap:square;stroke-width:0.8;"/>
     </g>
     <g id="line2d_2">
      <defs>
       <path d="M 0 0 
L 0 3.5 
" id="m227752e23a" style="stroke:#000000;stroke-width:0.8;"/>
      </defs>
      <g>
       <use style="stroke:#000000;stroke-width:0.8;" x="45.94899" xlink:href="#m227752e23a" y="258.62226"/>
      </g>
     </g>
     <g id="text_1">
      <!-- 0 -->
      <g transform="translate(43.76524 271.70101)scale(0.08 -0.08)">
       <defs>
        <path d="M 50.53125 36.375 
Q 50.53125 16.796875 44.84375 7.640625 
Q 39.15625 -1.515625 27.296875 -1.515625 
Q 15.28125 -1.515625 9.65625 7.8125 
Q 4.046875 17.140625 4.046875 36.28125 
Q 4.046875 55.953125 9.734375 65.0625 
Q 15.4375 74.171875 27.296875 74.171875 
Q 39.3125 74.171875 44.921875 64.75 
Q 50.53125 55.328125 50.53125 36.375 
z
M 38.03125 14.203125 
Q 39.453125 17.828125 40.03125 23.34375 
Q 40.625 28.859375 40.625 36.375 
Q 40.625 43.84375 40.03125 49.359375 
Q 39.453125 54.890625 37.984375 58.546875 
Q 36.53125 62.25 33.953125 64.171875 
Q 31.390625 66.109375 27.296875 66.109375 
Q 23.25 66.109375 20.625 64.171875 
Q 18.015625 62.25 16.5 58.453125 
Q 15.046875 54.734375 14.5 49.0625 
Q 13.96875 43.40625 13.96875 36.28125 
Q 13.96875 28.65625 14.421875 23.53125 
Q 14.890625 18.40625 16.453125 14.359375 
Q 17.875 10.59375 20.484375 8.5625 
Q 23.09375 6.546875 27.296875 6.546875 
Q 31.34375 6.546875 33.953125 8.46875 
Q 36.578125 10.40625 38.03125 14.203125 
z
" id="Tahoma-48"/>
       </defs>
       <use xlink:href="#Tahoma-48"/>
      </g>
     </g>
    </g>
    <g id="xtick_2">
     <g id="line2d_3">
      <path clip-path="url(#pdd67e44ef2)" d="M 115.426827 258.62226 
L 115.426827 24.2742 
" style="fill:none;stroke:#b0b0b0;stroke-linecap:square;stroke-width:0.8;"/>
     </g>
     <g id="line2d_4">
      <g>
       <use style="stroke:#000000;stroke-width:0.8;" x="115.426827" xlink:href="#m227752e23a" y="258.62226"/>
      </g>
     </g>
     <g id="text_2">
      <!-- 1 -->
      <g transform="translate(113.243077 271.70101)scale(0.08 -0.08)">
       <defs>
        <path d="M 46.484375 0 
L 11.03125 0 
L 11.03125 7.421875 
L 24.21875 7.421875 
L 24.21875 56.15625 
L 11.03125 56.15625 
L 11.03125 62.796875 
Q 18.5 62.796875 22.046875 64.921875 
Q 25.59375 67.046875 26.03125 72.953125 
L 33.59375 72.953125 
L 33.59375 7.421875 
L 46.484375 7.421875 
z
" id="Tahoma-49"/>
       </defs>
       <use xlink:href="#Tahoma-49"/>
      </g>
     </g>
    </g>
    <g id="xtick_3">
     <g id="line2d_5">
      <path clip-path="url(#pdd67e44ef2)" d="M 184.904663 258.62226 
L 184.904663 24.2742 
" style="fill:none;stroke:#b0b0b0;stroke-linecap:square;stroke-width:0.8;"/>
     </g>
     <g id="line2d_6">
      <g>
       <use style="stroke:#000000;stroke-width:0.8;" x="184.904663" xlink:href="#m227752e23a" y="258.62226"/>
      </g>
     </g>
     <g id="text_3">
      <!-- 2 -->
      <g transform="translate(182.720913 271.70101)scale(0.08 -0.08)">
       <defs>
        <path d="M 50.203125 0 
L 5.328125 0 
L 5.328125 10.203125 
Q 10.15625 14.796875 14.453125 18.984375 
Q 18.75 23.1875 22.859375 27.734375 
Q 31.15625 36.859375 34.171875 42.359375 
Q 37.203125 47.859375 37.203125 53.71875 
Q 37.203125 56.734375 36.25 59.03125 
Q 35.296875 61.328125 33.640625 62.84375 
Q 31.9375 64.3125 29.6875 65.03125 
Q 27.4375 65.765625 24.75 65.765625 
Q 22.171875 65.765625 19.5 65.109375 
Q 16.84375 64.453125 14.40625 63.484375 
Q 12.359375 62.640625 10.453125 61.46875 
Q 8.546875 60.296875 7.375 59.46875 
L 6.84375 59.46875 
L 6.84375 69.828125 
Q 9.859375 71.34375 15.25 72.78125 
Q 20.65625 74.21875 25.484375 74.21875 
Q 35.640625 74.21875 41.40625 68.8125 
Q 47.171875 63.421875 47.171875 54.203125 
Q 47.171875 49.953125 46.171875 46.328125 
Q 45.171875 42.71875 43.40625 39.65625 
Q 41.609375 36.46875 39.0625 33.34375 
Q 36.53125 30.21875 33.6875 27.203125 
Q 29.109375 22.21875 23.46875 16.84375 
Q 17.828125 11.46875 14.453125 8.34375 
L 50.203125 8.34375 
z
" id="Tahoma-50"/>
       </defs>
       <use xlink:href="#Tahoma-50"/>
      </g>
     </g>
    </g>
    <g id="xtick_4">
     <g id="line2d_7">
      <path clip-path="url(#pdd67e44ef2)" d="M 254.3825 258.62226 
L 254.3825 24.2742 
" style="fill:none;stroke:#b0b0b0;stroke-linecap:square;stroke-width:0.8;"/>
     </g>
     <g id="line2d_8">
      <g>
       <use style="stroke:#000000;stroke-width:0.8;" x="254.3825" xlink:href="#m227752e23a" y="258.62226"/>
      </g>
     </g>
     <g id="text_4">
      <!-- 3 -->
      <g transform="translate(252.19875 271.70101)scale(0.08 -0.08)">
       <defs>
        <path d="M 24.953125 65.765625 
Q 22.3125 65.765625 19.671875 65.125 
Q 17.046875 64.5 14.5 63.484375 
Q 12.15625 62.5 10.421875 61.421875 
Q 8.6875 60.359375 7.328125 59.421875 
L 6.734375 59.421875 
L 6.734375 69.734375 
Q 9.90625 71.4375 15.34375 72.828125 
Q 20.796875 74.21875 25.734375 74.21875 
Q 30.671875 74.21875 34.34375 73.21875 
Q 38.03125 72.21875 41.015625 70.125 
Q 44.234375 67.78125 45.875 64.453125 
Q 47.515625 61.140625 47.515625 56.6875 
Q 47.515625 50.6875 43.546875 46.140625 
Q 39.59375 41.609375 34.078125 40.375 
L 34.078125 39.703125 
Q 36.375 39.265625 38.984375 38.1875 
Q 41.609375 37.109375 43.84375 35.015625 
Q 46.09375 32.90625 47.5 29.609375 
Q 48.921875 26.3125 48.921875 21.578125 
Q 48.921875 16.65625 47.234375 12.53125 
Q 45.5625 8.40625 42.484375 5.21875 
Q 39.3125 1.90625 34.8125 0.1875 
Q 30.328125 -1.515625 24.609375 -1.515625 
Q 19.140625 -1.515625 13.765625 -0.1875 
Q 8.40625 1.125 4.734375 2.984375 
L 4.734375 13.28125 
L 5.421875 13.28125 
Q 8.5 11.03125 13.671875 8.984375 
Q 18.84375 6.9375 24.03125 6.9375 
Q 27 6.9375 30 7.890625 
Q 33.015625 8.84375 35.015625 10.984375 
Q 36.96875 13.140625 37.984375 15.71875 
Q 39.015625 18.3125 39.015625 22.265625 
Q 39.015625 26.21875 37.859375 28.75 
Q 36.71875 31.296875 34.671875 32.765625 
Q 32.625 34.234375 29.8125 34.796875 
Q 27 35.359375 23.734375 35.359375 
L 19.578125 35.359375 
L 19.578125 43.453125 
L 22.796875 43.453125 
Q 29.390625 43.453125 33.515625 46.578125 
Q 37.640625 49.703125 37.640625 55.671875 
Q 37.640625 58.40625 36.5625 60.375 
Q 35.5 62.359375 33.84375 63.53125 
Q 31.984375 64.796875 29.734375 65.28125 
Q 27.484375 65.765625 24.953125 65.765625 
z
" id="Tahoma-51"/>
       </defs>
       <use xlink:href="#Tahoma-51"/>
      </g>
     </g>
    </g>
    <g id="xtick_5">
     <g id="line2d_9">
      <path clip-path="url(#pdd67e44ef2)" d="M 323.860337 258.62226 
L 323.860337 24.2742 
" style="fill:none;stroke:#b0b0b0;stroke-linecap:square;stroke-width:0.8;"/>
     </g>
     <g id="line2d_10">
      <g>
       <use style="stroke:#000000;stroke-width:0.8;" x="323.860337" xlink:href="#m227752e23a" y="258.62226"/>
      </g>
     </g>
     <g id="text_5">
      <!-- 4 -->
      <g transform="translate(321.676587 271.70101)scale(0.08 -0.08)">
       <defs>
        <path d="M 52.09375 25 
L 43.453125 25 
L 43.453125 0 
L 34.078125 0 
L 34.078125 25 
L 1.953125 25 
L 1.953125 35.25 
L 34.46875 72.703125 
L 43.453125 72.703125 
L 43.453125 32.8125 
L 52.09375 32.8125 
z
M 34.078125 32.8125 
L 34.078125 61.234375 
L 9.578125 32.8125 
z
" id="Tahoma-52"/>
       </defs>
       <use xlink:href="#Tahoma-52"/>
      </g>
     </g>
    </g>
    <g id="xtick_6">
     <g id="line2d_11">
      <path clip-path="url(#pdd67e44ef2)" d="M 393.338173 258.62226 
L 393.338173 24.2742 
" style="fill:none;stroke:#b0b0b0;stroke-linecap:square;stroke-width:0.8;"/>
     </g>
     <g id="line2d_12">
      <g>
       <use style="stroke:#000000;stroke-width:0.8;" x="393.338173" xlink:href="#m227752e23a" y="258.62226"/>
      </g>
     </g>
     <g id="text_6">
      <!-- 5 -->
      <g transform="translate(391.154423 271.70101)scale(0.08 -0.08)">
       <defs>
        <path d="M 49.359375 23.140625 
Q 49.359375 17.875 47.671875 13.375 
Q 46 8.890625 42.96875 5.609375 
Q 39.890625 2.296875 35.328125 0.390625 
Q 30.765625 -1.515625 25.09375 -1.515625 
Q 19.875 -1.515625 14.8125 -0.359375 
Q 9.765625 0.78125 6.0625 2.640625 
L 6.0625 12.9375 
L 6.734375 12.9375 
Q 7.859375 12.109375 9.953125 11.0625 
Q 12.0625 10.015625 14.59375 9.078125 
Q 17.484375 8.0625 19.875 7.5 
Q 22.265625 6.9375 25.25 6.9375 
Q 28.171875 6.9375 30.953125 7.984375 
Q 33.734375 9.03125 35.75 11.375 
Q 37.546875 13.53125 38.5 16.40625 
Q 39.453125 19.28125 39.453125 23.1875 
Q 39.453125 27.046875 38.40625 29.53125 
Q 37.359375 32.03125 35.359375 33.640625 
Q 33.25 35.5 30.203125 36.25 
Q 27.15625 37.015625 23.390625 37.015625 
Q 19.4375 37.015625 15.421875 36.40625 
Q 11.421875 35.796875 9.03125 35.25 
L 9.03125 72.703125 
L 48.921875 72.703125 
L 48.921875 64.15625 
L 18.453125 64.15625 
L 18.453125 44.828125 
Q 20.21875 45.015625 21.921875 45.109375 
Q 23.640625 45.21875 25.046875 45.21875 
Q 30.609375 45.21875 34.46875 44.28125 
Q 38.328125 43.359375 41.890625 40.671875 
Q 45.515625 37.9375 47.4375 33.828125 
Q 49.359375 29.734375 49.359375 23.140625 
z
" id="Tahoma-53"/>
       </defs>
       <use xlink:href="#Tahoma-53"/>
      </g>
     </g>
    </g>
    <g id="xtick_7">
     <g id="line2d_13">
      <path clip-path="url(#pdd67e44ef2)" d="M 462.81601 258.62226 
L 462.81601 24.2742 
" style="fill:none;stroke:#b0b0b0;stroke-linecap:square;stroke-width:0.8;"/>
     </g>
     <g id="line2d_14">
      <g>
       <use style="stroke:#000000;stroke-width:0.8;" x="462.81601" xlink:href="#m227752e23a" y="258.62226"/>
      </g>
     </g>
     <g id="text_7">
      <!-- 6 -->
      <g transform="translate(460.63226 271.70101)scale(0.08 -0.08)">
       <defs>
        <path d="M 51.3125 23.578125 
Q 51.3125 17.96875 49.453125 13.234375 
Q 47.609375 8.5 44.484375 5.328125 
Q 41.21875 1.953125 37.15625 0.21875 
Q 33.109375 -1.515625 28.21875 -1.515625 
Q 23.296875 -1.515625 19.265625 0.140625 
Q 15.234375 1.8125 12.15625 5.078125 
Q 8.40625 9.03125 6.28125 15.640625 
Q 4.15625 22.265625 4.15625 31.9375 
Q 4.15625 41.40625 6.109375 49.046875 
Q 8.0625 56.6875 12.109375 62.359375 
Q 16.0625 67.875 22.3125 70.96875 
Q 28.5625 74.078125 36.765625 74.078125 
Q 39.203125 74.078125 41.296875 73.828125 
Q 43.40625 73.578125 45.015625 73.046875 
L 45.015625 63.71875 
L 44.578125 63.71875 
Q 43.265625 64.453125 40.765625 65.0625 
Q 38.28125 65.671875 35.453125 65.671875 
Q 26.375 65.671875 20.78125 59.546875 
Q 15.1875 53.421875 14.15625 41.359375 
Q 17.625 43.796875 21.28125 45.109375 
Q 24.953125 46.4375 29.296875 46.4375 
Q 33.546875 46.4375 36.734375 45.578125 
Q 39.9375 44.734375 43.40625 42.140625 
Q 47.40625 39.109375 49.359375 34.46875 
Q 51.3125 29.828125 51.3125 23.578125 
z
M 41.40625 23.1875 
Q 41.40625 27.6875 40.234375 30.703125 
Q 39.0625 33.734375 36.421875 35.890625 
Q 34.515625 37.453125 32.09375 37.9375 
Q 29.6875 38.421875 27.15625 38.421875 
Q 23.734375 38.421875 20.5 37.390625 
Q 17.28125 36.375 14.15625 34.421875 
Q 14.0625 33.34375 14.015625 32.34375 
Q 13.96875 31.34375 13.96875 29.828125 
Q 13.96875 22.265625 15.453125 17.625 
Q 16.9375 12.984375 19.140625 10.59375 
Q 21.234375 8.296875 23.453125 7.375 
Q 25.6875 6.453125 28.265625 6.453125 
Q 34.125 6.453125 37.765625 10.640625 
Q 41.40625 14.84375 41.40625 23.1875 
z
" id="Tahoma-54"/>
       </defs>
       <use xlink:href="#Tahoma-54"/>
      </g>
     </g>
    </g>
    <g id="text_8">
     <!-- impacts -->
     <g transform="translate(240.829375 283.38976)scale(0.08 -0.08)">
      <defs>
       <path d="M 16.015625 0 
L 6.84375 0 
L 6.84375 54.546875 
L 16.015625 54.546875 
z
M 16.65625 63.671875 
L 6.203125 63.671875 
L 6.203125 73.1875 
L 16.65625 73.1875 
z
" id="Tahoma-105"/>
       <path d="M 68.5625 0 
L 68.5625 31.546875 
Q 68.5625 35.296875 68.265625 38.5 
Q 67.96875 41.703125 67.046875 43.5 
Q 66.0625 45.453125 64.25 46.375 
Q 62.453125 47.3125 59.375 47.3125 
Q 56.546875 47.3125 53.296875 45.578125 
Q 50.046875 43.84375 46.578125 40.578125 
Q 46.625 39.75 46.703125 38.59375 
Q 46.78125 37.453125 46.78125 35.890625 
L 46.78125 0 
L 37.59375 0 
L 37.59375 31.546875 
Q 37.59375 35.296875 37.296875 38.5 
Q 37.015625 41.703125 36.078125 43.5 
Q 35.109375 45.453125 33.296875 46.375 
Q 31.5 47.3125 28.421875 47.3125 
Q 25.4375 47.3125 22.15625 45.453125 
Q 18.890625 43.609375 15.828125 40.71875 
L 15.828125 0 
L 6.640625 0 
L 6.640625 54.546875 
L 15.828125 54.546875 
L 15.828125 48.484375 
Q 19.4375 52.09375 22.96875 54.078125 
Q 26.515625 56.0625 30.765625 56.0625 
Q 35.59375 56.0625 39.328125 53.859375 
Q 43.0625 51.65625 45.015625 46.625 
Q 49.171875 51.265625 53.125 53.65625 
Q 57.078125 56.0625 61.71875 56.0625 
Q 65.234375 56.0625 68.109375 54.953125 
Q 71 53.859375 73.140625 51.421875 
Q 75.34375 48.921875 76.53125 45.203125 
Q 77.734375 41.5 77.734375 35.890625 
L 77.734375 0 
z
" id="Tahoma-109"/>
       <path d="M 52.390625 28.71875 
Q 52.390625 15.09375 45.875 7 
Q 39.359375 -1.078125 29.390625 -1.078125 
Q 25.34375 -1.078125 22.21875 -0.140625 
Q 19.09375 0.78125 15.828125 2.734375 
L 15.828125 -20.125 
L 6.640625 -20.125 
L 6.640625 54.546875 
L 15.828125 54.546875 
L 15.828125 48.828125 
Q 19.234375 51.90625 23.40625 53.984375 
Q 27.59375 56.0625 32.515625 56.0625 
Q 41.890625 56.0625 47.140625 48.640625 
Q 52.390625 41.21875 52.390625 28.71875 
z
M 42.921875 27.6875 
Q 42.921875 37.015625 39.9375 42.15625 
Q 36.96875 47.3125 30.28125 47.3125 
Q 26.375 47.3125 22.734375 45.578125 
Q 19.09375 43.84375 15.828125 41.109375 
L 15.828125 10.203125 
Q 19.4375 8.453125 22 7.8125 
Q 24.5625 7.171875 27.875 7.171875 
Q 35.015625 7.171875 38.96875 12.390625 
Q 42.921875 17.625 42.921875 27.6875 
z
" id="Tahoma-112"/>
       <path d="M 37.109375 13.421875 
L 37.109375 28.5625 
Q 33.84375 28.265625 28.828125 27.75 
Q 23.828125 27.25 20.75 26.3125 
Q 17.09375 25.203125 14.703125 22.875 
Q 12.3125 20.5625 12.3125 16.40625 
Q 12.3125 11.71875 14.9375 9.328125 
Q 17.578125 6.9375 22.65625 6.9375 
Q 27 6.9375 30.515625 8.8125 
Q 34.03125 10.6875 37.109375 13.421875 
z
M 37.109375 5.8125 
Q 35.984375 4.984375 34.109375 3.484375 
Q 32.234375 2 30.46875 1.125 
Q 28.03125 -0.140625 25.75 -0.828125 
Q 23.484375 -1.515625 19.390625 -1.515625 
Q 16.015625 -1.515625 12.984375 -0.234375 
Q 9.96875 1.03125 7.671875 3.328125 
Q 5.46875 5.5625 4.140625 8.859375 
Q 2.828125 12.15625 2.828125 15.828125 
Q 2.828125 21.484375 5.21875 25.453125 
Q 7.625 29.4375 12.796875 31.78125 
Q 17.390625 33.890625 23.640625 34.6875 
Q 29.890625 35.5 37.109375 35.890625 
L 37.109375 37.640625 
Q 37.109375 40.875 36.125 42.84375 
Q 35.15625 44.828125 33.40625 45.90625 
Q 31.640625 47.015625 29.09375 47.375 
Q 26.5625 47.75 23.875 47.75 
Q 20.703125 47.75 16.40625 46.796875 
Q 12.109375 45.84375 7.8125 44.046875 
L 7.28125 44.046875 
L 7.28125 53.375 
Q 9.8125 54.109375 14.546875 54.984375 
Q 19.28125 55.859375 23.921875 55.859375 
Q 29.546875 55.859375 33.390625 54.984375 
Q 37.25 54.109375 40.328125 51.8125 
Q 43.3125 49.5625 44.765625 46 
Q 46.234375 42.4375 46.234375 37.3125 
L 46.234375 0 
L 37.109375 0 
z
" id="Tahoma-97"/>
       <path d="M 28.328125 -1.21875 
Q 22.703125 -1.21875 18.015625 0.515625 
Q 13.328125 2.25 9.96875 5.765625 
Q 6.59375 9.28125 4.734375 14.625 
Q 2.875 19.96875 2.875 27.203125 
Q 2.875 34.375 4.796875 39.59375 
Q 6.734375 44.828125 9.96875 48.390625 
Q 13.1875 51.953125 17.984375 53.875 
Q 22.796875 55.8125 28.328125 55.8125 
Q 32.8125 55.8125 36.984375 54.53125 
Q 41.15625 53.265625 44.4375 51.609375 
L 44.4375 41.3125 
L 43.890625 41.3125 
Q 42.921875 42.140625 41.375 43.203125 
Q 39.84375 44.28125 37.640625 45.40625 
Q 35.75 46.390625 33.15625 47.125 
Q 30.5625 47.859375 28.171875 47.859375 
Q 21.046875 47.859375 16.71875 42.453125 
Q 12.40625 37.0625 12.40625 27.203125 
Q 12.40625 17.53125 16.578125 12.125 
Q 20.75 6.734375 28.171875 6.734375 
Q 32.671875 6.734375 36.71875 8.59375 
Q 40.765625 10.453125 43.890625 13.375 
L 44.4375 13.375 
L 44.4375 3.078125 
Q 43.0625 2.4375 41.015625 1.53125 
Q 38.96875 0.640625 37.3125 0.203125 
Q 34.96875 -0.484375 33.109375 -0.84375 
Q 31.25 -1.21875 28.328125 -1.21875 
z
" id="Tahoma-99"/>
       <path d="M 23.140625 -1.078125 
Q 15.625 -1.078125 11.421875 3.1875 
Q 7.234375 7.46875 7.234375 16.703125 
L 7.234375 46.921875 
L 1.03125 46.921875 
L 1.03125 54.546875 
L 7.234375 54.546875 
L 7.234375 70.21875 
L 16.40625 70.21875 
L 16.40625 54.546875 
L 33.296875 54.546875 
L 33.296875 46.921875 
L 16.40625 46.921875 
L 16.40625 21 
Q 16.40625 16.84375 16.546875 14.59375 
Q 16.703125 12.359375 17.671875 10.40625 
Q 18.5 8.6875 20.359375 7.828125 
Q 22.21875 6.984375 25.390625 6.984375 
Q 27.640625 6.984375 29.734375 7.640625 
Q 31.84375 8.296875 32.765625 8.734375 
L 33.296875 8.734375 
L 33.296875 0.484375 
Q 30.71875 -0.25 28.046875 -0.65625 
Q 25.390625 -1.078125 23.140625 -1.078125 
z
" id="Tahoma-116"/>
       <path d="M 21.390625 -1.3125 
Q 15.921875 -1.3125 11.15625 0.140625 
Q 6.390625 1.609375 3.265625 3.265625 
L 3.265625 13.578125 
L 3.765625 13.578125 
Q 4.9375 12.640625 6.515625 11.515625 
Q 8.109375 10.40625 10.75 9.1875 
Q 13.09375 8.109375 15.890625 7.28125 
Q 18.703125 6.453125 21.734375 6.453125 
Q 23.921875 6.453125 26.40625 6.953125 
Q 28.90625 7.46875 30.125 8.25 
Q 31.84375 9.375 32.59375 10.640625 
Q 33.34375 11.921875 33.34375 14.453125 
Q 33.34375 17.71875 31.5625 19.375 
Q 29.78125 21.046875 25.25 22.171875 
Q 23.484375 22.609375 20.65625 23.1875 
Q 17.828125 23.78125 15.4375 24.46875 
Q 9.1875 26.265625 6.34375 30.046875 
Q 3.515625 33.84375 3.515625 39.203125 
Q 3.515625 46.578125 9.078125 51.21875 
Q 14.65625 55.859375 23.875 55.859375 
Q 28.421875 55.859375 33 54.734375 
Q 37.59375 53.609375 40.71875 51.90625 
L 40.71875 42.09375 
L 40.234375 42.09375 
Q 36.71875 44.875 32.390625 46.484375 
Q 28.078125 48.09375 23.6875 48.09375 
Q 19.140625 48.09375 16.015625 46.1875 
Q 12.890625 44.28125 12.890625 40.4375 
Q 12.890625 37.015625 14.75 35.328125 
Q 16.609375 33.640625 20.703125 32.5625 
Q 22.75 32.03125 25.265625 31.515625 
Q 27.78125 31 30.5625 30.328125 
Q 36.625 28.8125 39.671875 25.296875 
Q 42.71875 21.78125 42.71875 15.71875 
Q 42.71875 12.203125 41.328125 9.046875 
Q 39.9375 5.90625 37.25 3.65625 
Q 34.328125 1.21875 30.640625 -0.046875 
Q 26.953125 -1.3125 21.390625 -1.3125 
z
" id="Tahoma-115"/>
      </defs>
      <use xlink:href="#Tahoma-105"/>
      <use x="22.851562" xlink:href="#Tahoma-109"/>
      <use x="106.835938" xlink:href="#Tahoma-112"/>
      <use x="162.109375" xlink:href="#Tahoma-97"/>
      <use x="214.599609" xlink:href="#Tahoma-99"/>
      <use x="260.742188" xlink:href="#Tahoma-116"/>
      <use x="294.189453" xlink:href="#Tahoma-115"/>
     </g>
    </g>
   </g>
   <g id="matplotlib.axis_2">
    <g id="ytick_1">
     <g id="line2d_15">
      <path clip-path="url(#pdd67e44ef2)" d="M 45.94899 258.62226 
L 462.81601 258.62226 
" style="fill:none;stroke:#b0b0b0;stroke-linecap:square;stroke-width:0.8;"/>
     </g>
     <g id="line2d_16">
      <defs>
       <path d="M 0 0 
L -3.5 0 
" id="mdbe43062b5" style="stroke:#000000;stroke-width:0.8;"/>
      </defs>
      <g>
       <use style="stroke:#000000;stroke-width:0.8;" x="45.94899" xlink:href="#mdbe43062b5" y="258.62226"/>
      </g>
     </g>
     <g id="text_9">
      <!-- 0.0000 -->
      <g transform="translate(14.68899 261.661635)scale(0.08 -0.08)">
       <defs>
        <path d="M 20.953125 0 
L 9.28125 0 
L 9.28125 13.921875 
L 20.953125 13.921875 
z
" id="Tahoma-46"/>
       </defs>
       <use xlink:href="#Tahoma-48"/>
       <use x="54.589844" xlink:href="#Tahoma-46"/>
       <use x="84.863281" xlink:href="#Tahoma-48"/>
       <use x="139.453125" xlink:href="#Tahoma-48"/>
       <use x="194.042969" xlink:href="#Tahoma-48"/>
       <use x="248.632812" xlink:href="#Tahoma-48"/>
      </g>
     </g>
    </g>
    <g id="ytick_2">
     <g id="line2d_17">
      <path clip-path="url(#pdd67e44ef2)" d="M 45.94899 231.991799 
L 462.81601 231.991799 
" style="fill:none;stroke:#b0b0b0;stroke-linecap:square;stroke-width:0.8;"/>
     </g>
     <g id="line2d_18">
      <g>
       <use style="stroke:#000000;stroke-width:0.8;" x="45.94899" xlink:href="#mdbe43062b5" y="231.991799"/>
      </g>
     </g>
     <g id="text_10">
      <!-- 0.0250 -->
      <g transform="translate(14.68899 235.031174)scale(0.08 -0.08)">
       <use xlink:href="#Tahoma-48"/>
       <use x="54.589844" xlink:href="#Tahoma-46"/>
       <use x="84.863281" xlink:href="#Tahoma-48"/>
       <use x="139.453125" xlink:href="#Tahoma-50"/>
       <use x="194.042969" xlink:href="#Tahoma-53"/>
       <use x="248.632812" xlink:href="#Tahoma-48"/>
      </g>
     </g>
    </g>
    <g id="ytick_3">
     <g id="line2d_19">
      <path clip-path="url(#pdd67e44ef2)" d="M 45.94899 205.361337 
L 462.81601 205.361337 
" style="fill:none;stroke:#b0b0b0;stroke-linecap:square;stroke-width:0.8;"/>
     </g>
     <g id="line2d_20">
      <g>
       <use style="stroke:#000000;stroke-width:0.8;" x="45.94899" xlink:href="#mdbe43062b5" y="205.361337"/>
      </g>
     </g>
     <g id="text_11">
      <!-- 0.0500 -->
      <g transform="translate(14.68899 208.400712)scale(0.08 -0.08)">
       <use xlink:href="#Tahoma-48"/>
       <use x="54.589844" xlink:href="#Tahoma-46"/>
       <use x="84.863281" xlink:href="#Tahoma-48"/>
       <use x="139.453125" xlink:href="#Tahoma-53"/>
       <use x="194.042969" xlink:href="#Tahoma-48"/>
       <use x="248.632812" xlink:href="#Tahoma-48"/>
      </g>
     </g>
    </g>
    <g id="ytick_4">
     <g id="line2d_21">
      <path clip-path="url(#pdd67e44ef2)" d="M 45.94899 178.730876 
L 462.81601 178.730876 
" style="fill:none;stroke:#b0b0b0;stroke-linecap:square;stroke-width:0.8;"/>
     </g>
     <g id="line2d_22">
      <g>
       <use style="stroke:#000000;stroke-width:0.8;" x="45.94899" xlink:href="#mdbe43062b5" y="178.730876"/>
      </g>
     </g>
     <g id="text_12">
      <!-- 0.0750 -->
      <g transform="translate(14.68899 181.770251)scale(0.08 -0.08)">
       <defs>
        <path d="M 50.984375 61.8125 
L 19.53125 0 
L 9.125 0 
L 42.4375 64.15625 
L 4.828125 64.15625 
L 4.828125 72.703125 
L 50.984375 72.703125 
z
" id="Tahoma-55"/>
       </defs>
       <use xlink:href="#Tahoma-48"/>
       <use x="54.589844" xlink:href="#Tahoma-46"/>
       <use x="84.863281" xlink:href="#Tahoma-48"/>
       <use x="139.453125" xlink:href="#Tahoma-55"/>
       <use x="194.042969" xlink:href="#Tahoma-53"/>
       <use x="248.632812" xlink:href="#Tahoma-48"/>
      </g>
     </g>
    </g>
    <g id="ytick_5">
     <g id="line2d_23">
      <path clip-path="url(#pdd67e44ef2)" d="M 45.94899 152.100415 
L 462.81601 152.100415 
" style="fill:none;stroke:#b0b0b0;stroke-linecap:square;stroke-width:0.8;"/>
     </g>
     <g id="line2d_24">
      <g>
       <use style="stroke:#000000;stroke-width:0.8;" x="45.94899" xlink:href="#mdbe43062b5" y="152.100415"/>
      </g>
     </g>
     <g id="text_13">
      <!-- 0.1000 -->
      <g transform="translate(14.68899 155.13979)scale(0.08 -0.08)">
       <use xlink:href="#Tahoma-48"/>
       <use x="54.589844" xlink:href="#Tahoma-46"/>
       <use x="84.863281" xlink:href="#Tahoma-49"/>
       <use x="139.453125" xlink:href="#Tahoma-48"/>
       <use x="194.042969" xlink:href="#Tahoma-48"/>
       <use x="248.632812" xlink:href="#Tahoma-48"/>
      </g>
     </g>
    </g>
    <g id="ytick_6">
     <g id="line2d_25">
      <path clip-path="url(#pdd67e44ef2)" d="M 45.94899 125.469953 
L 462.81601 125.469953 
" style="fill:none;stroke:#b0b0b0;stroke-linecap:square;stroke-width:0.8;"/>
     </g>
     <g id="line2d_26">
      <g>
       <use style="stroke:#000000;stroke-width:0.8;" x="45.94899" xlink:href="#mdbe43062b5" y="125.469953"/>
      </g>
     </g>
     <g id="text_14">
      <!-- 0.1250 -->
      <g transform="translate(14.68899 128.509328)scale(0.08 -0.08)">
       <use xlink:href="#Tahoma-48"/>
       <use x="54.589844" xlink:href="#Tahoma-46"/>
       <use x="84.863281" xlink:href="#Tahoma-49"/>
       <use x="139.453125" xlink:href="#Tahoma-50"/>
       <use x="194.042969" xlink:href="#Tahoma-53"/>
       <use x="248.632812" xlink:href="#Tahoma-48"/>
      </g>
     </g>
    </g>
    <g id="ytick_7">
     <g id="line2d_27">
      <path clip-path="url(#pdd67e44ef2)" d="M 45.94899 98.839492 
L 462.81601 98.839492 
" style="fill:none;stroke:#b0b0b0;stroke-linecap:square;stroke-width:0.8;"/>
     </g>
     <g id="line2d_28">
      <g>
       <use style="stroke:#000000;stroke-width:0.8;" x="45.94899" xlink:href="#mdbe43062b5" y="98.839492"/>
      </g>
     </g>
     <g id="text_15">
      <!-- 0.1500 -->
      <g transform="translate(14.68899 101.878867)scale(0.08 -0.08)">
       <use xlink:href="#Tahoma-48"/>
       <use x="54.589844" xlink:href="#Tahoma-46"/>
       <use x="84.863281" xlink:href="#Tahoma-49"/>
       <use x="139.453125" xlink:href="#Tahoma-53"/>
       <use x="194.042969" xlink:href="#Tahoma-48"/>
       <use x="248.632812" xlink:href="#Tahoma-48"/>
      </g>
     </g>
    </g>
    <g id="ytick_8">
     <g id="line2d_29">
      <path clip-path="url(#pdd67e44ef2)" d="M 45.94899 72.20903 
L 462.81601 72.20903 
" style="fill:none;stroke:#b0b0b0;stroke-linecap:square;stroke-width:0.8;"/>
     </g>
     <g id="line2d_30">
      <g>
       <use style="stroke:#000000;stroke-width:0.8;" x="45.94899" xlink:href="#mdbe43062b5" y="72.20903"/>
      </g>
     </g>
     <g id="text_16">
      <!-- 0.1750 -->
      <g transform="translate(14.68899 75.248405)scale(0.08 -0.08)">
       <use xlink:href="#Tahoma-48"/>
       <use x="54.589844" xlink:href="#Tahoma-46"/>
       <use x="84.863281" xlink:href="#Tahoma-49"/>
       <use x="139.453125" xlink:href="#Tahoma-55"/>
       <use x="194.042969" xlink:href="#Tahoma-53"/>
       <use x="248.632812" xlink:href="#Tahoma-48"/>
      </g>
     </g>
    </g>
    <g id="ytick_9">
     <g id="line2d_31">
      <path clip-path="url(#pdd67e44ef2)" d="M 45.94899 45.578569 
L 462.81601 45.578569 
" style="fill:none;stroke:#b0b0b0;stroke-linecap:square;stroke-width:0.8;"/>
     </g>
     <g id="line2d_32">
      <g>
       <use style="stroke:#000000;stroke-width:0.8;" x="45.94899" xlink:href="#mdbe43062b5" y="45.578569"/>
      </g>
     </g>
     <g id="text_17">
      <!-- 0.2000 -->
      <g transform="translate(14.68899 48.617944)scale(0.08 -0.08)">
       <use xlink:href="#Tahoma-48"/>
       <use x="54.589844" xlink:href="#Tahoma-46"/>
       <use x="84.863281" xlink:href="#Tahoma-50"/>
       <use x="139.453125" xlink:href="#Tahoma-48"/>
       <use x="194.042969" xlink:href="#Tahoma-48"/>
       <use x="248.632812" xlink:href="#Tahoma-48"/>
      </g>
     </g>
    </g>
    <g id="text_18">
     <!-- AEP -->
     <g transform="translate(9.07899 148.296355)rotate(-90)scale(0.08 -0.08)">
      <defs>
       <path d="M -0.484375 0 
L 24.03125 72.703125 
L 35.9375 72.703125 
L 60.453125 0 
L 50.25 0 
L 43.65625 20.3125 
L 15.875 20.3125 
L 9.28125 0 
z
M 40.96875 28.5625 
L 29.734375 62.84375 
L 18.5625 28.5625 
z
" id="Tahoma-65"/>
       <path d="M 7.375 0 
L 7.375 72.703125 
L 52.828125 72.703125 
L 52.828125 64.109375 
L 17.046875 64.109375 
L 17.046875 44.1875 
L 50.390625 44.1875 
L 50.390625 35.59375 
L 17.046875 35.59375 
L 17.046875 8.59375 
L 52.828125 8.59375 
L 52.828125 0 
z
" id="Tahoma-69"/>
       <path d="M 53.265625 50.78125 
Q 53.265625 46.046875 51.578125 41.8125 
Q 49.90625 37.59375 46.921875 34.625 
Q 43.171875 30.90625 38.09375 29 
Q 33.015625 27.09375 25.25 27.09375 
L 17.046875 27.09375 
L 17.046875 0 
L 7.375 0 
L 7.375 72.703125 
L 25.640625 72.703125 
Q 32.078125 72.703125 36.609375 71.625 
Q 41.15625 70.5625 44.625 68.171875 
Q 48.6875 65.375 50.96875 61.109375 
Q 53.265625 56.84375 53.265625 50.78125 
z
M 43.21875 50.53125 
Q 43.21875 54.296875 41.921875 57.078125 
Q 40.625 59.859375 37.984375 61.625 
Q 35.6875 63.140625 32.640625 63.765625 
Q 29.59375 64.40625 25.046875 64.40625 
L 17.046875 64.40625 
L 17.046875 35.359375 
L 23.640625 35.359375 
Q 29.5 35.359375 33.109375 36.296875 
Q 36.71875 37.25 39.109375 39.703125 
Q 41.265625 41.890625 42.234375 44.484375 
Q 43.21875 47.078125 43.21875 50.53125 
z
" id="Tahoma-80"/>
      </defs>
      <use xlink:href="#Tahoma-65"/>
      <use x="59.960938" xlink:href="#Tahoma-69"/>
      <use x="116.064453" xlink:href="#Tahoma-80"/>
     </g>
    </g>
   </g>
   <g id="line2d_33">
    <path clip-path="url(#pdd67e44ef2)" d="M 45.94899 45.578569 
L 45.94899 205.361337 
L 94.583476 247.970075 
L 289.121418 253.296168 
L 393.338173 256.491823 
L 462.81601 258.62226 
" style="fill:none;stroke:#000000;stroke-dasharray:12.8,3.2,2,3.2;stroke-dashoffset:0;stroke-opacity:0.75;stroke-width:2;"/>
    <defs>
     <path d="M 0 2 
C 0.530406 2 1.03916 1.789267 1.414214 1.414214 
C 1.789267 1.03916 2 0.530406 2 0 
C 2 -0.530406 1.789267 -1.03916 1.414214 -1.414214 
C 1.03916 -1.789267 0.530406 -2 0 -2 
C -0.530406 -2 -1.03916 -1.789267 -1.414214 -1.414214 
C -1.789267 -1.03916 -2 -0.530406 -2 0 
C -2 0.530406 -1.789267 1.03916 -1.414214 1.414214 
C -1.03916 1.789267 -0.530406 2 0 2 
z
" id="m092542f4eb" style="stroke:#000000;stroke-opacity:0.75;"/>
    </defs>
    <g clip-path="url(#pdd67e44ef2)">
     <use style="fill-opacity:0;stroke:#000000;stroke-opacity:0.75;" x="45.94899" xlink:href="#m092542f4eb" y="45.578569"/>
     <use style="fill-opacity:0;stroke:#000000;stroke-opacity:0.75;" x="45.94899" xlink:href="#m092542f4eb" y="205.361337"/>
     <use style="fill-opacity:0;stroke:#000000;stroke-opacity:0.75;" x="94.583476" xlink:href="#m092542f4eb" y="247.970075"/>
     <use style="fill-opacity:0;stroke:#000000;stroke-opacity:0.75;" x="289.121418" xlink:href="#m092542f4eb" y="253.296168"/>
     <use style="fill-opacity:0;stroke:#000000;stroke-opacity:0.75;" x="393.338173" xlink:href="#m092542f4eb" y="256.491823"/>
     <use style="fill-opacity:0;stroke:#000000;stroke-opacity:0.75;" x="462.81601" xlink:href="#m092542f4eb" y="258.62226"/>
    </g>
   </g>
   <g id="patch_3">
    <path d="M 45.94899 258.62226 
L 45.94899 24.2742 
" style="fill:none;stroke:#000000;stroke-linecap:square;stroke-linejoin:miter;stroke-width:0.8;"/>
   </g>
   <g id="patch_4">
    <path d="M 462.81601 258.62226 
L 462.81601 24.2742 
" style="fill:none;stroke:#000000;stroke-linecap:square;stroke-linejoin:miter;stroke-width:0.8;"/>
   </g>
   <g id="patch_5">
    <path d="M 45.94899 258.62226 
L 462.81601 258.62226 
" style="fill:none;stroke:#000000;stroke-linecap:square;stroke-linejoin:miter;stroke-width:0.8;"/>
   </g>
   <g id="patch_6">
    <path d="M 45.94899 24.2742 
L 462.81601 24.2742 
" style="fill:none;stroke:#000000;stroke-linecap:square;stroke-linejoin:miter;stroke-width:0.8;"/>
   </g>
   <g id="text_19">
    <!-- annualized impacts = 0 impacts  -->
    <g transform="translate(171.009096 55.681924)scale(0.08 -0.08)">
     <defs>
      <path d="M 49.515625 0 
L 40.328125 0 
L 40.328125 31.0625 
Q 40.328125 34.8125 39.953125 38.0625 
Q 39.59375 41.3125 38.578125 43.265625 
Q 37.453125 45.3125 35.453125 46.3125 
Q 33.453125 47.3125 29.984375 47.3125 
Q 26.5625 47.3125 22.921875 45.484375 
Q 19.28125 43.65625 15.828125 40.71875 
L 15.828125 0 
L 6.640625 0 
L 6.640625 54.546875 
L 15.828125 54.546875 
L 15.828125 48.484375 
Q 19.921875 52.15625 23.921875 54.109375 
Q 27.9375 56.0625 32.375 56.0625 
Q 40.4375 56.0625 44.96875 50.75 
Q 49.515625 45.453125 49.515625 35.40625 
z
" id="Tahoma-110"/>
      <path d="M 49.125 0 
L 39.9375 0 
L 39.9375 6.0625 
Q 35.6875 2.34375 31.875 0.40625 
Q 28.078125 -1.515625 23.390625 -1.515625 
Q 19.828125 -1.515625 16.671875 -0.34375 
Q 13.53125 0.828125 11.1875 3.375 
Q 8.84375 5.90625 7.546875 9.765625 
Q 6.25 13.625 6.25 19.140625 
L 6.25 54.546875 
L 15.4375 54.546875 
L 15.4375 23.484375 
Q 15.4375 19.140625 15.75 16.28125 
Q 16.0625 13.421875 17.1875 11.28125 
Q 18.3125 9.1875 20.234375 8.203125 
Q 22.171875 7.234375 25.78125 7.234375 
Q 29.15625 7.234375 32.953125 9.125 
Q 36.765625 11.03125 39.9375 13.8125 
L 39.9375 54.546875 
L 49.125 54.546875 
z
" id="Tahoma-117"/>
      <path d="M 16.015625 0 
L 6.84375 0 
L 6.84375 75.984375 
L 16.015625 75.984375 
z
" id="Tahoma-108"/>
      <path d="M 42.484375 0 
L 2.390625 0 
L 2.390625 6.78125 
L 30.90625 46.96875 
L 3.5625 46.96875 
L 3.5625 54.546875 
L 41.9375 54.546875 
L 41.9375 48 
L 13.28125 7.671875 
L 42.484375 7.671875 
z
" id="Tahoma-122"/>
      <path d="M 30.328125 -1.265625 
Q 17.28125 -1.265625 10.078125 6.078125 
Q 2.875 13.421875 2.875 26.953125 
Q 2.875 40.28125 9.859375 48.171875 
Q 16.84375 56.0625 28.125 56.0625 
Q 33.203125 56.0625 37.109375 54.59375 
Q 41.015625 53.125 43.953125 50 
Q 46.875 46.875 48.4375 42.359375 
Q 50 37.84375 50 31.296875 
L 50 26.3125 
L 12.203125 26.3125 
Q 12.203125 16.796875 16.984375 11.765625 
Q 21.78125 6.734375 30.21875 6.734375 
Q 33.25 6.734375 36.15625 7.421875 
Q 39.0625 8.109375 41.40625 9.1875 
Q 43.890625 10.296875 45.59375 11.34375 
Q 47.3125 12.40625 48.4375 13.328125 
L 48.96875 13.328125 
L 48.96875 3.328125 
Q 47.359375 2.6875 44.96875 1.734375 
Q 42.578125 0.78125 40.671875 0.25 
Q 37.984375 -0.484375 35.8125 -0.875 
Q 33.640625 -1.265625 30.328125 -1.265625 
z
M 41.0625 33.34375 
Q 40.96875 37.0625 40.1875 39.75 
Q 39.40625 42.4375 37.9375 44.28125 
Q 36.328125 46.34375 33.8125 47.40625 
Q 31.296875 48.484375 27.59375 48.484375 
Q 23.921875 48.484375 21.359375 47.390625 
Q 18.796875 46.296875 16.703125 44.1875 
Q 14.65625 42.046875 13.578125 39.421875 
Q 12.5 36.8125 12.203125 33.34375 
z
" id="Tahoma-101"/>
      <path d="M 48.640625 0 
L 39.453125 0 
L 39.453125 5.5625 
Q 37.3125 3.765625 35.75 2.59375 
Q 34.1875 1.421875 32.078125 0.4375 
Q 30.125 -0.484375 28.015625 -1 
Q 25.921875 -1.515625 23.140625 -1.515625 
Q 18.703125 -1.515625 14.921875 0.34375 
Q 11.140625 2.203125 8.5 5.765625 
Q 5.8125 9.375 4.34375 14.671875 
Q 2.875 19.96875 2.875 26.859375 
Q 2.875 34.03125 4.734375 39.28125 
Q 6.59375 44.53125 9.859375 48.4375 
Q 12.84375 52 17.0625 54.03125 
Q 21.296875 56.0625 25.921875 56.0625 
Q 30.03125 56.0625 33.046875 55.15625 
Q 36.078125 54.25 39.453125 52.34375 
L 39.453125 75.984375 
L 48.640625 75.984375 
z
M 39.453125 13.28125 
L 39.453125 44.734375 
Q 36.03125 46.390625 33.3125 47.015625 
Q 30.609375 47.65625 27.4375 47.65625 
Q 20.359375 47.65625 16.359375 42.359375 
Q 12.359375 37.0625 12.359375 27.046875 
Q 12.359375 17.4375 15.421875 12.328125 
Q 18.5 7.234375 25.296875 7.234375 
Q 28.90625 7.234375 32.5625 8.859375 
Q 36.234375 10.5 39.453125 13.28125 
z
" id="Tahoma-100"/>
      <path id="Tahoma-32"/>
      <path d="M 63.375 38.1875 
L 9.375 38.1875 
L 9.375 46 
L 63.375 46 
z
M 63.375 17.671875 
L 9.375 17.671875 
L 9.375 25.484375 
L 63.375 25.484375 
z
" id="Tahoma-61"/>
     </defs>
     <use xlink:href="#Tahoma-97"/>
     <use x="52.490234" xlink:href="#Tahoma-110"/>
     <use x="108.251953" xlink:href="#Tahoma-110"/>
     <use x="164.013672" xlink:href="#Tahoma-117"/>
     <use x="219.775391" xlink:href="#Tahoma-97"/>
     <use x="272.265625" xlink:href="#Tahoma-108"/>
     <use x="295.242188" xlink:href="#Tahoma-105"/>
     <use x="318.09375" xlink:href="#Tahoma-122"/>
     <use x="362.027344" xlink:href="#Tahoma-101"/>
     <use x="414.664062" xlink:href="#Tahoma-100"/>
     <use x="469.9375" xlink:href="#Tahoma-32"/>
     <use x="501.1875" xlink:href="#Tahoma-105"/>
     <use x="524.039062" xlink:href="#Tahoma-109"/>
     <use x="608.023438" xlink:href="#Tahoma-112"/>
     <use x="663.296875" xlink:href="#Tahoma-97"/>
     <use x="715.787109" xlink:href="#Tahoma-99"/>
     <use x="761.929688" xlink:href="#Tahoma-116"/>
     <use x="795.376953" xlink:href="#Tahoma-115"/>
     <use x="840.005859" xlink:href="#Tahoma-32"/>
     <use x="871.255859" xlink:href="#Tahoma-61"/>
     <use x="944.009766" xlink:href="#Tahoma-32"/>
     <use x="975.259766" xlink:href="#Tahoma-48"/>
     <use x="1029.849609" xlink:href="#Tahoma-32"/>
     <use x="1061.099609" xlink:href="#Tahoma-105"/>
     <use x="1083.951172" xlink:href="#Tahoma-109"/>
     <use x="1167.935547" xlink:href="#Tahoma-112"/>
     <use x="1223.208984" xlink:href="#Tahoma-97"/>
     <use x="1275.699219" xlink:href="#Tahoma-99"/>
     <use x="1321.841797" xlink:href="#Tahoma-116"/>
     <use x="1355.289062" xlink:href="#Tahoma-115"/>
     <use x="1399.917969" xlink:href="#Tahoma-32"/>
    </g>
    <!-- ltail='extrapolate'  -->
    <g transform="translate(171.009096 64.586424)scale(0.08 -0.08)">
     <defs>
      <path d="M 15.96875 75.984375 
L 13.875 47.703125 
L 7.234375 47.703125 
L 5.125 75.984375 
z
" id="Tahoma-39"/>
      <path d="M 49.03125 0 
L 37.75 0 
L 24.515625 20.609375 
L 10.890625 0 
L 0.484375 0 
L 19.4375 27.046875 
L 0.6875 54.546875 
L 11.96875 54.546875 
L 25.09375 34.125 
L 38.578125 54.546875 
L 49.03125 54.546875 
L 30.171875 27.6875 
z
" id="Tahoma-120"/>
      <path d="M 35.546875 44.671875 
L 35.0625 44.671875 
Q 34.03125 44.96875 32.875 45.046875 
Q 31.734375 45.125 30.125 45.125 
Q 26.421875 45.125 22.75 43.5 
Q 19.09375 41.890625 15.828125 38.71875 
L 15.828125 0 
L 6.640625 0 
L 6.640625 54.546875 
L 15.828125 54.546875 
L 15.828125 46.4375 
Q 20.84375 50.875 24.578125 52.703125 
Q 28.328125 54.546875 31.84375 54.546875 
Q 33.25 54.546875 33.953125 54.46875 
Q 34.671875 54.390625 35.546875 54.25 
z
" id="Tahoma-114"/>
      <path d="M 51.515625 27.25 
Q 51.515625 13.484375 44.875 5.984375 
Q 38.234375 -1.515625 27.203125 -1.515625 
Q 15.828125 -1.515625 9.296875 6.21875 
Q 2.78125 13.96875 2.78125 27.25 
Q 2.78125 40.921875 9.5 48.484375 
Q 16.21875 56.0625 27.203125 56.0625 
Q 38.234375 56.0625 44.875 48.515625 
Q 51.515625 40.96875 51.515625 27.25 
z
M 42.046875 27.25 
Q 42.046875 37.84375 38.1875 42.984375 
Q 34.328125 48.140625 27.203125 48.140625 
Q 20.015625 48.140625 16.125 42.984375 
Q 12.25 37.84375 12.25 27.25 
Q 12.25 17 16.125 11.6875 
Q 20.015625 6.390625 27.203125 6.390625 
Q 34.28125 6.390625 38.15625 11.59375 
Q 42.046875 16.796875 42.046875 27.25 
z
" id="Tahoma-111"/>
     </defs>
     <use xlink:href="#Tahoma-108"/>
     <use x="23.101562" xlink:href="#Tahoma-116"/>
     <use x="56.548828" xlink:href="#Tahoma-97"/>
     <use x="109.039062" xlink:href="#Tahoma-105"/>
     <use x="132.015625" xlink:href="#Tahoma-108"/>
     <use x="154.867188" xlink:href="#Tahoma-61"/>
     <use x="227.621094" xlink:href="#Tahoma-39"/>
     <use x="248.714844" xlink:href="#Tahoma-101"/>
     <use x="301.351562" xlink:href="#Tahoma-120"/>
     <use x="350.863281" xlink:href="#Tahoma-116"/>
     <use x="384.310547" xlink:href="#Tahoma-114"/>
     <use x="418.595703" xlink:href="#Tahoma-97"/>
     <use x="471.085938" xlink:href="#Tahoma-112"/>
     <use x="526.359375" xlink:href="#Tahoma-111"/>
     <use x="580.65625" xlink:href="#Tahoma-108"/>
     <use x="603.507812" xlink:href="#Tahoma-97"/>
     <use x="655.998047" xlink:href="#Tahoma-116"/>
     <use x="689.445312" xlink:href="#Tahoma-101"/>
     <use x="742.082031" xlink:href="#Tahoma-39"/>
     <use x="763.175781" xlink:href="#Tahoma-32"/>
    </g>
    <!-- rtail='0.2' -->
    <g transform="translate(171.009096 73.490924)scale(0.08 -0.08)">
     <use xlink:href="#Tahoma-114"/>
     <use x="36.035156" xlink:href="#Tahoma-116"/>
     <use x="69.482422" xlink:href="#Tahoma-97"/>
     <use x="121.972656" xlink:href="#Tahoma-105"/>
     <use x="144.949219" xlink:href="#Tahoma-108"/>
     <use x="167.800781" xlink:href="#Tahoma-61"/>
     <use x="240.554688" xlink:href="#Tahoma-39"/>
     <use x="261.648438" xlink:href="#Tahoma-48"/>
     <use x="316.238281" xlink:href="#Tahoma-46"/>
     <use x="346.511719" xlink:href="#Tahoma-50"/>
     <use x="401.101562" xlink:href="#Tahoma-39"/>
    </g>
    <!-- assets = 9 -->
    <g transform="translate(171.009096 82.395424)scale(0.08 -0.08)">
     <defs>
      <path d="M 40.625 42.828125 
Q 40.625 50.25 39.25 54.90625 
Q 37.890625 59.578125 35.5 62.109375 
Q 33.34375 64.453125 31.140625 65.328125 
Q 28.953125 66.21875 26.3125 66.21875 
Q 20.3125 66.21875 16.75 61.921875 
Q 13.1875 57.625 13.1875 49.46875 
Q 13.1875 44.875 14.359375 41.890625 
Q 15.53125 38.921875 18.171875 36.765625 
Q 20.015625 35.25 22.359375 34.734375 
Q 24.703125 34.234375 27.390625 34.234375 
Q 30.515625 34.234375 34.125 35.328125 
Q 37.75 36.421875 40.4375 38.234375 
Q 40.484375 38.96875 40.546875 40.15625 
Q 40.625 41.359375 40.625 42.828125 
z
M 3.265625 49.078125 
Q 3.265625 54.6875 5.09375 59.328125 
Q 6.9375 63.96875 10.109375 67.328125 
Q 13.140625 70.5625 17.5 72.359375 
Q 21.875 74.171875 26.375 74.171875 
Q 31.390625 74.171875 35.46875 72.484375 
Q 39.546875 70.796875 42.53125 67.625 
Q 46.296875 63.625 48.359375 57.125 
Q 50.4375 50.640625 50.4375 40.71875 
Q 50.4375 31.6875 48.40625 23.609375 
Q 46.390625 15.53125 42.4375 10.203125 
Q 38.234375 4.546875 32.34375 1.5625 
Q 26.46875 -1.421875 17.828125 -1.421875 
Q 15.875 -1.421875 13.671875 -1.203125 
Q 11.46875 -0.984375 9.578125 -0.390625 
L 9.578125 8.9375 
L 10.0625 8.9375 
Q 11.28125 8.25 13.859375 7.609375 
Q 16.453125 6.984375 19.140625 6.984375 
Q 28.71875 6.984375 34.1875 13.28125 
Q 39.65625 19.578125 40.375 31.296875 
Q 36.46875 28.65625 32.921875 27.4375 
Q 29.390625 26.21875 25.25 26.21875 
Q 21.1875 26.21875 17.859375 27.09375 
Q 14.546875 27.984375 11.1875 30.515625 
Q 7.28125 33.5 5.265625 38.0625 
Q 3.265625 42.625 3.265625 49.078125 
z
" id="Tahoma-57"/>
     </defs>
     <use xlink:href="#Tahoma-97"/>
     <use x="52.490234" xlink:href="#Tahoma-115"/>
     <use x="97.119141" xlink:href="#Tahoma-115"/>
     <use x="141.748047" xlink:href="#Tahoma-101"/>
     <use x="194.384766" xlink:href="#Tahoma-116"/>
     <use x="227.832031" xlink:href="#Tahoma-115"/>
     <use x="272.460938" xlink:href="#Tahoma-32"/>
     <use x="303.710938" xlink:href="#Tahoma-61"/>
     <use x="376.464844" xlink:href="#Tahoma-32"/>
     <use x="407.714844" xlink:href="#Tahoma-57"/>
    </g>
    <!-- event_rels = 'mutEx' -->
    <g transform="translate(171.009096 91.299924)scale(0.08 -0.08)">
     <defs>
      <path d="M 49.515625 54.546875 
L 28.953125 0 
L 20.703125 0 
L 0.296875 54.546875 
L 10.203125 54.546875 
L 25.140625 12.453125 
L 39.9375 54.546875 
z
" id="Tahoma-118"/>
      <path d="M 55.375 -14.65625 
L -0.78125 -14.65625 
L -0.78125 -8.296875 
L 55.375 -8.296875 
z
" id="Tahoma-95"/>
     </defs>
     <use xlink:href="#Tahoma-101"/>
     <use x="52.636719" xlink:href="#Tahoma-118"/>
     <use x="101.691406" xlink:href="#Tahoma-101"/>
     <use x="154.328125" xlink:href="#Tahoma-110"/>
     <use x="210.089844" xlink:href="#Tahoma-116"/>
     <use x="243.537109" xlink:href="#Tahoma-95"/>
     <use x="298.126953" xlink:href="#Tahoma-114"/>
     <use x="333.662109" xlink:href="#Tahoma-101"/>
     <use x="386.298828" xlink:href="#Tahoma-108"/>
     <use x="409.150391" xlink:href="#Tahoma-115"/>
     <use x="453.779297" xlink:href="#Tahoma-32"/>
     <use x="485.029297" xlink:href="#Tahoma-61"/>
     <use x="557.783203" xlink:href="#Tahoma-32"/>
     <use x="589.033203" xlink:href="#Tahoma-39"/>
     <use x="610.126953" xlink:href="#Tahoma-109"/>
     <use x="694.111328" xlink:href="#Tahoma-117"/>
     <use x="749.873047" xlink:href="#Tahoma-116"/>
     <use x="783.320312" xlink:href="#Tahoma-69"/>
     <use x="839.423828" xlink:href="#Tahoma-120"/>
     <use x="888.935547" xlink:href="#Tahoma-39"/>
    </g>
    <!-- prec = 3  -->
    <g transform="translate(171.009096 100.204424)scale(0.08 -0.08)">
     <use xlink:href="#Tahoma-112"/>
     <use x="55.273438" xlink:href="#Tahoma-114"/>
     <use x="90.808594" xlink:href="#Tahoma-101"/>
     <use x="143.445312" xlink:href="#Tahoma-99"/>
     <use x="189.587891" xlink:href="#Tahoma-32"/>
     <use x="220.837891" xlink:href="#Tahoma-61"/>
     <use x="293.591797" xlink:href="#Tahoma-32"/>
     <use x="324.841797" xlink:href="#Tahoma-51"/>
     <use x="379.431641" xlink:href="#Tahoma-32"/>
    </g>
    <!-- max_fails=0  -->
    <g transform="translate(171.009096 109.108924)scale(0.08 -0.08)">
     <defs>
      <path d="M 35.359375 67.1875 
L 34.859375 67.1875 
Q 33.640625 67.625 31.34375 68.03125 
Q 29.046875 68.453125 27.25 68.453125 
Q 21.4375 68.453125 18.96875 65.84375 
Q 16.5 63.234375 16.5 56.390625 
L 16.5 54.546875 
L 31.6875 54.546875 
L 31.6875 46.921875 
L 16.796875 46.921875 
L 16.796875 0 
L 7.625 0 
L 7.625 46.921875 
L 1.421875 46.921875 
L 1.421875 54.546875 
L 7.625 54.546875 
L 7.625 56.34375 
Q 7.625 66.21875 12.359375 71.34375 
Q 17.09375 76.46875 25.921875 76.46875 
Q 28.46875 76.46875 30.90625 76.1875 
Q 33.34375 75.921875 35.359375 75.59375 
z
" id="Tahoma-102"/>
     </defs>
     <use xlink:href="#Tahoma-109"/>
     <use x="83.984375" xlink:href="#Tahoma-97"/>
     <use x="136.474609" xlink:href="#Tahoma-120"/>
     <use x="185.986328" xlink:href="#Tahoma-95"/>
     <use x="240.576172" xlink:href="#Tahoma-102"/>
     <use x="271.162109" xlink:href="#Tahoma-97"/>
     <use x="323.652344" xlink:href="#Tahoma-105"/>
     <use x="346.628906" xlink:href="#Tahoma-108"/>
     <use x="369.480469" xlink:href="#Tahoma-115"/>
     <use x="414.109375" xlink:href="#Tahoma-61"/>
     <use x="486.863281" xlink:href="#Tahoma-48"/>
     <use x="541.453125" xlink:href="#Tahoma-32"/>
    </g>
    <!-- date=2022-04-22 14:53 -->
    <g transform="translate(171.009096 118.013424)scale(0.08 -0.08)">
     <defs>
      <path d="M 31.9375 27.390625 
L 4.390625 27.390625 
L 4.390625 36.234375 
L 31.9375 36.234375 
z
" id="Tahoma-45"/>
      <path d="M 23.53125 40.625 
L 11.859375 40.625 
L 11.859375 54.546875 
L 23.53125 54.546875 
z
M 23.53125 0 
L 11.859375 0 
L 11.859375 13.921875 
L 23.53125 13.921875 
z
" id="Tahoma-58"/>
     </defs>
     <use xlink:href="#Tahoma-100"/>
     <use x="55.273438" xlink:href="#Tahoma-97"/>
     <use x="107.763672" xlink:href="#Tahoma-116"/>
     <use x="141.210938" xlink:href="#Tahoma-101"/>
     <use x="193.847656" xlink:href="#Tahoma-61"/>
     <use x="266.601562" xlink:href="#Tahoma-50"/>
     <use x="321.191406" xlink:href="#Tahoma-48"/>
     <use x="375.78125" xlink:href="#Tahoma-50"/>
     <use x="430.371094" xlink:href="#Tahoma-50"/>
     <use x="484.960938" xlink:href="#Tahoma-45"/>
     <use x="521.289062" xlink:href="#Tahoma-48"/>
     <use x="575.878906" xlink:href="#Tahoma-52"/>
     <use x="630.46875" xlink:href="#Tahoma-45"/>
     <use x="666.796875" xlink:href="#Tahoma-50"/>
     <use x="721.386719" xlink:href="#Tahoma-50"/>
     <use x="775.976562" xlink:href="#Tahoma-32"/>
     <use x="807.226562" xlink:href="#Tahoma-49"/>
     <use x="861.816406" xlink:href="#Tahoma-52"/>
     <use x="916.40625" xlink:href="#Tahoma-58"/>
     <use x="951.757812" xlink:href="#Tahoma-53"/>
     <use x="1006.347656" xlink:href="#Tahoma-51"/>
    </g>
   </g>
   <g id="legend_1">
    <g id="patch_7">
     <path d="M 389.12976 42.36295 
L 457.21601 42.36295 
Q 458.81601 42.36295 458.81601 40.76295 
L 458.81601 29.8742 
Q 458.81601 28.2742 457.21601 28.2742 
L 389.12976 28.2742 
Q 387.52976 28.2742 387.52976 29.8742 
L 387.52976 40.76295 
Q 387.52976 42.36295 389.12976 42.36295 
z
" style="fill:#ffffff;opacity:0.8;stroke:#cccccc;stroke-linejoin:miter;"/>
    </g>
    <g id="line2d_34">
     <path d="M 390.72976 34.75295 
L 406.72976 34.75295 
" style="fill:none;stroke:#000000;stroke-dasharray:12.8,3.2,2,3.2;stroke-dashoffset:0;stroke-opacity:0.75;stroke-width:2;"/>
    </g>
    <g id="line2d_35">
     <g>
      <use style="fill-opacity:0;stroke:#000000;stroke-opacity:0.75;" x="398.72976" xlink:href="#m092542f4eb" y="34.75295"/>
     </g>
    </g>
    <g id="text_20">
     <!-- infr.water.sB -->
     <g transform="translate(413.12976 37.55295)scale(0.08 -0.08)">
      <defs>
       <path d="M 72.75 54.546875 
L 58.9375 0 
L 50.4375 0 
L 37.109375 42.046875 
L 23.875 0 
L 15.4375 0 
L 1.46875 54.546875 
L 11.03125 54.546875 
L 20.65625 12.3125 
L 33.59375 54.546875 
L 41.15625 54.546875 
L 54.4375 12.3125 
L 63.53125 54.546875 
z
" id="Tahoma-119"/>
       <path d="M 56.6875 22.3125 
Q 56.6875 16.890625 54.640625 12.734375 
Q 52.59375 8.59375 49.125 5.90625 
Q 45.015625 2.6875 40.328125 1.34375 
Q 35.640625 0 28.21875 0 
L 7.375 0 
L 7.375 72.703125 
L 26.65625 72.703125 
Q 34.421875 72.703125 38.296875 72.1875 
Q 42.1875 71.6875 45.75 69.78125 
Q 49.65625 67.671875 51.453125 64.28125 
Q 53.265625 60.890625 53.265625 56.296875 
Q 53.265625 51.171875 50.5625 47.109375 
Q 47.859375 43.0625 43.0625 40.765625 
L 43.0625 40.375 
Q 49.5625 38.625 53.125 33.953125 
Q 56.6875 29.296875 56.6875 22.3125 
z
M 43.21875 54.9375 
Q 43.21875 57.5625 42.328125 59.484375 
Q 41.453125 61.421875 39.5 62.546875 
Q 37.15625 63.875 34.265625 64.15625 
Q 31.390625 64.453125 26.3125 64.453125 
L 17.046875 64.453125 
L 17.046875 43.171875 
L 28.03125 43.171875 
Q 32.5625 43.171875 34.703125 43.625 
Q 36.859375 44.09375 39.15625 45.5625 
Q 41.359375 46.96875 42.28125 49.265625 
Q 43.21875 51.5625 43.21875 54.9375 
z
M 46.625 21.921875 
Q 46.625 26.03125 45.453125 28.6875 
Q 44.28125 31.34375 40.71875 33.203125 
Q 38.421875 34.421875 35.71875 34.765625 
Q 33.015625 35.109375 28.03125 35.109375 
L 17.046875 35.109375 
L 17.046875 8.25 
L 24.90625 8.25 
Q 31.25 8.25 34.90625 8.828125 
Q 38.578125 9.421875 41.359375 11.328125 
Q 44.09375 13.234375 45.359375 15.640625 
Q 46.625 18.0625 46.625 21.921875 
z
" id="Tahoma-66"/>
      </defs>
      <use xlink:href="#Tahoma-105"/>
      <use x="22.851562" xlink:href="#Tahoma-110"/>
      <use x="78.613281" xlink:href="#Tahoma-102"/>
      <use x="109.949219" xlink:href="#Tahoma-114"/>
      <use x="132.484375" xlink:href="#Tahoma-46"/>
      <use x="162.757812" xlink:href="#Tahoma-119"/>
      <use x="236.101562" xlink:href="#Tahoma-97"/>
      <use x="288.591797" xlink:href="#Tahoma-116"/>
      <use x="322.039062" xlink:href="#Tahoma-101"/>
      <use x="374.675781" xlink:href="#Tahoma-114"/>
      <use x="397.210938" xlink:href="#Tahoma-46"/>
      <use x="427.484375" xlink:href="#Tahoma-115"/>
      <use x="472.113281" xlink:href="#Tahoma-66"/>
     </g>
    </g>
   </g>
  </g>
  <g id="text_21">
   <!-- infr.water.sB r1a AEP-Impacts plot for 6 events -->
   <g transform="translate(135.5775 10.34124)scale(0.096 -0.096)">
    <defs>
     <path d="M 32.765625 0 
L 4.546875 0 
L 4.546875 7.421875 
L 13.8125 7.421875 
L 13.8125 65.28125 
L 4.546875 65.28125 
L 4.546875 72.703125 
L 32.765625 72.703125 
L 32.765625 65.28125 
L 23.484375 65.28125 
L 23.484375 7.421875 
L 32.765625 7.421875 
z
" id="Tahoma-73"/>
    </defs>
    <use xlink:href="#Tahoma-105"/>
    <use x="22.851562" xlink:href="#Tahoma-110"/>
    <use x="78.613281" xlink:href="#Tahoma-102"/>
    <use x="109.949219" xlink:href="#Tahoma-114"/>
    <use x="132.484375" xlink:href="#Tahoma-46"/>
    <use x="162.757812" xlink:href="#Tahoma-119"/>
    <use x="236.101562" xlink:href="#Tahoma-97"/>
    <use x="288.591797" xlink:href="#Tahoma-116"/>
    <use x="322.039062" xlink:href="#Tahoma-101"/>
    <use x="374.675781" xlink:href="#Tahoma-114"/>
    <use x="397.210938" xlink:href="#Tahoma-46"/>
    <use x="427.484375" xlink:href="#Tahoma-115"/>
    <use x="472.113281" xlink:href="#Tahoma-66"/>
    <use x="531.048828" xlink:href="#Tahoma-32"/>
    <use x="562.298828" xlink:href="#Tahoma-114"/>
    <use x="598.333984" xlink:href="#Tahoma-49"/>
    <use x="652.923828" xlink:href="#Tahoma-97"/>
    <use x="705.414062" xlink:href="#Tahoma-32"/>
    <use x="736.664062" xlink:href="#Tahoma-65"/>
    <use x="796.625" xlink:href="#Tahoma-69"/>
    <use x="852.728516" xlink:href="#Tahoma-80"/>
    <use x="907.855469" xlink:href="#Tahoma-45"/>
    <use x="942.808594" xlink:href="#Tahoma-73"/>
    <use x="979.613281" xlink:href="#Tahoma-109"/>
    <use x="1063.597656" xlink:href="#Tahoma-112"/>
    <use x="1118.871094" xlink:href="#Tahoma-97"/>
    <use x="1171.361328" xlink:href="#Tahoma-99"/>
    <use x="1217.503906" xlink:href="#Tahoma-116"/>
    <use x="1250.951172" xlink:href="#Tahoma-115"/>
    <use x="1295.580078" xlink:href="#Tahoma-32"/>
    <use x="1326.830078" xlink:href="#Tahoma-112"/>
    <use x="1382.103516" xlink:href="#Tahoma-108"/>
    <use x="1404.955078" xlink:href="#Tahoma-111"/>
    <use x="1459.251953" xlink:href="#Tahoma-116"/>
    <use x="1492.699219" xlink:href="#Tahoma-32"/>
    <use x="1523.949219" xlink:href="#Tahoma-102"/>
    <use x="1554.785156" xlink:href="#Tahoma-111"/>
    <use x="1609.082031" xlink:href="#Tahoma-114"/>
    <use x="1645.117188" xlink:href="#Tahoma-32"/>
    <use x="1676.367188" xlink:href="#Tahoma-54"/>
    <use x="1730.957031" xlink:href="#Tahoma-32"/>
    <use x="1762.207031" xlink:href="#Tahoma-101"/>
    <use x="1814.84375" xlink:href="#Tahoma-118"/>
    <use x="1863.898438" xlink:href="#Tahoma-101"/>
    <use x="1916.535156" xlink:href="#Tahoma-110"/>
    <use x="1972.296875" xlink:href="#Tahoma-116"/>
    <use x="2005.744141" xlink:href="#Tahoma-115"/>
   </g>
  </g>
 </g>
 <defs>
  <clipPath id="pdd67e44ef2">
   <rect height="234.34806" width="416.86702" x="45.94899" y="24.2742"/>
  </clipPath>
 </defs>
</svg>
